<svg id="visual" viewBox="0 0 900 600" width="900" height="600" xmlns="http://www.w3.org/2000/svg" xmlns:xlink="http://www.w3.org/1999/xlink" version="1.1"><rect x="0" y="0" width="900" height="600" fill="#001220"></rect><path d="M0 354L21.5 355.2C43 356.3 86 358.7 128.8 373.7C171.7 388.7 214.3 416.3 257.2 420.8C300 425.3 343 406.7 385.8 402.2C428.7 397.7 471.3 407.3 514.2 414.2C557 421 600 425 642.8 423C685.7 421 728.3 413 771.2 415C814 417 857 429 878.5 435L900 441L900 601L878.5 601C857 601 814 601 771.2 601C728.3 601 685.7 601 642.8 601C600 601 557 601 514.2 601C471.3 601 428.7 601 385.8 601C343 601 300 601 257.2 601C214.3 601 171.7 601 128.8 601C86 601 43 601 21.5 601L0 601Z" fill="#112d4e"></path><path d="M0 460L21.5 451.8C43 443.7 86 427.3 128.8 428.8C171.7 430.3 214.3 449.7 257.2 455C300 460.3 343 451.7 385.8 445.7C428.7 439.7 471.3 436.3 514.2 433.8C557 431.3 600 429.7 642.8 430C685.7 430.3 728.3 432.7 771.2 430.7C814 428.7 857 422.3 878.5 419.2L900 416L900 601L878.5 601C857 601 814 601 771.2 601C728.3 601 685.7 601 642.8 601C600 601 557 601 514.2 601C471.3 601 428.7 601 385.8 601C343 601 300 601 257.2 601C214.3 601 171.7 601 128.8 601C86 601 43 601 21.5 601L0 601Z" fill="#1c3d65"></path><path d="M0 480L21.5 473.2C43 466.3 86 452.7 128.8 450.7C171.7 448.7 214.3 458.3 257.2 469.7C300 481 343 494 385.8 497C428.7 500 471.3 493 514.2 487C557 481 600 476 642.8 471C685.7 466 728.3 461 771.2 459.2C814 457.3 857 458.7 878.5 459.3L900 460L900 601L878.5 601C857 601 814 601 771.2 601C728.3 601 685.7 601 642.8 601C600 601 557 601 514.2 601C471.3 601 428.7 601 385.8 601C343 601 300 601 257.2 601C214.3 601 171.7 601 128.8 601C86 601 43 601 21.5 601L0 601Z" fill="#284e7d"></path><path d="M0 490L21.5 496.5C43 503 86 516 128.8 521.3C171.7 526.7 214.3 524.3 257.2 519.3C300 514.3 343 506.7 385.8 508.3C428.7 510 471.3 521 514.2 526.7C557 532.3 600 532.7 642.8 528C685.7 523.3 728.3 513.7 771.2 514C814 514.3 857 524.7 878.5 529.8L900 535L900 601L878.5 601C857 601 814 601 771.2 601C728.3 601 685.7 601 642.8 601C600 601 557 601 514.2 601C471.3 601 428.7 601 385.8 601C343 601 300 601 257.2 601C214.3 601 171.7 601 128.8 601C86 601 43 601 21.5 601L0 601Z" fill="#336096"></path><path d="M0 533L21.5 536.7C43 540.3 86 547.7 128.8 553C171.7 558.3 214.3 561.7 257.2 561.2C300 560.7 343 556.3 385.8 557.7C428.7 559 471.3 566 514.2 565.5C557 565 600 557 642.8 554.2C685.7 551.3 728.3 553.7 771.2 552.3C814 551 857 546 878.5 543.5L900 541L900 601L878.5 601C857 601 814 601 771.2 601C728.3 601 685.7 601 642.8 601C600 601 557 601 514.2 601C471.3 601 428.7 601 385.8 601C343 601 300 601 257.2 601C214.3 601 171.7 601 128.8 601C86 601 43 601 21.5 601L0 601Z" fill="#3f72af"></path></svg>