<svg id="visual" viewBox="0 0 900 600" width="900" height="600" xmlns="http://www.w3.org/2000/svg" xmlns:xlink="http://www.w3.org/1999/xlink" version="1.1"><g stroke-width="1" stroke-linejoin="bevel"><path d="M435.1 312.9L423.1 276.8L380.9 292.2Z" fill="#e9e9e9" stroke="#e9e9e9"></path><path d="M423.1 276.8L416.3 265.6L380.9 292.2Z" fill="#e9e9e9" stroke="#e9e9e9"></path><path d="M380.9 292.2L404.7 342.4L435.1 312.9Z" fill="#e7e7e7" stroke="#e7e7e7"></path><path d="M380.9 292.2L376.2 342.1L404.7 342.4Z" fill="#e9e9e9" stroke="#e9e9e9"></path><path d="M416.3 265.6L373.9 250.8L380.9 292.2Z" fill="#e1e1e1" stroke="#e1e1e1"></path><path d="M380.9 292.2L296.2 308.2L376.2 342.1Z" fill="#e9e9e9" stroke="#e9e9e9"></path><path d="M416.3 265.6L386.6 237.9L373.9 250.8Z" fill="#e3e3e3" stroke="#e3e3e3"></path><path d="M376.2 342.1L401.3 369.2L404.7 342.4Z" fill="#e3e3e3" stroke="#e3e3e3"></path><path d="M404.7 342.4L418.6 371.4L435.1 312.9Z" fill="#e1e1e1" stroke="#e1e1e1"></path><path d="M401.3 369.2L418.6 371.4L404.7 342.4Z" fill="#ebebeb" stroke="#ebebeb"></path><path d="M328.3 226.8L346.3 266.9L373.9 250.8Z" fill="#e7e7e7" stroke="#e7e7e7"></path><path d="M373.9 250.8L346.3 266.9L380.9 292.2Z" fill="#e7e7e7" stroke="#e7e7e7"></path><path d="M490.1 288.1L461.3 253.1L435.1 312.9Z" fill="#ededed" stroke="#ededed"></path><path d="M435.1 312.9L461.3 253.1L423.1 276.8Z" fill="#ebebeb" stroke="#ebebeb"></path><path d="M423.1 276.8L461.3 253.1L416.3 265.6Z" fill="#e9e9e9" stroke="#e9e9e9"></path><path d="M416.3 265.6L427.7 183.6L386.6 237.9Z" fill="#efefef" stroke="#efefef"></path><path d="M296.2 308.2L352.9 359.9L376.2 342.1Z" fill="#efefef" stroke="#efefef"></path><path d="M376.2 342.1L352.9 359.9L401.3 369.2Z" fill="#e3e3e3" stroke="#e3e3e3"></path><path d="M498.7 361.2L490.1 288.1L435.1 312.9Z" fill="#ededed" stroke="#ededed"></path><path d="M427.7 183.6L382.9 219.5L386.6 237.9Z" fill="#f2f2f2" stroke="#f2f2f2"></path><path d="M386.6 237.9L382.9 219.5L373.9 250.8Z" fill="#e7e7e7" stroke="#e7e7e7"></path><path d="M397.9 397.4L430.3 392.4L418.6 371.4Z" fill="#ededed" stroke="#ededed"></path><path d="M418.6 371.4L462.1 378.2L435.1 312.9Z" fill="#e7e7e7" stroke="#e7e7e7"></path><path d="M397.9 397.4L418.6 371.4L401.3 369.2Z" fill="#ededed" stroke="#ededed"></path><path d="M430.3 392.4L462.1 378.2L418.6 371.4Z" fill="#e1e1e1" stroke="#e1e1e1"></path><path d="M353.6 399.2L397.9 397.4L401.3 369.2Z" fill="#f6f6f6" stroke="#f6f6f6"></path><path d="M353.6 399.2L401.9 406.1L397.9 397.4Z" fill="#e3e3e3" stroke="#e3e3e3"></path><path d="M397.9 397.4L401.9 406.1L430.3 392.4Z" fill="#ebebeb" stroke="#ebebeb"></path><path d="M430.3 392.4L454.1 449.5L462.1 378.2Z" fill="#e3e3e3" stroke="#e3e3e3"></path><path d="M328.3 226.8L311.2 259.8L346.3 266.9Z" fill="#e5e5e5" stroke="#e5e5e5"></path><path d="M346.3 266.9L296.2 308.2L380.9 292.2Z" fill="#f2f2f2" stroke="#f2f2f2"></path><path d="M462.1 378.2L498.7 361.2L435.1 312.9Z" fill="#e9e9e9" stroke="#e9e9e9"></path><path d="M311.2 259.8L303.6 273.8L346.3 266.9Z" fill="#f6f6f6" stroke="#f6f6f6"></path><path d="M337.3 215.5L328.3 226.8L373.9 250.8Z" fill="#ededed" stroke="#ededed"></path><path d="M311.2 259.8L292.8 235.8L303.6 273.8Z" fill="#f4f4f4" stroke="#f4f4f4"></path><path d="M296.2 308.2L342.6 391.1L352.9 359.9Z" fill="#e3e3e3" stroke="#e3e3e3"></path><path d="M352.9 359.9L353.6 399.2L401.3 369.2Z" fill="#efefef" stroke="#efefef"></path><path d="M382.9 219.5L337.3 215.5L373.9 250.8Z" fill="#e9e9e9" stroke="#e9e9e9"></path><path d="M342.6 391.1L353.6 399.2L352.9 359.9Z" fill="#f2f2f2" stroke="#f2f2f2"></path><path d="M303.6 273.8L296.2 308.2L346.3 266.9Z" fill="#e7e7e7" stroke="#e7e7e7"></path><path d="M427.7 183.6L370.2 193.9L382.9 219.5Z" fill="#e9e9e9" stroke="#e9e9e9"></path><path d="M382.9 219.5L370.2 193.9L337.3 215.5Z" fill="#efefef" stroke="#efefef"></path><path d="M353.6 399.2L405.6 418.7L401.9 406.1Z" fill="#e7e7e7" stroke="#e7e7e7"></path><path d="M401.9 406.1L405.6 418.7L430.3 392.4Z" fill="#f6f6f6" stroke="#f6f6f6"></path><path d="M462.1 378.2L502.4 454.8L498.7 361.2Z" fill="#e3e3e3" stroke="#e3e3e3"></path><path d="M545.7 208.5L427.7 183.6L461.3 253.1Z" fill="#f6f6f6" stroke="#f6f6f6"></path><path d="M461.3 253.1L427.7 183.6L416.3 265.6Z" fill="#f2f2f2" stroke="#f2f2f2"></path><path d="M530.7 286.9L528.7 279.1L490.1 288.1Z" fill="#e1e1e1" stroke="#e1e1e1"></path><path d="M490.1 288.1L528.7 279.1L461.3 253.1Z" fill="#f4f4f4" stroke="#f4f4f4"></path><path d="M541.8 324.1L530.7 286.9L490.1 288.1Z" fill="#ededed" stroke="#ededed"></path><path d="M319.2 202.5L328.3 226.8L337.3 215.5Z" fill="#ededed" stroke="#ededed"></path><path d="M319.2 202.5L292.8 235.8L328.3 226.8Z" fill="#e7e7e7" stroke="#e7e7e7"></path><path d="M328.3 226.8L292.8 235.8L311.2 259.8Z" fill="#f4f4f4" stroke="#f4f4f4"></path><path d="M208.5 289.9L232.5 338.4L296.2 308.2Z" fill="#f2f2f2" stroke="#f2f2f2"></path><path d="M322.9 187.6L337.3 215.5L370.2 193.9Z" fill="#e1e1e1" stroke="#e1e1e1"></path><path d="M322.9 187.6L319.2 202.5L337.3 215.5Z" fill="#f4f4f4" stroke="#f4f4f4"></path><path d="M498.7 361.2L541.8 324.1L490.1 288.1Z" fill="#ebebeb" stroke="#ebebeb"></path><path d="M585.4 275.6L545.7 208.5L528.7 279.1Z" fill="#e5e5e5" stroke="#e5e5e5"></path><path d="M316.2 157.6L322.9 187.6L370.2 193.9Z" fill="#e5e5e5" stroke="#e5e5e5"></path><path d="M319.2 202.5L257.6 207.5L292.8 235.8Z" fill="#e7e7e7" stroke="#e7e7e7"></path><path d="M420.7 141.8L414.9 147.3L427.7 183.6Z" fill="#ebebeb" stroke="#ebebeb"></path><path d="M427.7 183.6L414.9 147.3L370.2 193.9Z" fill="#e1e1e1" stroke="#e1e1e1"></path><path d="M431.3 476.5L454.1 449.5L405.6 418.7Z" fill="#e5e5e5" stroke="#e5e5e5"></path><path d="M405.6 418.7L454.1 449.5L430.3 392.4Z" fill="#f4f4f4" stroke="#f4f4f4"></path><path d="M498.7 361.2L581.4 418.7L541.8 324.1Z" fill="#ebebeb" stroke="#ebebeb"></path><path d="M451.7 108.3L420.7 141.8L427.7 183.6Z" fill="#f6f6f6" stroke="#f6f6f6"></path><path d="M414.9 147.3L316.2 157.6L370.2 193.9Z" fill="#ebebeb" stroke="#ebebeb"></path><path d="M287.2 421.7L369.9 460.7L353.6 399.2Z" fill="#efefef" stroke="#efefef"></path><path d="M353.6 399.2L369.9 460.7L405.6 418.7Z" fill="#e9e9e9" stroke="#e9e9e9"></path><path d="M287.2 421.7L353.6 399.2L342.6 391.1Z" fill="#e5e5e5" stroke="#e5e5e5"></path><path d="M585.4 275.6L528.7 279.1L530.7 286.9Z" fill="#f2f2f2" stroke="#f2f2f2"></path><path d="M528.7 279.1L545.7 208.5L461.3 253.1Z" fill="#f6f6f6" stroke="#f6f6f6"></path><path d="M268.2 413.4L342.6 391.1L296.2 308.2Z" fill="#ebebeb" stroke="#ebebeb"></path><path d="M268.2 413.4L287.2 421.7L342.6 391.1Z" fill="#e9e9e9" stroke="#e9e9e9"></path><path d="M367.2 93.3L316.2 157.6L414.9 147.3Z" fill="#ebebeb" stroke="#ebebeb"></path><path d="M322.9 187.6L257.6 207.5L319.2 202.5Z" fill="#f2f2f2" stroke="#f2f2f2"></path><path d="M596.4 308.1L580.4 299.8L600.2 317.2Z" fill="#ededed" stroke="#ededed"></path><path d="M541.8 324.1L580.4 299.8L530.7 286.9Z" fill="#e7e7e7" stroke="#e7e7e7"></path><path d="M411.6 486.8L431.3 476.5L405.6 418.7Z" fill="#ebebeb" stroke="#ebebeb"></path><path d="M454.1 449.5L502.4 454.8L462.1 378.2Z" fill="#e7e7e7" stroke="#e7e7e7"></path><path d="M316.2 157.6L257.6 207.5L322.9 187.6Z" fill="#e3e3e3" stroke="#e3e3e3"></path><path d="M208.5 289.9L296.2 308.2L303.6 273.8Z" fill="#efefef" stroke="#efefef"></path><path d="M580.4 299.8L585.4 275.6L530.7 286.9Z" fill="#f2f2f2" stroke="#f2f2f2"></path><path d="M232.5 338.4L268.2 413.4L296.2 308.2Z" fill="#f4f4f4" stroke="#f4f4f4"></path><path d="M401.9 550.5L411.6 486.8L369.9 460.7Z" fill="#e3e3e3" stroke="#e3e3e3"></path><path d="M208.5 289.9L303.6 273.8L292.8 235.8Z" fill="#e3e3e3" stroke="#e3e3e3"></path><path d="M501.7 485.8L502.4 454.8L454.1 449.5Z" fill="#e7e7e7" stroke="#e7e7e7"></path><path d="M369.9 460.7L411.6 486.8L405.6 418.7Z" fill="#ededed" stroke="#ededed"></path><path d="M501.7 485.8L542.1 456.4L502.4 454.8Z" fill="#f4f4f4" stroke="#f4f4f4"></path><path d="M316.6 493.5L369.9 460.7L287.2 421.7Z" fill="#f4f4f4" stroke="#f4f4f4"></path><path d="M600.2 317.2L580.4 299.8L541.8 324.1Z" fill="#efefef" stroke="#efefef"></path><path d="M580.4 299.8L605.2 286.9L585.4 275.6Z" fill="#f2f2f2" stroke="#f2f2f2"></path><path d="M451.7 108.3L424.3 111.3L420.7 141.8Z" fill="#ededed" stroke="#ededed"></path><path d="M420.7 141.8L424.3 111.3L414.9 147.3Z" fill="#e3e3e3" stroke="#e3e3e3"></path><path d="M581.4 418.7L600.2 317.2L541.8 324.1Z" fill="#ededed" stroke="#ededed"></path><path d="M596.4 308.1L605.2 286.9L580.4 299.8Z" fill="#efefef" stroke="#efefef"></path><path d="M316.2 157.6L247.6 189.6L257.6 207.5Z" fill="#e5e5e5" stroke="#e5e5e5"></path><path d="M257.6 207.5L208.5 289.9L292.8 235.8Z" fill="#ededed" stroke="#ededed"></path><path d="M600.2 317.2L605.2 286.9L596.4 308.1Z" fill="#f4f4f4" stroke="#f4f4f4"></path><path d="M585.4 275.6L603.1 261.6L545.7 208.5Z" fill="#e5e5e5" stroke="#e5e5e5"></path><path d="M505.3 112.2L451.7 108.3L427.7 183.6Z" fill="#f4f4f4" stroke="#f4f4f4"></path><path d="M605.2 286.9L603.1 261.6L585.4 275.6Z" fill="#efefef" stroke="#efefef"></path><path d="M545.7 208.5L505.3 112.2L427.7 183.6Z" fill="#e5e5e5" stroke="#e5e5e5"></path><path d="M215.1 197.9L208.5 289.9L257.6 207.5Z" fill="#ebebeb" stroke="#ebebeb"></path><path d="M232.5 338.4L200.1 381.4L268.2 413.4Z" fill="#f4f4f4" stroke="#f4f4f4"></path><path d="M501.7 485.8L454.1 449.5L431.3 476.5Z" fill="#efefef" stroke="#efefef"></path><path d="M502.4 454.8L542.1 456.4L498.7 361.2Z" fill="#f4f4f4" stroke="#f4f4f4"></path><path d="M513.3 533.7L501.7 485.8L431.3 476.5Z" fill="#f4f4f4" stroke="#f4f4f4"></path><path d="M542.1 456.4L581.4 418.7L498.7 361.2Z" fill="#e7e7e7" stroke="#e7e7e7"></path><path d="M603.1 261.6L581.2 180.8L545.7 208.5Z" fill="#f6f6f6" stroke="#f6f6f6"></path><path d="M406.9 0L367.2 93.3L424.3 111.3Z" fill="#e1e1e1" stroke="#e1e1e1"></path><path d="M424.3 111.3L367.2 93.3L414.9 147.3Z" fill="#e5e5e5" stroke="#e5e5e5"></path><path d="M271.8 130.2L238.1 168.8L247.6 189.6Z" fill="#e7e7e7" stroke="#e7e7e7"></path><path d="M236.2 477.5L316.6 493.5L287.2 421.7Z" fill="#e3e3e3" stroke="#e3e3e3"></path><path d="M411.6 486.8L401.9 550.5L431.3 476.5Z" fill="#f4f4f4" stroke="#f4f4f4"></path><path d="M581.2 180.8L505.3 112.2L545.7 208.5Z" fill="#e3e3e3" stroke="#e3e3e3"></path><path d="M448.7 0L406.9 0L424.3 111.3Z" fill="#ededed" stroke="#ededed"></path><path d="M271.8 130.2L247.6 189.6L316.2 157.6Z" fill="#e3e3e3" stroke="#e3e3e3"></path><path d="M247.6 189.6L215.1 197.9L257.6 207.5Z" fill="#e9e9e9" stroke="#e9e9e9"></path><path d="M297.6 67.3L271.8 130.2L316.2 157.6Z" fill="#e5e5e5" stroke="#e5e5e5"></path><path d="M238.1 168.8L215.1 197.9L247.6 189.6Z" fill="#e5e5e5" stroke="#e5e5e5"></path><path d="M185.8 379.1L200.1 381.4L232.5 338.4Z" fill="#ebebeb" stroke="#ebebeb"></path><path d="M268.2 413.4L236.2 477.5L287.2 421.7Z" fill="#ebebeb" stroke="#ebebeb"></path><path d="M196.8 393.4L200.1 381.4L185.8 379.1Z" fill="#f4f4f4" stroke="#f4f4f4"></path><path d="M200.1 381.4L207.8 405.2L268.2 413.4Z" fill="#e9e9e9" stroke="#e9e9e9"></path><path d="M185.8 379.1L232.5 338.4L153.7 320.4Z" fill="#e7e7e7" stroke="#e7e7e7"></path><path d="M200.1 381.4L196.8 393.4L207.8 405.2Z" fill="#e7e7e7" stroke="#e7e7e7"></path><path d="M546.1 518.8L572.8 465.2L542.1 456.4Z" fill="#f4f4f4" stroke="#f4f4f4"></path><path d="M542.1 456.4L582.2 455.7L581.4 418.7Z" fill="#f4f4f4" stroke="#f4f4f4"></path><path d="M572.8 465.2L582.2 455.7L542.1 456.4Z" fill="#f2f2f2" stroke="#f2f2f2"></path><path d="M661.2 315.4L640.8 292.9L600.2 317.2Z" fill="#e9e9e9" stroke="#e9e9e9"></path><path d="M600.2 317.2L640.8 292.9L605.2 286.9Z" fill="#e7e7e7" stroke="#e7e7e7"></path><path d="M661.2 315.4L600.2 317.2L644.4 417.2Z" fill="#e7e7e7" stroke="#e7e7e7"></path><path d="M605.2 286.9L640.8 292.9L603.1 261.6Z" fill="#e3e3e3" stroke="#e3e3e3"></path><path d="M603.1 261.6L634.5 210.6L581.2 180.8Z" fill="#e9e9e9" stroke="#e9e9e9"></path><path d="M153.7 320.4L232.5 338.4L208.5 289.9Z" fill="#ededed" stroke="#ededed"></path><path d="M248.8 113.6L236.5 138.2L271.8 130.2Z" fill="#e5e5e5" stroke="#e5e5e5"></path><path d="M271.8 130.2L236.5 138.2L238.1 168.8Z" fill="#e3e3e3" stroke="#e3e3e3"></path><path d="M156.5 136.6L161.8 190.9L215.1 197.9Z" fill="#f4f4f4" stroke="#f4f4f4"></path><path d="M161.8 190.9L180.7 225.6L215.1 197.9Z" fill="#e7e7e7" stroke="#e7e7e7"></path><path d="M215.1 197.9L180.7 225.6L208.5 289.9Z" fill="#e3e3e3" stroke="#e3e3e3"></path><path d="M561.1 102.3L499.4 77.2L505.3 112.2Z" fill="#e1e1e1" stroke="#e1e1e1"></path><path d="M505.3 112.2L499.4 77.2L451.7 108.3Z" fill="#e5e5e5" stroke="#e5e5e5"></path><path d="M673.9 249.8L634.5 210.6L603.1 261.6Z" fill="#f2f2f2" stroke="#f2f2f2"></path><path d="M581.2 180.8L561.1 102.3L505.3 112.2Z" fill="#e7e7e7" stroke="#e7e7e7"></path><path d="M207.8 405.2L236.2 477.5L268.2 413.4Z" fill="#e7e7e7" stroke="#e7e7e7"></path><path d="M165.5 474.5L236.2 477.5L207.8 405.2Z" fill="#ebebeb" stroke="#ebebeb"></path><path d="M166.1 390.5L207.8 405.2L196.8 393.4Z" fill="#e7e7e7" stroke="#e7e7e7"></path><path d="M263.8 85.3L248.8 113.6L271.8 130.2Z" fill="#f4f4f4" stroke="#f4f4f4"></path><path d="M156.5 136.6L215.1 197.9L238.1 168.8Z" fill="#e3e3e3" stroke="#e3e3e3"></path><path d="M420.7 579.7L401.9 550.5L369.9 584.8Z" fill="#efefef" stroke="#efefef"></path><path d="M316.6 493.5L401.9 550.5L369.9 460.7Z" fill="#e3e3e3" stroke="#e3e3e3"></path><path d="M501.7 485.8L546.1 518.8L542.1 456.4Z" fill="#e9e9e9" stroke="#e9e9e9"></path><path d="M602.2 135.6L561.1 102.3L581.2 180.8Z" fill="#e9e9e9" stroke="#e9e9e9"></path><path d="M644.4 417.2L600.2 317.2L581.4 418.7Z" fill="#e5e5e5" stroke="#e5e5e5"></path><path d="M673.9 249.8L657.4 206.9L634.5 210.6Z" fill="#e7e7e7" stroke="#e7e7e7"></path><path d="M401.9 550.5L513.3 533.7L431.3 476.5Z" fill="#e5e5e5" stroke="#e5e5e5"></path><path d="M572.8 465.2L605.1 478.7L582.2 455.7Z" fill="#ebebeb" stroke="#ebebeb"></path><path d="M151.5 312.2L153.7 320.4L208.5 289.9Z" fill="#e7e7e7" stroke="#e7e7e7"></path><path d="M185.8 379.1L166.1 390.5L196.8 393.4Z" fill="#e5e5e5" stroke="#e5e5e5"></path><path d="M628.8 148.8L602.2 135.6L581.2 180.8Z" fill="#e9e9e9" stroke="#e9e9e9"></path><path d="M180.7 225.6L151.5 312.2L208.5 289.9Z" fill="#e9e9e9" stroke="#e9e9e9"></path><path d="M513.3 533.7L546.1 518.8L501.7 485.8Z" fill="#e3e3e3" stroke="#e3e3e3"></path><path d="M145.8 436.7L166.1 390.5L130.4 409.7Z" fill="#ebebeb" stroke="#ebebeb"></path><path d="M153.7 320.4L166.1 390.5L185.8 379.1Z" fill="#f2f2f2" stroke="#f2f2f2"></path><path d="M367.2 93.3L297.6 67.3L316.2 157.6Z" fill="#f4f4f4" stroke="#f4f4f4"></path><path d="M277.5 49.5L297.6 67.3L326.3 0Z" fill="#ebebeb" stroke="#ebebeb"></path><path d="M297.6 67.3L263.8 85.3L271.8 130.2Z" fill="#efefef" stroke="#efefef"></path><path d="M146.7 182.8L161.8 190.9L156.5 136.6Z" fill="#e3e3e3" stroke="#e3e3e3"></path><path d="M643.4 424.5L581.4 418.7L582.2 455.7Z" fill="#f4f4f4" stroke="#f4f4f4"></path><path d="M643.4 424.5L644.4 417.2L581.4 418.7Z" fill="#e5e5e5" stroke="#e5e5e5"></path><path d="M546.1 518.8L605.1 478.7L572.8 465.2Z" fill="#e1e1e1" stroke="#e1e1e1"></path><path d="M605.1 478.7L643.4 424.5L582.2 455.7Z" fill="#ebebeb" stroke="#ebebeb"></path><path d="M644.4 417.2L661.4 415.4L661.2 315.4Z" fill="#f4f4f4" stroke="#f4f4f4"></path><path d="M673.9 249.8L603.1 261.6L640.8 292.9Z" fill="#f2f2f2" stroke="#f2f2f2"></path><path d="M634.5 210.6L628.8 148.8L581.2 180.8Z" fill="#ededed" stroke="#ededed"></path><path d="M657.8 195.6L628.8 148.8L634.5 210.6Z" fill="#f2f2f2" stroke="#f2f2f2"></path><path d="M604.2 74.2L583.1 63.5L561.1 102.3Z" fill="#ededed" stroke="#ededed"></path><path d="M238.1 168.8L236.5 138.2L156.5 136.6Z" fill="#e7e7e7" stroke="#e7e7e7"></path><path d="M180.7 225.6L122.4 254.9L151.5 312.2Z" fill="#efefef" stroke="#efefef"></path><path d="M661.2 315.4L673.9 249.8L640.8 292.9Z" fill="#efefef" stroke="#efefef"></path><path d="M696.5 257.1L673.9 249.8L661.2 315.4Z" fill="#ededed" stroke="#ededed"></path><path d="M672.2 193.5L657.8 195.6L657.4 206.9Z" fill="#ededed" stroke="#ededed"></path><path d="M657.4 206.9L657.8 195.6L634.5 210.6Z" fill="#f6f6f6" stroke="#f6f6f6"></path><path d="M161.8 190.9L143.5 225.8L180.7 225.6Z" fill="#e1e1e1" stroke="#e1e1e1"></path><path d="M712.3 462.7L661.4 415.4L643.4 424.5Z" fill="#e5e5e5" stroke="#e5e5e5"></path><path d="M643.4 424.5L661.4 415.4L644.4 417.2Z" fill="#e5e5e5" stroke="#e5e5e5"></path><path d="M369.9 584.8L401.9 550.5L316.6 493.5Z" fill="#ebebeb" stroke="#ebebeb"></path><path d="M401.9 550.5L420.7 579.7L513.3 533.7Z" fill="#f2f2f2" stroke="#f2f2f2"></path><path d="M513.3 533.7L563.7 546.5L546.1 518.8Z" fill="#e9e9e9" stroke="#e9e9e9"></path><path d="M297.6 67.3L277.5 49.5L263.8 85.3Z" fill="#f6f6f6" stroke="#f6f6f6"></path><path d="M205.1 97.6L236.5 138.2L248.8 113.6Z" fill="#e9e9e9" stroke="#e9e9e9"></path><path d="M337.2 0L297.6 67.3L367.2 93.3Z" fill="#f2f2f2" stroke="#f2f2f2"></path><path d="M698.9 245.1L672.2 193.5L657.4 206.9Z" fill="#e9e9e9" stroke="#e9e9e9"></path><path d="M657.8 195.6L672.2 193.5L628.8 148.8Z" fill="#f6f6f6" stroke="#f6f6f6"></path><path d="M284.2 587.8L369.9 584.8L316.6 493.5Z" fill="#e1e1e1" stroke="#e1e1e1"></path><path d="M205.1 97.6L248.8 113.6L263.8 85.3Z" fill="#f2f2f2" stroke="#f2f2f2"></path><path d="M161.8 190.9L146.7 182.8L143.5 225.8Z" fill="#e1e1e1" stroke="#e1e1e1"></path><path d="M209.8 62.5L205.1 97.6L263.8 85.3Z" fill="#e1e1e1" stroke="#e1e1e1"></path><path d="M87.1 187.3L122.4 254.9L143.5 225.8Z" fill="#e7e7e7" stroke="#e7e7e7"></path><path d="M143.5 225.8L122.4 254.9L180.7 225.6Z" fill="#e5e5e5" stroke="#e5e5e5"></path><path d="M102.5 305.1L130.4 409.7L153.7 320.4Z" fill="#f6f6f6" stroke="#f6f6f6"></path><path d="M523.7 600L563.7 546.5L513.3 533.7Z" fill="#ebebeb" stroke="#ebebeb"></path><path d="M546.1 518.8L563.7 546.5L605.1 478.7Z" fill="#e5e5e5" stroke="#e5e5e5"></path><path d="M737.2 388.5L715.5 370.9L661.4 415.4Z" fill="#ebebeb" stroke="#ebebeb"></path><path d="M747.3 308.9L696.5 257.1L661.2 315.4Z" fill="#e3e3e3" stroke="#e3e3e3"></path><path d="M673.9 249.8L698.9 245.1L657.4 206.9Z" fill="#f2f2f2" stroke="#f2f2f2"></path><path d="M130.4 409.7L166.1 390.5L153.7 320.4Z" fill="#f4f4f4" stroke="#f4f4f4"></path><path d="M166.1 390.5L145.8 436.7L207.8 405.2Z" fill="#ededed" stroke="#ededed"></path><path d="M236.2 477.5L284.2 587.8L316.6 493.5Z" fill="#f4f4f4" stroke="#f4f4f4"></path><path d="M561.1 102.3L602.2 135.6L612.1 79.2Z" fill="#ebebeb" stroke="#ebebeb"></path><path d="M604.2 74.2L561.1 102.3L612.1 79.2Z" fill="#e9e9e9" stroke="#e9e9e9"></path><path d="M561.1 102.3L573.4 52.5L499.4 77.2Z" fill="#e7e7e7" stroke="#e7e7e7"></path><path d="M448.7 0L424.3 111.3L451.7 108.3Z" fill="#e5e5e5" stroke="#e5e5e5"></path><path d="M696.5 257.1L698.9 245.1L673.9 249.8Z" fill="#f4f4f4" stroke="#f4f4f4"></path><path d="M145.8 436.7L165.5 474.5L207.8 405.2Z" fill="#e9e9e9" stroke="#e9e9e9"></path><path d="M102.5 305.1L153.7 320.4L151.5 312.2Z" fill="#f4f4f4" stroke="#f4f4f4"></path><path d="M145.8 436.7L136.8 470.5L165.5 474.5Z" fill="#ededed" stroke="#ededed"></path><path d="M369.9 584.8L407.6 600L420.7 579.7Z" fill="#f4f4f4" stroke="#f4f4f4"></path><path d="M420.7 579.7L468.9 600L513.3 533.7Z" fill="#e3e3e3" stroke="#e3e3e3"></path><path d="M407.6 600L422.3 600L420.7 579.7Z" fill="#f6f6f6" stroke="#f6f6f6"></path><path d="M583.1 63.5L573.4 52.5L561.1 102.3Z" fill="#f2f2f2" stroke="#f2f2f2"></path><path d="M612.1 79.2L602.2 135.6L646.8 101.3Z" fill="#f2f2f2" stroke="#f2f2f2"></path><path d="M583.1 63.5L599.8 64.2L573.4 52.5Z" fill="#e9e9e9" stroke="#e9e9e9"></path><path d="M205.1 97.6L156.5 136.6L236.5 138.2Z" fill="#ededed" stroke="#ededed"></path><path d="M62.1 283.2L107.1 291.1L122.4 254.9Z" fill="#f2f2f2" stroke="#f2f2f2"></path><path d="M76.4 303.8L107.1 291.1L62.1 283.2Z" fill="#e1e1e1" stroke="#e1e1e1"></path><path d="M122.4 254.9L107.1 291.1L151.5 312.2Z" fill="#e5e5e5" stroke="#e5e5e5"></path><path d="M448.7 0L451.7 108.3L499.4 77.2Z" fill="#e7e7e7" stroke="#e7e7e7"></path><path d="M615.5 75.3L612.1 79.2L646.8 101.3Z" fill="#ebebeb" stroke="#ebebeb"></path><path d="M604.2 74.2L599.8 64.2L583.1 63.5Z" fill="#efefef" stroke="#efefef"></path><path d="M422.3 600L468.9 600L420.7 579.7Z" fill="#f2f2f2" stroke="#f2f2f2"></path><path d="M480.1 0L448.7 0L499.4 77.2Z" fill="#e7e7e7" stroke="#e7e7e7"></path><path d="M615.5 75.3L599.8 64.2L604.2 74.2Z" fill="#ededed" stroke="#ededed"></path><path d="M76.4 303.8L102.5 305.1L107.1 291.1Z" fill="#e7e7e7" stroke="#e7e7e7"></path><path d="M107.1 291.1L102.5 305.1L151.5 312.2Z" fill="#e9e9e9" stroke="#e9e9e9"></path><path d="M448.7 0L379.7 -3.8L406.9 0Z" fill="#e1e1e1" stroke="#e1e1e1"></path><path d="M406.9 0L379.7 -3.8L367.2 93.3Z" fill="#ebebeb" stroke="#ebebeb"></path><path d="M646.8 101.3L602.2 135.6L628.8 148.8Z" fill="#e1e1e1" stroke="#e1e1e1"></path><path d="M612.1 79.2L615.5 75.3L604.2 74.2Z" fill="#f6f6f6" stroke="#f6f6f6"></path><path d="M646.8 101.3L628.8 148.8L671.9 114.3Z" fill="#f2f2f2" stroke="#f2f2f2"></path><path d="M379.7 -3.8L337.2 0L367.2 93.3Z" fill="#f4f4f4" stroke="#f4f4f4"></path><path d="M277.5 49.5L209.8 62.5L263.8 85.3Z" fill="#e9e9e9" stroke="#e9e9e9"></path><path d="M556.4 -1.7L499.4 77.2L573.4 52.5Z" fill="#ededed" stroke="#ededed"></path><path d="M556.4 -1.7L480.1 0L499.4 77.2Z" fill="#efefef" stroke="#efefef"></path><path d="M225.2 -46.8L330.9 -10.8L379.7 -3.8Z" fill="#efefef" stroke="#efefef"></path><path d="M241.6 0L209.8 62.5L277.5 49.5Z" fill="#e7e7e7" stroke="#e7e7e7"></path><path d="M205.1 97.6L155.7 56.2L156.5 136.6Z" fill="#e3e3e3" stroke="#e3e3e3"></path><path d="M671.9 114.3L628.8 148.8L672.2 193.5Z" fill="#f6f6f6" stroke="#f6f6f6"></path><path d="M193.5 533.7L284.2 587.8L236.2 477.5Z" fill="#efefef" stroke="#efefef"></path><path d="M369.9 584.8L342.3 639.8L407.6 600Z" fill="#f4f4f4" stroke="#f4f4f4"></path><path d="M330.9 -10.8L326.3 0L337.2 0Z" fill="#e5e5e5" stroke="#e5e5e5"></path><path d="M337.2 0L326.3 0L297.6 67.3Z" fill="#f4f4f4" stroke="#f4f4f4"></path><path d="M722.9 365.9L737.2 388.5L737.5 368.2Z" fill="#f6f6f6" stroke="#f6f6f6"></path><path d="M661.4 415.4L715.5 370.9L661.2 315.4Z" fill="#f2f2f2" stroke="#f2f2f2"></path><path d="M696.5 257.1L758.6 245.9L698.9 245.1Z" fill="#e3e3e3" stroke="#e3e3e3"></path><path d="M219.5 0L202.1 63.5L209.8 62.5Z" fill="#f6f6f6" stroke="#f6f6f6"></path><path d="M209.8 62.5L202.1 63.5L205.1 97.6Z" fill="#f6f6f6" stroke="#f6f6f6"></path><path d="M165.5 474.5L193.5 533.7L236.2 477.5Z" fill="#e3e3e3" stroke="#e3e3e3"></path><path d="M168.8 556.8L193.5 533.7L165.5 474.5Z" fill="#ebebeb" stroke="#ebebeb"></path><path d="M111.7 446.7L145.8 436.7L130.4 409.7Z" fill="#e5e5e5" stroke="#e5e5e5"></path><path d="M111.7 446.7L136.8 470.5L145.8 436.7Z" fill="#e7e7e7" stroke="#e7e7e7"></path><path d="M468.9 600L523.7 600L513.3 533.7Z" fill="#e5e5e5" stroke="#e5e5e5"></path><path d="M722.9 365.9L715.5 370.9L737.2 388.5Z" fill="#f2f2f2" stroke="#f2f2f2"></path><path d="M661.4 415.4L712.3 462.7L737.2 388.5Z" fill="#ebebeb" stroke="#ebebeb"></path><path d="M715.5 370.9L722.9 365.9L661.2 315.4Z" fill="#efefef" stroke="#efefef"></path><path d="M379.7 -3.8L330.9 -10.8L337.2 0Z" fill="#e5e5e5" stroke="#e5e5e5"></path><path d="M326.3 0L256.8 0L277.5 49.5Z" fill="#e3e3e3" stroke="#e3e3e3"></path><path d="M225.2 -46.8L379.7 -3.8L448.7 0Z" fill="#e1e1e1" stroke="#e1e1e1"></path><path d="M684.8 117.5L671.9 114.3L672.2 193.5Z" fill="#f6f6f6" stroke="#f6f6f6"></path><path d="M628.4 0L599.8 64.2L615.5 75.3Z" fill="#f4f4f4" stroke="#f4f4f4"></path><path d="M588.8 0L573.4 52.5L599.8 64.2Z" fill="#e5e5e5" stroke="#e5e5e5"></path><path d="M51.7 436.5L111.7 446.7L130.4 409.7Z" fill="#e3e3e3" stroke="#e3e3e3"></path><path d="M136.8 470.5L168.8 556.8L165.5 474.5Z" fill="#e5e5e5" stroke="#e5e5e5"></path><path d="M87.1 187.3L143.5 225.8L146.7 182.8Z" fill="#e5e5e5" stroke="#e5e5e5"></path><path d="M102.5 305.1L76.4 303.8L130.4 409.7Z" fill="#e1e1e1" stroke="#e1e1e1"></path><path d="M736.5 119.2L684.8 117.5L748.3 131.6Z" fill="#efefef" stroke="#efefef"></path><path d="M671.9 114.3L693.9 87.6L646.8 101.3Z" fill="#ededed" stroke="#ededed"></path><path d="M758.6 245.9L672.2 193.5L698.9 245.1Z" fill="#e5e5e5" stroke="#e5e5e5"></path><path d="M193.5 533.7L259.2 600L284.2 587.8Z" fill="#f4f4f4" stroke="#f4f4f4"></path><path d="M284.2 587.8L342.3 639.8L369.9 584.8Z" fill="#ededed" stroke="#ededed"></path><path d="M676.2 521.8L605.1 478.7L563.7 546.5Z" fill="#f6f6f6" stroke="#f6f6f6"></path><path d="M722.9 365.9L747.3 308.9L661.2 315.4Z" fill="#f2f2f2" stroke="#f2f2f2"></path><path d="M330.9 -10.8L256.8 0L326.3 0Z" fill="#f2f2f2" stroke="#f2f2f2"></path><path d="M588.8 0L556.4 -1.7L573.4 52.5Z" fill="#ebebeb" stroke="#ebebeb"></path><path d="M480.1 0L225.2 -46.8L448.7 0Z" fill="#f2f2f2" stroke="#f2f2f2"></path><path d="M588.8 0L599.8 64.2L628.4 0Z" fill="#efefef" stroke="#efefef"></path><path d="M737.5 368.2L740.3 364.4L722.9 365.9Z" fill="#e9e9e9" stroke="#e9e9e9"></path><path d="M740.3 364.4L747.3 308.9L722.9 365.9Z" fill="#e9e9e9" stroke="#e9e9e9"></path><path d="M523.7 600L570.8 600L563.7 546.5Z" fill="#e5e5e5" stroke="#e5e5e5"></path><path d="M737.5 368.2L750.9 358.2L740.3 364.4Z" fill="#e3e3e3" stroke="#e3e3e3"></path><path d="M712.3 462.7L643.4 424.5L700.8 498.4Z" fill="#f2f2f2" stroke="#f2f2f2"></path><path d="M102.4 111.6L146.7 182.8L156.5 136.6Z" fill="#e9e9e9" stroke="#e9e9e9"></path><path d="M102.4 111.6L87.1 187.3L146.7 182.8Z" fill="#e5e5e5" stroke="#e5e5e5"></path><path d="M155.7 56.2L205.1 97.6L202.1 63.5Z" fill="#f2f2f2" stroke="#f2f2f2"></path><path d="M570.8 600L575.4 600L563.7 546.5Z" fill="#ededed" stroke="#ededed"></path><path d="M700.8 498.4L643.4 424.5L605.1 478.7Z" fill="#f4f4f4" stroke="#f4f4f4"></path><path d="M259.2 600L342.3 639.8L284.2 587.8Z" fill="#e9e9e9" stroke="#e9e9e9"></path><path d="M407.6 600L342.3 639.8L422.3 600Z" fill="#f2f2f2" stroke="#f2f2f2"></path><path d="M422.3 600L342.3 639.8L468.9 600Z" fill="#ededed" stroke="#ededed"></path><path d="M468.9 600L623.8 633.8L523.7 600Z" fill="#e5e5e5" stroke="#e5e5e5"></path><path d="M523.7 600L623.8 633.8L570.8 600Z" fill="#efefef" stroke="#efefef"></path><path d="M570.8 600L623.8 633.8L575.4 600Z" fill="#e5e5e5" stroke="#e5e5e5"></path><path d="M235.6 -21.8L241.6 0L256.8 0Z" fill="#e5e5e5" stroke="#e5e5e5"></path><path d="M256.8 0L241.6 0L277.5 49.5Z" fill="#f2f2f2" stroke="#f2f2f2"></path><path d="M757.6 302.8L753.2 299.1L747.3 308.9Z" fill="#e9e9e9" stroke="#e9e9e9"></path><path d="M747.3 308.9L753.2 299.1L696.5 257.1Z" fill="#e7e7e7" stroke="#e7e7e7"></path><path d="M750.9 358.2L747.3 308.9L740.3 364.4Z" fill="#f2f2f2" stroke="#f2f2f2"></path><path d="M51.7 436.5L104.4 466.5L111.7 446.7Z" fill="#ededed" stroke="#ededed"></path><path d="M111.7 446.7L104.4 466.5L136.8 470.5Z" fill="#f6f6f6" stroke="#f6f6f6"></path><path d="M193.5 533.7L216.8 600L259.2 600Z" fill="#f6f6f6" stroke="#f6f6f6"></path><path d="M618.2 600L676.2 521.8L563.7 546.5Z" fill="#f2f2f2" stroke="#f2f2f2"></path><path d="M47.7 259.9L62.1 283.2L122.4 254.9Z" fill="#e5e5e5" stroke="#e5e5e5"></path><path d="M8.4 356.2L51.7 436.5L130.4 409.7Z" fill="#e9e9e9" stroke="#e9e9e9"></path><path d="M823.6 326.1L750.9 358.2L827.3 399.1Z" fill="#e9e9e9" stroke="#e9e9e9"></path><path d="M737.2 388.5L750.9 358.2L737.5 368.2Z" fill="#efefef" stroke="#efefef"></path><path d="M623.8 633.8L590.1 600L575.4 600Z" fill="#f4f4f4" stroke="#f4f4f4"></path><path d="M575.4 600L590.1 600L563.7 546.5Z" fill="#efefef" stroke="#efefef"></path><path d="M763.6 316.4L757.6 302.8L747.3 308.9Z" fill="#ebebeb" stroke="#ebebeb"></path><path d="M753.2 299.1L758.6 245.9L696.5 257.1Z" fill="#e7e7e7" stroke="#e7e7e7"></path><path d="M109.1 567.7L168.8 556.8L136.8 470.5Z" fill="#f4f4f4" stroke="#f4f4f4"></path><path d="M259.2 600L216.8 600L342.3 639.8Z" fill="#e1e1e1" stroke="#e1e1e1"></path><path d="M693.9 87.6L615.5 75.3L646.8 101.3Z" fill="#e1e1e1" stroke="#e1e1e1"></path><path d="M150.5 20.3L155.7 56.2L173.7 0Z" fill="#e3e3e3" stroke="#e3e3e3"></path><path d="M676.2 521.8L700.8 498.4L605.1 478.7Z" fill="#f2f2f2" stroke="#f2f2f2"></path><path d="M712.3 462.7L754.5 466.5L737.2 388.5Z" fill="#e1e1e1" stroke="#e1e1e1"></path><path d="M203.5 598.8L216.8 600L193.5 533.7Z" fill="#ebebeb" stroke="#ebebeb"></path><path d="M778.5 272.8L758.6 245.9L753.2 299.1Z" fill="#f6f6f6" stroke="#f6f6f6"></path><path d="M750.9 358.2L763.6 316.4L747.3 308.9Z" fill="#e1e1e1" stroke="#e1e1e1"></path><path d="M757.6 302.8L778.5 272.8L753.2 299.1Z" fill="#efefef" stroke="#efefef"></path><path d="M235.6 -21.8L219.5 0L241.6 0Z" fill="#e7e7e7" stroke="#e7e7e7"></path><path d="M241.6 0L219.5 0L209.8 62.5Z" fill="#e7e7e7" stroke="#e7e7e7"></path><path d="M736.5 119.2L693.9 87.6L684.8 117.5Z" fill="#f4f4f4" stroke="#f4f4f4"></path><path d="M684.8 117.5L693.9 87.6L671.9 114.3Z" fill="#f4f4f4" stroke="#f4f4f4"></path><path d="M155.7 56.2L102.4 111.6L156.5 136.6Z" fill="#ebebeb" stroke="#ebebeb"></path><path d="M87.1 187.3L47.7 259.9L122.4 254.9Z" fill="#e3e3e3" stroke="#e3e3e3"></path><path d="M168.8 556.8L203.5 598.8L193.5 533.7Z" fill="#e7e7e7" stroke="#e7e7e7"></path><path d="M216.8 600L179.5 600L342.3 639.8Z" fill="#e3e3e3" stroke="#e3e3e3"></path><path d="M1.7 234.1L47.7 259.9L87.1 187.3Z" fill="#efefef" stroke="#efefef"></path><path d="M8.4 356.2L130.4 409.7L76.4 303.8Z" fill="#e1e1e1" stroke="#e1e1e1"></path><path d="M590.1 600L618.2 600L563.7 546.5Z" fill="#f4f4f4" stroke="#f4f4f4"></path><path d="M676.2 521.8L711.5 506.4L700.8 498.4Z" fill="#e1e1e1" stroke="#e1e1e1"></path><path d="M623.8 633.8L618.2 600L590.1 600Z" fill="#ebebeb" stroke="#ebebeb"></path><path d="M714.8 527.5L711.5 506.4L676.2 521.8Z" fill="#e9e9e9" stroke="#e9e9e9"></path><path d="M700.8 498.4L711.5 506.4L712.3 462.7Z" fill="#e1e1e1" stroke="#e1e1e1"></path><path d="M805.9 318.4L778.5 272.8L763.6 316.4Z" fill="#f6f6f6" stroke="#f6f6f6"></path><path d="M173.7 0L155.7 56.2L202.1 63.5Z" fill="#e9e9e9" stroke="#e9e9e9"></path><path d="M330.9 -10.8L235.6 -21.8L256.8 0Z" fill="#e7e7e7" stroke="#e7e7e7"></path><path d="M225.2 -46.8L235.6 -21.8L330.9 -10.8Z" fill="#e3e3e3" stroke="#e3e3e3"></path><path d="M225.2 -46.8L480.1 0L556.4 -1.7Z" fill="#e1e1e1" stroke="#e1e1e1"></path><path d="M805.9 318.4L763.6 316.4L750.9 358.2Z" fill="#e9e9e9" stroke="#e9e9e9"></path><path d="M763.6 316.4L778.5 272.8L757.6 302.8Z" fill="#e3e3e3" stroke="#e3e3e3"></path><path d="M748.3 131.6L684.8 117.5L672.2 193.5Z" fill="#e3e3e3" stroke="#e3e3e3"></path><path d="M675.5 0L628.4 0L615.5 75.3Z" fill="#ebebeb" stroke="#ebebeb"></path><path d="M588.8 0L628.4 0L556.4 -1.7Z" fill="#f4f4f4" stroke="#f4f4f4"></path><path d="M748.3 131.6L672.2 193.5L758.6 245.9Z" fill="#efefef" stroke="#efefef"></path><path d="M693.9 87.6L675.5 0L615.5 75.3Z" fill="#e5e5e5" stroke="#e5e5e5"></path><path d="M156.1 600L179.5 600L168.8 556.8Z" fill="#ebebeb" stroke="#ebebeb"></path><path d="M168.8 556.8L179.5 600L203.5 598.8Z" fill="#ebebeb" stroke="#ebebeb"></path><path d="M203.5 598.8L179.5 600L216.8 600Z" fill="#f2f2f2" stroke="#f2f2f2"></path><path d="M618.2 600L688.8 554.7L676.2 521.8Z" fill="#e7e7e7" stroke="#e7e7e7"></path><path d="M774.5 125.5L748.3 131.6L808.6 222.5Z" fill="#f4f4f4" stroke="#f4f4f4"></path><path d="M736.5 119.2L724.2 76.3L693.9 87.6Z" fill="#f6f6f6" stroke="#f6f6f6"></path><path d="M102.4 57.5L74.7 118.5L102.4 111.6Z" fill="#f2f2f2" stroke="#f2f2f2"></path><path d="M102.4 111.6L74.7 118.5L87.1 187.3Z" fill="#efefef" stroke="#efefef"></path><path d="M102.4 57.5L102.4 111.6L155.7 56.2Z" fill="#e3e3e3" stroke="#e3e3e3"></path><path d="M688.8 554.7L714.8 527.5L676.2 521.8Z" fill="#e5e5e5" stroke="#e5e5e5"></path><path d="M711.5 506.4L754.5 466.5L712.3 462.7Z" fill="#e7e7e7" stroke="#e7e7e7"></path><path d="M8.4 356.2L76.4 303.8L-0.3 298.2Z" fill="#ebebeb" stroke="#ebebeb"></path><path d="M121.7 587.8L156.1 600L168.8 556.8Z" fill="#e5e5e5" stroke="#e5e5e5"></path><path d="M173.7 0L202.1 63.5L219.5 0Z" fill="#e3e3e3" stroke="#e3e3e3"></path><path d="M225.2 -46.8L173.7 0L219.5 0Z" fill="#f2f2f2" stroke="#f2f2f2"></path><path d="M714.8 527.5L754.5 466.5L711.5 506.4Z" fill="#efefef" stroke="#efefef"></path><path d="M74.7 118.5L48.4 161.3L87.1 187.3Z" fill="#e7e7e7" stroke="#e7e7e7"></path><path d="M774.5 125.5L724.2 76.3L736.5 119.2Z" fill="#e1e1e1" stroke="#e1e1e1"></path><path d="M109.1 567.7L136.8 470.5L104.4 466.5Z" fill="#efefef" stroke="#efefef"></path><path d="M179.5 600L11.4 646.8L342.3 639.8Z" fill="#e1e1e1" stroke="#e1e1e1"></path><path d="M688.8 554.7L700.9 560.8L714.8 527.5Z" fill="#ededed" stroke="#ededed"></path><path d="M714.8 527.5L800.5 488.7L754.5 466.5Z" fill="#f2f2f2" stroke="#f2f2f2"></path><path d="M690.9 584.7L700.9 560.8L688.8 554.7Z" fill="#f6f6f6" stroke="#f6f6f6"></path><path d="M150.5 20.3L102.4 57.5L155.7 56.2Z" fill="#e5e5e5" stroke="#e5e5e5"></path><path d="M0 168.5L0 183.9L48.4 161.3Z" fill="#e7e7e7" stroke="#e7e7e7"></path><path d="M140.4 0L102.4 57.5L150.5 20.3Z" fill="#f6f6f6" stroke="#f6f6f6"></path><path d="M623.8 633.8L668.5 595.8L618.2 600Z" fill="#ebebeb" stroke="#ebebeb"></path><path d="M618.2 600L668.5 595.8L688.8 554.7Z" fill="#f2f2f2" stroke="#f2f2f2"></path><path d="M235.6 -21.8L225.2 -46.8L219.5 0Z" fill="#e9e9e9" stroke="#e9e9e9"></path><path d="M173.7 0L140.4 0L150.5 20.3Z" fill="#efefef" stroke="#efefef"></path><path d="M628.4 0L225.2 -46.8L556.4 -1.7Z" fill="#f2f2f2" stroke="#f2f2f2"></path><path d="M342.3 639.8L623.8 633.8L468.9 600Z" fill="#f6f6f6" stroke="#f6f6f6"></path><path d="M823.6 326.1L805.9 318.4L750.9 358.2Z" fill="#ededed" stroke="#ededed"></path><path d="M808.6 222.5L748.3 131.6L758.6 245.9Z" fill="#f6f6f6" stroke="#f6f6f6"></path><path d="M711.5 600L690.9 584.7L668.5 595.8Z" fill="#f4f4f4" stroke="#f4f4f4"></path><path d="M668.5 595.8L690.9 584.7L688.8 554.7Z" fill="#e7e7e7" stroke="#e7e7e7"></path><path d="M700.9 560.8L774.6 600L714.8 527.5Z" fill="#efefef" stroke="#efefef"></path><path d="M0 492.4L109.1 567.7L104.4 466.5Z" fill="#e9e9e9" stroke="#e9e9e9"></path><path d="M724.2 76.3L675.5 0L693.9 87.6Z" fill="#e3e3e3" stroke="#e3e3e3"></path><path d="M628.4 0L900 -17.8L225.2 -46.8Z" fill="#e9e9e9" stroke="#e9e9e9"></path><path d="M138.1 -29.8L140.4 0L173.7 0Z" fill="#e7e7e7" stroke="#e7e7e7"></path><path d="M-0.3 298.2L62.1 283.2L47.7 259.9Z" fill="#ebebeb" stroke="#ebebeb"></path><path d="M-0.3 298.2L76.4 303.8L62.1 283.2Z" fill="#e5e5e5" stroke="#e5e5e5"></path><path d="M51.7 436.5L0 492.4L104.4 466.5Z" fill="#f4f4f4" stroke="#f4f4f4"></path><path d="M109.1 567.7L121.7 587.8L168.8 556.8Z" fill="#e1e1e1" stroke="#e1e1e1"></path><path d="M808.6 222.5L758.6 245.9L778.5 272.8Z" fill="#ededed" stroke="#ededed"></path><path d="M748.3 131.6L774.5 125.5L736.5 119.2Z" fill="#e3e3e3" stroke="#e3e3e3"></path><path d="M724.2 76.3L725.2 0L675.5 0Z" fill="#f6f6f6" stroke="#f6f6f6"></path><path d="M859.6 263.6L808.6 222.5L778.5 272.8Z" fill="#e9e9e9" stroke="#e9e9e9"></path><path d="M1.7 234.1L-0.3 298.2L47.7 259.9Z" fill="#e5e5e5" stroke="#e5e5e5"></path><path d="M-0.3 298.2L0 349.1L8.4 356.2Z" fill="#f2f2f2" stroke="#f2f2f2"></path><path d="M8.4 356.2L0 391.5L51.7 436.5Z" fill="#ededed" stroke="#ededed"></path><path d="M48.4 161.3L1.7 234.1L87.1 187.3Z" fill="#e5e5e5" stroke="#e5e5e5"></path><path d="M0 183.9L1.7 234.1L48.4 161.3Z" fill="#f4f4f4" stroke="#f4f4f4"></path><path d="M827.3 399.1L750.9 358.2L737.2 388.5Z" fill="#e7e7e7" stroke="#e7e7e7"></path><path d="M805.9 318.4L839.3 299.2L778.5 272.8Z" fill="#e3e3e3" stroke="#e3e3e3"></path><path d="M-21.6 351.4L8.4 356.2L0 349.1Z" fill="#ebebeb" stroke="#ebebeb"></path><path d="M-21.6 351.4L0 391.5L8.4 356.2Z" fill="#f2f2f2" stroke="#f2f2f2"></path><path d="M-43.6 256.1L-21.6 351.4L-0.3 298.2Z" fill="#e5e5e5" stroke="#e5e5e5"></path><path d="M0 168.5L48.4 161.3L0 161.6Z" fill="#f4f4f4" stroke="#f4f4f4"></path><path d="M48.4 161.3L0 134.8L0 161.6Z" fill="#e9e9e9" stroke="#e9e9e9"></path><path d="M-21.6 351.4L0 419.7L0 391.5Z" fill="#efefef" stroke="#efefef"></path><path d="M0 391.5L0 419.7L51.7 436.5Z" fill="#ededed" stroke="#ededed"></path><path d="M109.1 567.7L71.1 610.8L121.7 587.8Z" fill="#f4f4f4" stroke="#f4f4f4"></path><path d="M623.8 633.8L711.5 600L668.5 595.8Z" fill="#f4f4f4" stroke="#f4f4f4"></path><path d="M690.9 584.7L711.5 600L700.9 560.8Z" fill="#ededed" stroke="#ededed"></path><path d="M754.5 466.5L827.3 399.1L737.2 388.5Z" fill="#f2f2f2" stroke="#f2f2f2"></path><path d="M225.2 -46.8L138.1 -29.8L173.7 0Z" fill="#e1e1e1" stroke="#e1e1e1"></path><path d="M140.4 0L89.1 0L102.4 57.5Z" fill="#e3e3e3" stroke="#e3e3e3"></path><path d="M48.4 161.3L0 134.3L0 134.8Z" fill="#ebebeb" stroke="#ebebeb"></path><path d="M-43.6 256.1L-0.3 298.2L1.7 234.1Z" fill="#efefef" stroke="#efefef"></path><path d="M838.3 425.5L827.3 399.1L754.5 466.5Z" fill="#f4f4f4" stroke="#f4f4f4"></path><path d="M-21.6 351.4L0 439.2L0 419.7Z" fill="#efefef" stroke="#efefef"></path><path d="M0 419.7L0 439.2L51.7 436.5Z" fill="#e7e7e7" stroke="#e7e7e7"></path><path d="M883.3 327.8L839.3 299.2L823.6 326.1Z" fill="#e1e1e1" stroke="#e1e1e1"></path><path d="M823.6 326.1L839.3 299.2L805.9 318.4Z" fill="#ededed" stroke="#ededed"></path><path d="M829.9 146.5L821.3 136.2L774.5 125.5Z" fill="#e7e7e7" stroke="#e7e7e7"></path><path d="M48.4 161.3L74.7 118.5L0 134.3Z" fill="#f6f6f6" stroke="#f6f6f6"></path><path d="M-43.6 256.1L1.7 234.1L0 183.9Z" fill="#f2f2f2" stroke="#f2f2f2"></path><path d="M-43.6 256.1L0 183.9L0 168.5Z" fill="#e9e9e9" stroke="#e9e9e9"></path><path d="M-0.3 298.2L-21.6 351.4L0 349.1Z" fill="#e1e1e1" stroke="#e1e1e1"></path><path d="M774.6 600L800.5 488.7L714.8 527.5Z" fill="#efefef" stroke="#efefef"></path><path d="M782.3 0L725.2 0L724.2 76.3Z" fill="#e3e3e3" stroke="#e3e3e3"></path><path d="M675.5 0L900 -17.8L628.4 0Z" fill="#ebebeb" stroke="#ebebeb"></path><path d="M138.1 -29.8L89.1 0L140.4 0Z" fill="#f6f6f6" stroke="#f6f6f6"></path><path d="M0 134.3L74.7 118.5L0 99.2Z" fill="#efefef" stroke="#efefef"></path><path d="M0 161.6L-43.6 256.1L0 168.5Z" fill="#e1e1e1" stroke="#e1e1e1"></path><path d="M0 99.2L74.7 118.5L102.4 57.5Z" fill="#efefef" stroke="#efefef"></path><path d="M0 134.8L-43.6 256.1L0 161.6Z" fill="#e1e1e1" stroke="#e1e1e1"></path><path d="M829.9 146.5L774.5 125.5L808.6 222.5Z" fill="#e5e5e5" stroke="#e5e5e5"></path><path d="M774.5 125.5L829.9 108.2L724.2 76.3Z" fill="#ebebeb" stroke="#ebebeb"></path><path d="M800.5 488.7L838.3 425.5L754.5 466.5Z" fill="#e9e9e9" stroke="#e9e9e9"></path><path d="M827.3 399.1L883.3 327.8L823.6 326.1Z" fill="#efefef" stroke="#efefef"></path><path d="M900 194.8L829.9 146.5L808.6 222.5Z" fill="#ededed" stroke="#ededed"></path><path d="M821.3 136.2L829.9 108.2L774.5 125.5Z" fill="#e7e7e7" stroke="#e7e7e7"></path><path d="M-21.6 351.4L0 492.4L0 439.2Z" fill="#ebebeb" stroke="#ebebeb"></path><path d="M0 439.2L0 492.4L51.7 436.5Z" fill="#ededed" stroke="#ededed"></path><path d="M900 296.2L859.6 263.6L839.3 299.2Z" fill="#f4f4f4" stroke="#f4f4f4"></path><path d="M839.3 299.2L859.6 263.6L778.5 272.8Z" fill="#f6f6f6" stroke="#f6f6f6"></path><path d="M0 134.3L-43.6 256.1L0 134.8Z" fill="#ededed" stroke="#ededed"></path><path d="M-23.6 600L0 600L0 492.4Z" fill="#e7e7e7" stroke="#e7e7e7"></path><path d="M46.7 -3.7L0 99.2L102.4 57.5Z" fill="#e5e5e5" stroke="#e5e5e5"></path><path d="M0 134.3L0 99.2L-43.6 256.1Z" fill="#e5e5e5" stroke="#e5e5e5"></path><path d="M34.7 600L71.1 610.8L109.1 567.7Z" fill="#e9e9e9" stroke="#e9e9e9"></path><path d="M121.7 587.8L71.1 610.8L156.1 600Z" fill="#e1e1e1" stroke="#e1e1e1"></path><path d="M156.1 600L11.4 646.8L179.5 600Z" fill="#e1e1e1" stroke="#e1e1e1"></path><path d="M867.3 106.5L829.9 108.2L829.9 146.5Z" fill="#e3e3e3" stroke="#e3e3e3"></path><path d="M829.9 146.5L829.9 108.2L821.3 136.2Z" fill="#ededed" stroke="#ededed"></path><path d="M778.6 646.8L774.6 600L711.5 600Z" fill="#e7e7e7" stroke="#e7e7e7"></path><path d="M711.5 600L774.6 600L700.9 560.8Z" fill="#e9e9e9" stroke="#e9e9e9"></path><path d="M800.5 488.7L852.9 489.5L838.3 425.5Z" fill="#efefef" stroke="#efefef"></path><path d="M89.1 0L46.7 -3.7L102.4 57.5Z" fill="#ebebeb" stroke="#ebebeb"></path><path d="M138.1 -29.8L46.7 -3.7L89.1 0Z" fill="#e1e1e1" stroke="#e1e1e1"></path><path d="M872.6 434.7L883.3 327.8L827.3 399.1Z" fill="#f2f2f2" stroke="#f2f2f2"></path><path d="M859.6 263.6L900 194.8L808.6 222.5Z" fill="#ebebeb" stroke="#ebebeb"></path><path d="M872.6 434.7L827.3 399.1L838.3 425.5Z" fill="#efefef" stroke="#efefef"></path><path d="M0 492.4L34.7 600L109.1 567.7Z" fill="#e5e5e5" stroke="#e5e5e5"></path><path d="M829.9 108.2L782.3 0L724.2 76.3Z" fill="#f2f2f2" stroke="#f2f2f2"></path><path d="M725.2 0L900 -17.8L675.5 0Z" fill="#ebebeb" stroke="#ebebeb"></path><path d="M847.9 600L852.9 489.5L800.5 488.7Z" fill="#e3e3e3" stroke="#e3e3e3"></path><path d="M852.9 489.5L872.6 434.7L838.3 425.5Z" fill="#f4f4f4" stroke="#f4f4f4"></path><path d="M914.6 299.2L900 296.2L883.3 327.8Z" fill="#e5e5e5" stroke="#e5e5e5"></path><path d="M883.3 327.8L900 296.2L839.3 299.2Z" fill="#e3e3e3" stroke="#e3e3e3"></path><path d="M900 296.2L900 281.9L859.6 263.6Z" fill="#e5e5e5" stroke="#e5e5e5"></path><path d="M900 281.9L900 271.1L859.6 263.6Z" fill="#f6f6f6" stroke="#f6f6f6"></path><path d="M900 151.3L867.3 106.5L829.9 146.5Z" fill="#e3e3e3" stroke="#e3e3e3"></path><path d="M829.9 108.2L840.3 17.3L782.3 0Z" fill="#ededed" stroke="#ededed"></path><path d="M900 271.1L900 194.8L859.6 263.6Z" fill="#e1e1e1" stroke="#e1e1e1"></path><path d="M-23.6 600L0 492.4L-21.6 351.4Z" fill="#e3e3e3" stroke="#e3e3e3"></path><path d="M0 492.4L0 600L34.7 600Z" fill="#e7e7e7" stroke="#e7e7e7"></path><path d="M34.7 600L11.4 646.8L71.1 610.8Z" fill="#ebebeb" stroke="#ebebeb"></path><path d="M623.8 633.8L778.6 646.8L711.5 600Z" fill="#efefef" stroke="#efefef"></path><path d="M774.6 600L847.9 600L800.5 488.7Z" fill="#efefef" stroke="#efefef"></path><path d="M342.3 639.8L778.6 646.8L623.8 633.8Z" fill="#f2f2f2" stroke="#f2f2f2"></path><path d="M900 281.9L914.6 299.2L900 271.1Z" fill="#ededed" stroke="#ededed"></path><path d="M900 271.1L945.6 188.3L900 194.8Z" fill="#e7e7e7" stroke="#e7e7e7"></path><path d="M900 296.2L914.6 299.2L900 281.9Z" fill="#f2f2f2" stroke="#f2f2f2"></path><path d="M900 445.5L914.6 299.2L883.3 327.8Z" fill="#f4f4f4" stroke="#f4f4f4"></path><path d="M-7.6 -51.8L0 0L46.7 -3.7Z" fill="#e9e9e9" stroke="#e9e9e9"></path><path d="M46.7 -3.7L0 0L0 99.2Z" fill="#f4f4f4" stroke="#f4f4f4"></path><path d="M0 99.2L0 0L-43.6 256.1Z" fill="#e3e3e3" stroke="#e3e3e3"></path><path d="M945.6 188.3L900 168.6L900 194.8Z" fill="#e9e9e9" stroke="#e9e9e9"></path><path d="M900 194.8L900 168.6L829.9 146.5Z" fill="#e7e7e7" stroke="#e7e7e7"></path><path d="M900 463.4L900 445.5L872.6 434.7Z" fill="#ebebeb" stroke="#ebebeb"></path><path d="M872.6 434.7L900 445.5L883.3 327.8Z" fill="#e5e5e5" stroke="#e5e5e5"></path><path d="M900 463.4L872.6 434.7L852.9 489.5Z" fill="#e1e1e1" stroke="#e1e1e1"></path><path d="M945.6 188.3L900 151.3L900 168.6Z" fill="#e3e3e3" stroke="#e3e3e3"></path><path d="M900 168.6L900 151.3L829.9 146.5Z" fill="#e3e3e3" stroke="#e3e3e3"></path><path d="M867.3 106.5L840.3 17.3L829.9 108.2Z" fill="#e9e9e9" stroke="#e9e9e9"></path><path d="M839.9 0L840.3 17.3L900 0Z" fill="#e1e1e1" stroke="#e1e1e1"></path><path d="M900 521.7L900 463.4L852.9 489.5Z" fill="#f2f2f2" stroke="#f2f2f2"></path><path d="M935.6 520.5L945.6 188.3L914.6 299.2Z" fill="#e7e7e7" stroke="#e7e7e7"></path><path d="M-43.6 256.1L-23.6 600L-21.6 351.4Z" fill="#e1e1e1" stroke="#e1e1e1"></path><path d="M0 640.8L11.4 646.8L34.7 600Z" fill="#ebebeb" stroke="#ebebeb"></path><path d="M0 640.8L34.7 600L0 600Z" fill="#ebebeb" stroke="#ebebeb"></path><path d="M71.1 610.8L11.4 646.8L156.1 600Z" fill="#efefef" stroke="#efefef"></path><path d="M342.3 639.8L11.4 646.8L778.6 646.8Z" fill="#ededed" stroke="#ededed"></path><path d="M895.6 70.2L840.3 17.3L867.3 106.5Z" fill="#ededed" stroke="#ededed"></path><path d="M840.3 17.3L839.9 0L782.3 0Z" fill="#e5e5e5" stroke="#e5e5e5"></path><path d="M782.3 0L900 -17.8L725.2 0Z" fill="#f6f6f6" stroke="#f6f6f6"></path><path d="M-23.6 600L0 640.8L0 600Z" fill="#e9e9e9" stroke="#e9e9e9"></path><path d="M778.6 646.8L847.9 600L774.6 600Z" fill="#f6f6f6" stroke="#f6f6f6"></path><path d="M847.9 600L900 521.7L852.9 489.5Z" fill="#e5e5e5" stroke="#e5e5e5"></path><path d="M935.6 520.5L914.6 299.2L900 445.5Z" fill="#e3e3e3" stroke="#e3e3e3"></path><path d="M945.6 188.3L895.6 70.2L900 151.3Z" fill="#e5e5e5" stroke="#e5e5e5"></path><path d="M900 151.3L895.6 70.2L867.3 106.5Z" fill="#ebebeb" stroke="#ebebeb"></path><path d="M138.1 -29.8L-7.6 -51.8L46.7 -3.7Z" fill="#e5e5e5" stroke="#e5e5e5"></path><path d="M0 0L-7.6 -51.8L-43.6 256.1Z" fill="#f6f6f6" stroke="#f6f6f6"></path><path d="M225.2 -46.8L-7.6 -51.8L138.1 -29.8Z" fill="#e3e3e3" stroke="#e3e3e3"></path><path d="M914.6 299.2L945.6 188.3L900 271.1Z" fill="#e5e5e5" stroke="#e5e5e5"></path><path d="M935.6 520.5L900 445.5L900 463.4Z" fill="#e3e3e3" stroke="#e3e3e3"></path><path d="M945.6 188.3L900 56.5L895.6 70.2Z" fill="#ededed" stroke="#ededed"></path><path d="M895.6 70.2L900 56.5L840.3 17.3Z" fill="#ededed" stroke="#ededed"></path><path d="M890.3 600L881.3 592.8L847.9 600Z" fill="#e7e7e7" stroke="#e7e7e7"></path><path d="M847.9 600L881.3 592.8L900 521.7Z" fill="#ebebeb" stroke="#ebebeb"></path><path d="M778.6 646.8L890.3 600L847.9 600Z" fill="#ebebeb" stroke="#ebebeb"></path><path d="M881.3 592.8L900 598.8L900 521.7Z" fill="#efefef" stroke="#efefef"></path><path d="M900 521.7L935.6 520.5L900 463.4Z" fill="#f6f6f6" stroke="#f6f6f6"></path><path d="M900 598.8L935.6 520.5L900 521.7Z" fill="#e5e5e5" stroke="#e5e5e5"></path><path d="M900 600L900 598.8L890.3 600Z" fill="#f2f2f2" stroke="#f2f2f2"></path><path d="M890.3 600L900 598.8L881.3 592.8Z" fill="#e5e5e5" stroke="#e5e5e5"></path><path d="M778.6 646.8L900 600L890.3 600Z" fill="#e9e9e9" stroke="#e9e9e9"></path><path d="M900 598.8L900 600L935.6 520.5Z" fill="#e1e1e1" stroke="#e1e1e1"></path><path d="M900 56.5L900 0L840.3 17.3Z" fill="#e7e7e7" stroke="#e7e7e7"></path><path d="M839.9 0L900 -17.8L782.3 0Z" fill="#e1e1e1" stroke="#e1e1e1"></path><path d="M950.6 0L900 0L900 56.5Z" fill="#e5e5e5" stroke="#e5e5e5"></path><path d="M950.6 0L900 -17.8L900 0Z" fill="#ededed" stroke="#ededed"></path><path d="M900 0L900 -17.8L839.9 0Z" fill="#efefef" stroke="#efefef"></path><path d="M945.6 188.3L950.6 0L900 56.5Z" fill="#f2f2f2" stroke="#f2f2f2"></path></g></svg>