<svg id="visual" viewBox="0 0 900 600" width="900" height="600" xmlns="http://www.w3.org/2000/svg" xmlns:xlink="http://www.w3.org/1999/xlink" version="1.1"><rect x="0" y="0" width="900" height="600" fill="#001220"></rect><defs><linearGradient id="grad1_0" x1="33.3%" y1="0%" x2="100%" y2="100%"><stop offset="20%" stop-color="#001220" stop-opacity="1"></stop><stop offset="80%" stop-color="#001220" stop-opacity="1"></stop></linearGradient></defs><defs><linearGradient id="grad2_0" x1="0%" y1="0%" x2="66.7%" y2="100%"><stop offset="20%" stop-color="#001220" stop-opacity="1"></stop><stop offset="80%" stop-color="#001220" stop-opacity="1"></stop></linearGradient></defs><g transform="translate(900, 0)"><path d="M0 486.7C-49.3 440.7 -98.6 394.6 -154.2 372.3C-209.8 350 -271.7 351.5 -325.3 325.3C-378.9 299 -424.2 245.1 -449.7 186.3C-475.2 127.4 -481 63.7 -486.7 0L0 0Z" fill="#9C2C77"></path></g><g transform="translate(0, 600)"><path d="M0 -486.7C60.6 -476.6 121.3 -466.4 184.8 -446.2C248.4 -426 314.8 -395.8 344.2 -344.2C373.5 -292.6 365.8 -219.7 383.4 -158.8C401 -97.9 443.9 -48.9 486.7 0L0 0Z" fill="#9C2C77"></path></g></svg>