<svg id="visual" viewBox="0 0 900 600" width="900" height="600" xmlns="http://www.w3.org/2000/svg" xmlns:xlink="http://www.w3.org/1999/xlink" version="1.1"><path d="M0 145L13.7 131C27.3 117 54.7 89 82 93C109.3 97 136.7 133 163.8 136C191 139 218 109 245.2 95C272.3 81 299.7 83 327 81C354.3 79 381.7 73 409 80C436.3 87 463.7 107 491 118C518.3 129 545.7 131 573 131C600.3 131 627.7 129 654.8 124C682 119 709 111 736.2 116C763.3 121 790.7 139 818 145C845.3 151 872.7 145 886.3 142L900 139L900 0L886.3 0C872.7 0 845.3 0 818 0C790.7 0 763.3 0 736.2 0C709 0 682 0 654.8 0C627.7 0 600.3 0 573 0C545.7 0 518.3 0 491 0C463.7 0 436.3 0 409 0C381.7 0 354.3 0 327 0C299.7 0 272.3 0 245.2 0C218 0 191 0 163.8 0C136.7 0 109.3 0 82 0C54.7 0 27.3 0 13.7 0L0 0Z" fill="#3e4b5f"></path><path d="M0 235L13.7 213C27.3 191 54.7 147 82 145C109.3 143 136.7 183 163.8 185C191 187 218 151 245.2 142C272.3 133 299.7 151 327 159C354.3 167 381.7 165 409 164C436.3 163 463.7 163 491 174C518.3 185 545.7 207 573 212C600.3 217 627.7 205 654.8 196C682 187 709 181 736.2 183C763.3 185 790.7 195 818 204C845.3 213 872.7 221 886.3 225L900 229L900 137L886.3 140C872.7 143 845.3 149 818 143C790.7 137 763.3 119 736.2 114C709 109 682 117 654.8 122C627.7 127 600.3 129 573 129C545.7 129 518.3 127 491 116C463.7 105 436.3 85 409 78C381.7 71 354.3 77 327 79C299.7 81 272.3 79 245.2 93C218 107 191 137 163.8 134C136.7 131 109.3 95 82 91C54.7 87 27.3 115 13.7 129L0 143Z" fill="#30384a"></path><path d="M0 289L13.7 271C27.3 253 54.7 217 82 213C109.3 209 136.7 237 163.8 237C191 237 218 209 245.2 206C272.3 203 299.7 225 327 232C354.3 239 381.7 231 409 228C436.3 225 463.7 227 491 248C518.3 269 545.7 309 573 315C600.3 321 627.7 293 654.8 277C682 261 709 257 736.2 258C763.3 259 790.7 265 818 269C845.3 273 872.7 275 886.3 276L900 277L900 227L886.3 223C872.7 219 845.3 211 818 202C790.7 193 763.3 183 736.2 181C709 179 682 185 654.8 194C627.7 203 600.3 215 573 210C545.7 205 518.3 183 491 172C463.7 161 436.3 161 409 162C381.7 163 354.3 165 327 157C299.7 149 272.3 131 245.2 140C218 149 191 185 163.8 183C136.7 181 109.3 141 82 143C54.7 145 27.3 189 13.7 211L0 233Z" fill="#222735"></path><path d="M0 367L13.7 377C27.3 387 54.7 407 82 416C109.3 425 136.7 423 163.8 422C191 421 218 421 245.2 435C272.3 449 299.7 477 327 485C354.3 493 381.7 481 409 479C436.3 477 463.7 485 491 489C518.3 493 545.7 493 573 481C600.3 469 627.7 445 654.8 431C682 417 709 413 736.2 419C763.3 425 790.7 441 818 438C845.3 435 872.7 413 886.3 402L900 391L900 275L886.3 274C872.7 273 845.3 271 818 267C790.7 263 763.3 257 736.2 256C709 255 682 259 654.8 275C627.7 291 600.3 319 573 313C545.7 307 518.3 267 491 246C463.7 225 436.3 223 409 226C381.7 229 354.3 237 327 230C299.7 223 272.3 201 245.2 204C218 207 191 235 163.8 235C136.7 235 109.3 207 82 211C54.7 215 27.3 251 13.7 269L0 287Z" fill="#151722"></path><path d="M0 601L13.7 601C27.3 601 54.7 601 82 601C109.3 601 136.7 601 163.8 601C191 601 218 601 245.2 601C272.3 601 299.7 601 327 601C354.3 601 381.7 601 409 601C436.3 601 463.7 601 491 601C518.3 601 545.7 601 573 601C600.3 601 627.7 601 654.8 601C682 601 709 601 736.2 601C763.3 601 790.7 601 818 601C845.3 601 872.7 601 886.3 601L900 601L900 389L886.3 400C872.7 411 845.3 433 818 436C790.7 439 763.3 423 736.2 417C709 411 682 415 654.8 429C627.7 443 600.3 467 573 479C545.7 491 518.3 491 491 487C463.7 483 436.3 475 409 477C381.7 479 354.3 491 327 483C299.7 475 272.3 447 245.2 433C218 419 191 419 163.8 420C136.7 421 109.3 423 82 414C54.7 405 27.3 385 13.7 375L0 365Z" fill="#00000f"></path></svg>