<svg id="visual" viewBox="0 0 900 600" width="900" height="600" xmlns="http://www.w3.org/2000/svg" xmlns:xlink="http://www.w3.org/1999/xlink" version="1.1"><rect x="0" y="0" width="900" height="600" fill="#001220"></rect><path d="M0 424L21.5 424.3C43 424.7 86 425.3 128.8 413.3C171.7 401.3 214.3 376.7 257.2 371.2C300 365.7 343 379.3 385.8 385.5C428.7 391.7 471.3 390.3 514.2 383.2C557 376 600 363 642.8 363C685.7 363 728.3 376 771.2 380C814 384 857 379 878.5 376.5L900 374L900 601L878.5 601C857 601 814 601 771.2 601C728.3 601 685.7 601 642.8 601C600 601 557 601 514.2 601C471.3 601 428.7 601 385.8 601C343 601 300 601 257.2 601C214.3 601 171.7 601 128.8 601C86 601 43 601 21.5 601L0 601Z" fill="#fa7268"></path><path d="M0 419L21.5 420.8C43 422.7 86 426.3 128.8 431.2C171.7 436 214.3 442 257.2 449.7C300 457.3 343 466.7 385.8 462C428.7 457.3 471.3 438.7 514.2 435C557 431.3 600 442.7 642.8 444.8C685.7 447 728.3 440 771.2 440.3C814 440.7 857 448.3 878.5 452.2L900 456L900 601L878.5 601C857 601 814 601 771.2 601C728.3 601 685.7 601 642.8 601C600 601 557 601 514.2 601C471.3 601 428.7 601 385.8 601C343 601 300 601 257.2 601C214.3 601 171.7 601 128.8 601C86 601 43 601 21.5 601L0 601Z" fill="#ef5f67"></path><path d="M0 490L21.5 481.7C43 473.3 86 456.7 128.8 448.5C171.7 440.3 214.3 440.7 257.2 443.3C300 446 343 451 385.8 453.7C428.7 456.3 471.3 456.7 514.2 465.5C557 474.3 600 491.7 642.8 491.7C685.7 491.7 728.3 474.3 771.2 474.5C814 474.7 857 492.3 878.5 501.2L900 510L900 601L878.5 601C857 601 814 601 771.2 601C728.3 601 685.7 601 642.8 601C600 601 557 601 514.2 601C471.3 601 428.7 601 385.8 601C343 601 300 601 257.2 601C214.3 601 171.7 601 128.8 601C86 601 43 601 21.5 601L0 601Z" fill="#e34c67"></path><path d="M0 523L21.5 516.5C43 510 86 497 128.8 492.5C171.7 488 214.3 492 257.2 500.5C300 509 343 522 385.8 528.7C428.7 535.3 471.3 535.7 514.2 528.5C557 521.3 600 506.7 642.8 507.3C685.7 508 728.3 524 771.2 523.2C814 522.3 857 504.7 878.5 495.8L900 487L900 601L878.5 601C857 601 814 601 771.2 601C728.3 601 685.7 601 642.8 601C600 601 557 601 514.2 601C471.3 601 428.7 601 385.8 601C343 601 300 601 257.2 601C214.3 601 171.7 601 128.8 601C86 601 43 601 21.5 601L0 601Z" fill="#d53867"></path><path d="M0 555L21.5 550.3C43 545.7 86 536.3 128.8 533.5C171.7 530.7 214.3 534.3 257.2 539.7C300 545 343 552 385.8 557.7C428.7 563.3 471.3 567.7 514.2 565.5C557 563.3 600 554.7 642.8 551.7C685.7 548.7 728.3 551.3 771.2 550.8C814 550.3 857 546.7 878.5 544.8L900 543L900 601L878.5 601C857 601 814 601 771.2 601C728.3 601 685.7 601 642.8 601C600 601 557 601 514.2 601C471.3 601 428.7 601 385.8 601C343 601 300 601 257.2 601C214.3 601 171.7 601 128.8 601C86 601 43 601 21.5 601L0 601Z" fill="#c62368"></path></svg>