<svg id="visual" viewBox="0 0 900 600" width="900" height="600" xmlns="http://www.w3.org/2000/svg" xmlns:xlink="http://www.w3.org/1999/xlink" version="1.1"><rect x="0" y="0" width="900" height="600" fill="#140021"></rect><path d="M0 253L129 253L129 265L257 265L257 369L386 369L386 275L514 275L514 343L643 343L643 270L771 270L771 262L900 262L900 312L900 601L900 601L771 601L771 601L643 601L643 601L514 601L514 601L386 601L386 601L257 601L257 601L129 601L129 601L0 601Z" fill="#340417"></path><path d="M0 370L129 370L129 401L257 401L257 459L386 459L386 456L514 456L514 402L643 402L643 370L771 370L771 465L900 465L900 416L900 601L900 601L771 601L771 601L643 601L643 601L514 601L514 601L386 601L386 601L257 601L257 601L129 601L129 601L0 601Z" fill="#3a2c03"></path><path d="M0 452L129 452L129 475L257 475L257 454L386 454L386 450L514 450L514 483L643 483L643 489L771 489L771 477L900 477L900 500L900 601L900 601L771 601L771 601L643 601L643 601L514 601L514 601L386 601L386 601L257 601L257 601L129 601L129 601L0 601Z" fill="#035140"></path></svg>