<svg id="visual" viewBox="0 0 900 600" width="900" height="600" xmlns="http://www.w3.org/2000/svg" xmlns:xlink="http://www.w3.org/1999/xlink" version="1.1"><rect x="0" y="0" width="900" height="600" fill="#001220"></rect><defs><linearGradient id="grad1_0" x1="33.3%" y1="0%" x2="100%" y2="100%"><stop offset="20%" stop-color="#001220" stop-opacity="1"></stop><stop offset="80%" stop-color="#001220" stop-opacity="1"></stop></linearGradient></defs><defs><linearGradient id="grad2_0" x1="0%" y1="0%" x2="66.7%" y2="100%"><stop offset="20%" stop-color="#001220" stop-opacity="1"></stop><stop offset="80%" stop-color="#001220" stop-opacity="1"></stop></linearGradient></defs><g transform="translate(900, 0)"><path d="M0 297.5C-35.1 278.8 -70.2 260.2 -100.3 242.1C-130.3 223.9 -155.4 206.3 -186.7 186.7C-217.9 167 -255.3 145.3 -274.8 113.8C-294.3 82.4 -295.9 41.2 -297.5 0L0 0Z" fill="#FBAE3C"></path></g><g transform="translate(0, 600)"><path d="M0 -297.5C42.9 -297.6 85.7 -297.7 113.8 -274.8C141.9 -251.9 155.2 -206 174.7 -174.7C194.1 -143.3 219.6 -126.6 241.1 -99.9C262.6 -73.2 280 -36.6 297.5 0L0 0Z" fill="#FBAE3C"></path></g></svg>