<svg id="visual" viewBox="0 0 900 600" width="900" height="600" xmlns="http://www.w3.org/2000/svg" xmlns:xlink="http://www.w3.org/1999/xlink" version="1.1"><rect x="0" y="0" width="900" height="600" fill="#1f1235"></rect><path d="M0 364L21.5 374C43 384 86 404 128.8 415.5C171.7 427 214.3 430 257.2 427.3C300 424.7 343 416.3 385.8 409.3C428.7 402.3 471.3 396.7 514.2 393.8C557 391 600 391 642.8 394.3C685.7 397.7 728.3 404.3 771.2 401.5C814 398.7 857 386.3 878.5 380.2L900 374L900 601L878.5 601C857 601 814 601 771.2 601C728.3 601 685.7 601 642.8 601C600 601 557 601 514.2 601C471.3 601 428.7 601 385.8 601C343 601 300 601 257.2 601C214.3 601 171.7 601 128.8 601C86 601 43 601 21.5 601L0 601Z" fill="#ff6e6c"></path><path d="M0 474L21.5 467C43 460 86 446 128.8 444C171.7 442 214.3 452 257.2 447C300 442 343 422 385.8 421.7C428.7 421.3 471.3 440.7 514.2 446.2C557 451.7 600 443.3 642.8 445.5C685.7 447.7 728.3 460.3 771.2 466.8C814 473.3 857 473.7 878.5 473.8L900 474L900 601L878.5 601C857 601 814 601 771.2 601C728.3 601 685.7 601 642.8 601C600 601 557 601 514.2 601C471.3 601 428.7 601 385.8 601C343 601 300 601 257.2 601C214.3 601 171.7 601 128.8 601C86 601 43 601 21.5 601L0 601Z" fill="#ff8a62"></path><path d="M0 479L21.5 483.5C43 488 86 497 128.8 500.3C171.7 503.7 214.3 501.3 257.2 498C300 494.7 343 490.3 385.8 484.5C428.7 478.7 471.3 471.3 514.2 471C557 470.7 600 477.3 642.8 485.2C685.7 493 728.3 502 771.2 495.7C814 489.3 857 467.7 878.5 456.8L900 446L900 601L878.5 601C857 601 814 601 771.2 601C728.3 601 685.7 601 642.8 601C600 601 557 601 514.2 601C471.3 601 428.7 601 385.8 601C343 601 300 601 257.2 601C214.3 601 171.7 601 128.8 601C86 601 43 601 21.5 601L0 601Z" fill="#ffa65f"></path><path d="M0 529L21.5 522C43 515 86 501 128.8 498.8C171.7 496.7 214.3 506.3 257.2 507.7C300 509 343 502 385.8 498.3C428.7 494.7 471.3 494.3 514.2 494.2C557 494 600 494 642.8 500.3C685.7 506.7 728.3 519.3 771.2 525.7C814 532 857 532 878.5 532L900 532L900 601L878.5 601C857 601 814 601 771.2 601C728.3 601 685.7 601 642.8 601C600 601 557 601 514.2 601C471.3 601 428.7 601 385.8 601C343 601 300 601 257.2 601C214.3 601 171.7 601 128.8 601C86 601 43 601 21.5 601L0 601Z" fill="#ffc265"></path><path d="M0 551L21.5 548.3C43 545.7 86 540.3 128.8 536C171.7 531.7 214.3 528.3 257.2 532.8C300 537.3 343 549.7 385.8 554.3C428.7 559 471.3 556 514.2 554.2C557 552.3 600 551.7 642.8 553.7C685.7 555.7 728.3 560.3 771.2 556.3C814 552.3 857 539.7 878.5 533.3L900 527L900 601L878.5 601C857 601 814 601 771.2 601C728.3 601 685.7 601 642.8 601C600 601 557 601 514.2 601C471.3 601 428.7 601 385.8 601C343 601 300 601 257.2 601C214.3 601 171.7 601 128.8 601C86 601 43 601 21.5 601L0 601Z" fill="#fbdd74"></path></svg>