<svg id="visual" viewBox="0 0 900 600" width="900" height="600" xmlns="http://www.w3.org/2000/svg" xmlns:xlink="http://www.w3.org/1999/xlink" version="1.1"><g stroke-width="1" stroke-linejoin="bevel"><path d="M432 305L389 362L483 366Z" fill="#230018" stroke="#230018"></path><path d="M432 305L331 368L389 362Z" fill="#27011c" stroke="#27011c"></path><path d="M389 362L397 470L483 366Z" fill="#27011c" stroke="#27011c"></path><path d="M483 366L538 297L432 305Z" fill="#220016" stroke="#220016"></path><path d="M331 368L397 470L389 362Z" fill="#2c0522" stroke="#2c0522"></path><path d="M538 297L484 233L432 305Z" fill="#27011c" stroke="#27011c"></path><path d="M432 305L422 223L331 368Z" fill="#250019" stroke="#250019"></path><path d="M484 233L422 223L432 305Z" fill="#2c0522" stroke="#2c0522"></path><path d="M263 217L267 337L331 368Z" fill="#250019" stroke="#250019"></path><path d="M331 368L285 499L397 470Z" fill="#250019" stroke="#250019"></path><path d="M638 378L603 310L483 366Z" fill="#2c0522" stroke="#2c0522"></path><path d="M483 366L603 310L538 297Z" fill="#250019" stroke="#250019"></path><path d="M538 297L577 215L484 233Z" fill="#250019" stroke="#250019"></path><path d="M397 470L530 507L483 366Z" fill="#29031f" stroke="#29031f"></path><path d="M603 310L577 215L538 297Z" fill="#29031f" stroke="#29031f"></path><path d="M484 233L520 124L422 223Z" fill="#000000" stroke="#000000"></path><path d="M530 507L638 378L483 366Z" fill="#28021e" stroke="#28021e"></path><path d="M603 310L698 286L577 215Z" fill="#27011c" stroke="#27011c"></path><path d="M209 468L285 499L331 368Z" fill="#29031f" stroke="#29031f"></path><path d="M397 470L469 600L530 507Z" fill="#2b0421" stroke="#2b0421"></path><path d="M422 223L263 217L331 368Z" fill="#2c0522" stroke="#2c0522"></path><path d="M239 189L263 217L283 129Z" fill="#250019" stroke="#250019"></path><path d="M530 507L618 493L638 378Z" fill="#26001b" stroke="#26001b"></path><path d="M618 493L664 409L638 378Z" fill="#250019" stroke="#250019"></path><path d="M638 378L698 286L603 310Z" fill="#2b0421" stroke="#2b0421"></path><path d="M263 217L211 281L267 337Z" fill="#2c0522" stroke="#2c0522"></path><path d="M267 337L209 468L331 368Z" fill="#220016" stroke="#220016"></path><path d="M577 215L520 124L484 233Z" fill="#000000" stroke="#000000"></path><path d="M384 600L469 600L397 470Z" fill="#29031f" stroke="#29031f"></path><path d="M613 600L667 536L618 493Z" fill="#210014" stroke="#210014"></path><path d="M285 499L384 600L397 470Z" fill="#26001b" stroke="#26001b"></path><path d="M180 439L209 468L267 337Z" fill="#2b0421" stroke="#2b0421"></path><path d="M285 499L300 600L384 600Z" fill="#28021e" stroke="#28021e"></path><path d="M283 129L263 217L422 223Z" fill="#27011c" stroke="#27011c"></path><path d="M263 217L239 189L211 281Z" fill="#2c0522" stroke="#2c0522"></path><path d="M664 409L698 286L638 378Z" fill="#230018" stroke="#230018"></path><path d="M577 215L600 67L520 124Z" fill="#230018" stroke="#230018"></path><path d="M211 281L180 439L267 337Z" fill="#210014" stroke="#210014"></path><path d="M375 72L283 129L422 223Z" fill="#000000" stroke="#000000"></path><path d="M205 600L285 499L209 468Z" fill="#29031f" stroke="#29031f"></path><path d="M205 600L300 600L285 499Z" fill="#000000" stroke="#000000"></path><path d="M520 124L375 72L422 223Z" fill="#28021e" stroke="#28021e"></path><path d="M613 600L618 493L530 507Z" fill="#26001b" stroke="#26001b"></path><path d="M618 493L667 536L664 409Z" fill="#28021e" stroke="#28021e"></path><path d="M664 409L807 322L698 286Z" fill="#2b0421" stroke="#2b0421"></path><path d="M469 600L613 600L530 507Z" fill="#210014" stroke="#210014"></path><path d="M807 322L717 236L698 286Z" fill="#250019" stroke="#250019"></path><path d="M698 286L717 236L577 215Z" fill="#27011c" stroke="#27011c"></path><path d="M211 281L113 391L180 439Z" fill="#230018" stroke="#230018"></path><path d="M91 470L205 600L209 468Z" fill="#230018" stroke="#230018"></path><path d="M94 269L113 391L211 281Z" fill="#220016" stroke="#220016"></path><path d="M728 129L600 67L577 215Z" fill="#2c0522" stroke="#2c0522"></path><path d="M535 0L374 0L375 72Z" fill="#28021e" stroke="#28021e"></path><path d="M613 600L667 600L667 536Z" fill="#26001b" stroke="#26001b"></path><path d="M787 523L794 424L664 409Z" fill="#26001b" stroke="#26001b"></path><path d="M91 470L209 468L180 439Z" fill="#26001b" stroke="#26001b"></path><path d="M136 87L118 217L239 189Z" fill="#250019" stroke="#250019"></path><path d="M239 189L118 217L211 281Z" fill="#220016" stroke="#220016"></path><path d="M237 66L239 189L283 129Z" fill="#250019" stroke="#250019"></path><path d="M276 0L237 66L375 72Z" fill="#27011c" stroke="#27011c"></path><path d="M375 72L237 66L283 129Z" fill="#26001b" stroke="#26001b"></path><path d="M118 217L94 269L211 281Z" fill="#210014" stroke="#210014"></path><path d="M535 0L375 72L520 124Z" fill="#2b0421" stroke="#2b0421"></path><path d="M787 523L664 409L667 536Z" fill="#27011c" stroke="#27011c"></path><path d="M0 385L91 470L113 391Z" fill="#220016" stroke="#220016"></path><path d="M113 391L91 470L180 439Z" fill="#28021e" stroke="#28021e"></path><path d="M600 67L535 0L520 124Z" fill="#2b0421" stroke="#2b0421"></path><path d="M717 236L728 129L577 215Z" fill="#220016" stroke="#220016"></path><path d="M600 67L568 0L535 0Z" fill="#2c0522" stroke="#2c0522"></path><path d="M798 178L728 129L717 236Z" fill="#250019" stroke="#250019"></path><path d="M794 424L807 322L664 409Z" fill="#230018" stroke="#230018"></path><path d="M668 0L568 0L600 67Z" fill="#2b0421" stroke="#2b0421"></path><path d="M374 0L276 0L375 72Z" fill="#2c0522" stroke="#2c0522"></path><path d="M237 66L136 87L239 189Z" fill="#210014" stroke="#210014"></path><path d="M764 600L787 523L667 536Z" fill="#26001b" stroke="#26001b"></path><path d="M794 424L900 407L807 322Z" fill="#29031f" stroke="#29031f"></path><path d="M178 0L136 87L237 66Z" fill="#2c0522" stroke="#2c0522"></path><path d="M0 228L0 337L94 269Z" fill="#2c0522" stroke="#2c0522"></path><path d="M807 322L798 178L717 236Z" fill="#2b0421" stroke="#2b0421"></path><path d="M728 129L668 0L600 67Z" fill="#210014" stroke="#210014"></path><path d="M667 600L764 600L667 536Z" fill="#250019" stroke="#250019"></path><path d="M798 61L668 0L728 129Z" fill="#230018" stroke="#230018"></path><path d="M0 481L86 600L91 470Z" fill="#220016" stroke="#220016"></path><path d="M91 470L86 600L205 600Z" fill="#230018" stroke="#230018"></path><path d="M0 228L94 269L118 217Z" fill="#26001b" stroke="#26001b"></path><path d="M94 269L0 337L113 391Z" fill="#000000" stroke="#000000"></path><path d="M276 0L178 0L237 66Z" fill="#2c0522" stroke="#2c0522"></path><path d="M0 112L0 228L118 217Z" fill="#250019" stroke="#250019"></path><path d="M0 337L0 385L113 391Z" fill="#2b0421" stroke="#2b0421"></path><path d="M0 112L118 217L136 87Z" fill="#000000" stroke="#000000"></path><path d="M0 385L0 481L91 470Z" fill="#230018" stroke="#230018"></path><path d="M900 117L798 61L798 178Z" fill="#2c0522" stroke="#2c0522"></path><path d="M798 178L798 61L728 129Z" fill="#000000" stroke="#000000"></path><path d="M900 506L900 407L794 424Z" fill="#28021e" stroke="#28021e"></path><path d="M807 322L900 266L798 178Z" fill="#2c0522" stroke="#2c0522"></path><path d="M900 506L794 424L787 523Z" fill="#29031f" stroke="#29031f"></path><path d="M900 407L900 266L807 322Z" fill="#2b0421" stroke="#2b0421"></path><path d="M900 266L900 222L798 178Z" fill="#2b0421" stroke="#2b0421"></path><path d="M900 600L900 506L787 523Z" fill="#230018" stroke="#230018"></path><path d="M900 0L778 0L798 61Z" fill="#220016" stroke="#220016"></path><path d="M798 61L778 0L668 0Z" fill="#27011c" stroke="#27011c"></path><path d="M62 0L0 112L136 87Z" fill="#210014" stroke="#210014"></path><path d="M0 481L0 600L86 600Z" fill="#2c0522" stroke="#2c0522"></path><path d="M178 0L62 0L136 87Z" fill="#27011c" stroke="#27011c"></path><path d="M900 222L900 117L798 178Z" fill="#29031f" stroke="#29031f"></path><path d="M764 600L900 600L787 523Z" fill="#28021e" stroke="#28021e"></path><path d="M62 0L0 0L0 112Z" fill="#2c0522" stroke="#2c0522"></path><path d="M900 117L900 0L798 61Z" fill="#26001b" stroke="#26001b"></path></g></svg>