<svg id="visual" viewBox="0 0 900 600" width="900" height="600" xmlns="http://www.w3.org/2000/svg" xmlns:xlink="http://www.w3.org/1999/xlink" version="1.1"><rect x="0" y="0" width="900" height="600" fill="#001220"></rect><path d="M0 379L21.5 381.5C43 384 86 389 128.8 400.3C171.7 411.7 214.3 429.3 257.2 435.8C300 442.3 343 437.7 385.8 424.7C428.7 411.7 471.3 390.3 514.2 382C557 373.7 600 378.3 642.8 389.8C685.7 401.3 728.3 419.7 771.2 428.5C814 437.3 857 436.7 878.5 436.3L900 436L900 601L878.5 601C857 601 814 601 771.2 601C728.3 601 685.7 601 642.8 601C600 601 557 601 514.2 601C471.3 601 428.7 601 385.8 601C343 601 300 601 257.2 601C214.3 601 171.7 601 128.8 601C86 601 43 601 21.5 601L0 601Z" fill="#fa7268"></path><path d="M0 403L21.5 402.3C43 401.7 86 400.3 128.8 401.7C171.7 403 214.3 407 257.2 419.7C300 432.3 343 453.7 385.8 459.5C428.7 465.3 471.3 455.7 514.2 453C557 450.3 600 454.7 642.8 450.8C685.7 447 728.3 435 771.2 435.7C814 436.3 857 449.7 878.5 456.3L900 463L900 601L878.5 601C857 601 814 601 771.2 601C728.3 601 685.7 601 642.8 601C600 601 557 601 514.2 601C471.3 601 428.7 601 385.8 601C343 601 300 601 257.2 601C214.3 601 171.7 601 128.8 601C86 601 43 601 21.5 601L0 601Z" fill="#eb71a9"></path><path d="M0 443L21.5 443C43 443 86 443 128.8 443.7C171.7 444.3 214.3 445.7 257.2 453.8C300 462 343 477 385.8 477.8C428.7 478.7 471.3 465.3 514.2 468.3C557 471.3 600 490.7 642.8 499.2C685.7 507.7 728.3 505.3 771.2 504.3C814 503.3 857 503.7 878.5 503.8L900 504L900 601L878.5 601C857 601 814 601 771.2 601C728.3 601 685.7 601 642.8 601C600 601 557 601 514.2 601C471.3 601 428.7 601 385.8 601C343 601 300 601 257.2 601C214.3 601 171.7 601 128.8 601C86 601 43 601 21.5 601L0 601Z" fill="#b486d6"></path><path d="M0 527L21.5 529.2C43 531.3 86 535.7 128.8 529.8C171.7 524 214.3 508 257.2 499.3C300 490.7 343 489.3 385.8 488.8C428.7 488.3 471.3 488.7 514.2 495C557 501.3 600 513.7 642.8 519.3C685.7 525 728.3 524 771.2 525.7C814 527.3 857 531.7 878.5 533.8L900 536L900 601L878.5 601C857 601 814 601 771.2 601C728.3 601 685.7 601 642.8 601C600 601 557 601 514.2 601C471.3 601 428.7 601 385.8 601C343 601 300 601 257.2 601C214.3 601 171.7 601 128.8 601C86 601 43 601 21.5 601L0 601Z" fill="#6699df"></path><path d="M0 526L21.5 529.7C43 533.3 86 540.7 128.8 545.5C171.7 550.3 214.3 552.7 257.2 549.2C300 545.7 343 536.3 385.8 533.7C428.7 531 471.3 535 514.2 540.2C557 545.3 600 551.7 642.8 554.3C685.7 557 728.3 556 771.2 553.8C814 551.7 857 548.3 878.5 546.7L900 545L900 601L878.5 601C857 601 814 601 771.2 601C728.3 601 685.7 601 642.8 601C600 601 557 601 514.2 601C471.3 601 428.7 601 385.8 601C343 601 300 601 257.2 601C214.3 601 171.7 601 128.8 601C86 601 43 601 21.5 601L0 601Z" fill="#24a1c7"></path></svg>