<svg id="visual" viewBox="0 0 900 600" width="900" height="600" xmlns="http://www.w3.org/2000/svg" xmlns:xlink="http://www.w3.org/1999/xlink" version="1.1"><path d="M0 169L82 169L82 115L164 115L164 127L245 127L245 115L327 115L327 169L409 169L409 109L491 109L491 127L573 127L573 271L655 271L655 199L736 199L736 247L818 247L818 139L900 139L900 151L900 0L900 0L818 0L818 0L736 0L736 0L655 0L655 0L573 0L573 0L491 0L491 0L409 0L409 0L327 0L327 0L245 0L245 0L164 0L164 0L82 0L82 0L0 0Z" fill="#411530"></path><path d="M0 331L82 331L82 343L164 343L164 433L245 433L245 367L327 367L327 289L409 289L409 331L491 331L491 313L573 313L573 385L655 385L655 403L736 403L736 409L818 409L818 373L900 373L900 391L900 149L900 137L818 137L818 245L736 245L736 197L655 197L655 269L573 269L573 125L491 125L491 107L409 107L409 167L327 167L327 113L245 113L245 125L164 125L164 113L82 113L82 167L0 167Z" fill="#5b1a3e"></path><path d="M0 397L82 397L82 445L164 445L164 475L245 475L245 481L327 481L327 409L409 409L409 445L491 445L491 427L573 427L573 427L655 427L655 469L736 469L736 457L818 457L818 427L900 427L900 499L900 389L900 371L818 371L818 407L736 407L736 401L655 401L655 383L573 383L573 311L491 311L491 329L409 329L409 287L327 287L327 365L245 365L245 431L164 431L164 341L82 341L82 329L0 329Z" fill="#761e4b"></path><path d="M0 451L82 451L82 541L164 541L164 517L245 517L245 523L327 523L327 499L409 499L409 535L491 535L491 499L573 499L573 505L655 505L655 541L736 541L736 541L818 541L818 523L900 523L900 541L900 497L900 425L818 425L818 455L736 455L736 467L655 467L655 425L573 425L573 425L491 425L491 443L409 443L409 407L327 407L327 479L245 479L245 473L164 473L164 443L82 443L82 395L0 395Z" fill="#922156"></path><path d="M0 601L82 601L82 601L164 601L164 601L245 601L245 601L327 601L327 601L409 601L409 601L491 601L491 601L573 601L573 601L655 601L655 601L736 601L736 601L818 601L818 601L900 601L900 601L900 539L900 521L818 521L818 539L736 539L736 539L655 539L655 503L573 503L573 497L491 497L491 533L409 533L409 497L327 497L327 521L245 521L245 515L164 515L164 539L82 539L82 449L0 449Z" fill="#b0235f"></path></svg>