<svg id="visual" viewBox="0 0 900 600" width="900" height="600" xmlns="http://www.w3.org/2000/svg" xmlns:xlink="http://www.w3.org/1999/xlink" version="1.1"><g stroke-width="1" stroke-linejoin="bevel"><path d="M405 333L308 304L313 362Z" fill="#41494f" stroke="#41494f"></path><path d="M313 362L429 429L405 333Z" fill="#494f54" stroke="#494f54"></path><path d="M374 183L309 212L308 304Z" fill="#172c38" stroke="#172c38"></path><path d="M309 212L219 297L308 304Z" fill="#41494f" stroke="#41494f"></path><path d="M308 304L219 297L313 362Z" fill="#313d46" stroke="#313d46"></path><path d="M534 216L374 183L405 333Z" fill="#39434b" stroke="#39434b"></path><path d="M405 333L374 183L308 304Z" fill="#293741" stroke="#293741"></path><path d="M429 429L499 362L405 333Z" fill="#293741" stroke="#293741"></path><path d="M219 297L219 409L313 362Z" fill="#20313d" stroke="#20313d"></path><path d="M313 362L282 482L429 429Z" fill="#20313d" stroke="#20313d"></path><path d="M219 409L282 482L313 362Z" fill="#02212f" stroke="#02212f"></path><path d="M499 362L527 335L405 333Z" fill="#515558" stroke="#515558"></path><path d="M265 63L219 195L309 212Z" fill="#313d46" stroke="#313d46"></path><path d="M309 212L219 195L219 297Z" fill="#0d2634" stroke="#0d2634"></path><path d="M534 216L373 126L374 183Z" fill="#20313d" stroke="#20313d"></path><path d="M374 183L373 126L309 212Z" fill="#02212f" stroke="#02212f"></path><path d="M282 482L373 537L429 429Z" fill="#293741" stroke="#293741"></path><path d="M493 508L572 377L499 362Z" fill="#494f54" stroke="#494f54"></path><path d="M572 377L567 303L527 335Z" fill="#515558" stroke="#515558"></path><path d="M527 335L534 216L405 333Z" fill="#41494f" stroke="#41494f"></path><path d="M572 377L527 335L499 362Z" fill="#02212f" stroke="#02212f"></path><path d="M527 335L567 303L534 216Z" fill="#313d46" stroke="#313d46"></path><path d="M493 508L499 362L429 429Z" fill="#20313d" stroke="#20313d"></path><path d="M373 537L493 508L429 429Z" fill="#41494f" stroke="#41494f"></path><path d="M107 228L118 310L219 297Z" fill="#494f54" stroke="#494f54"></path><path d="M219 297L118 310L219 409Z" fill="#293741" stroke="#293741"></path><path d="M219 409L184 500L282 482Z" fill="#595b5d" stroke="#595b5d"></path><path d="M66 429L184 500L219 409Z" fill="#41494f" stroke="#41494f"></path><path d="M282 482L306 600L373 537Z" fill="#41494f" stroke="#41494f"></path><path d="M567 303L564 192L534 216Z" fill="#02212f" stroke="#02212f"></path><path d="M534 216L522 65L373 126Z" fill="#313d46" stroke="#313d46"></path><path d="M671 298L564 192L567 303Z" fill="#39434b" stroke="#39434b"></path><path d="M219 195L107 228L219 297Z" fill="#39434b" stroke="#39434b"></path><path d="M70 79L107 228L219 195Z" fill="#313d46" stroke="#313d46"></path><path d="M184 500L306 600L282 482Z" fill="#20313d" stroke="#20313d"></path><path d="M373 537L431 600L493 508Z" fill="#595b5d" stroke="#595b5d"></path><path d="M625 600L593 475L493 508Z" fill="#595b5d" stroke="#595b5d"></path><path d="M493 508L593 475L572 377Z" fill="#41494f" stroke="#41494f"></path><path d="M572 377L671 298L567 303Z" fill="#0d2634" stroke="#0d2634"></path><path d="M391 0L265 63L373 126Z" fill="#20313d" stroke="#20313d"></path><path d="M373 126L265 63L309 212Z" fill="#172c38" stroke="#172c38"></path><path d="M306 600L431 600L373 537Z" fill="#20313d" stroke="#20313d"></path><path d="M431 600L460 600L493 508Z" fill="#293741" stroke="#293741"></path><path d="M265 63L217 68L219 195Z" fill="#41494f" stroke="#41494f"></path><path d="M0 338L66 429L118 310Z" fill="#0d2634" stroke="#0d2634"></path><path d="M118 310L66 429L219 409Z" fill="#293741" stroke="#293741"></path><path d="M184 500L169 600L306 600Z" fill="#494f54" stroke="#494f54"></path><path d="M66 429L132 538L184 500Z" fill="#39434b" stroke="#39434b"></path><path d="M564 192L522 65L534 216Z" fill="#41494f" stroke="#41494f"></path><path d="M732 415L671 298L572 377Z" fill="#172c38" stroke="#172c38"></path><path d="M564 192L589 93L522 65Z" fill="#293741" stroke="#293741"></path><path d="M122 600L169 600L132 538Z" fill="#20313d" stroke="#20313d"></path><path d="M132 538L169 600L184 500Z" fill="#494f54" stroke="#494f54"></path><path d="M522 65L391 0L373 126Z" fill="#02212f" stroke="#02212f"></path><path d="M265 63L233 0L217 68Z" fill="#02212f" stroke="#02212f"></path><path d="M692 114L589 93L564 192Z" fill="#293741" stroke="#293741"></path><path d="M522 65L503 0L391 0Z" fill="#595b5d" stroke="#595b5d"></path><path d="M391 0L273 0L265 63Z" fill="#515558" stroke="#515558"></path><path d="M273 0L233 0L265 63Z" fill="#313d46" stroke="#313d46"></path><path d="M0 116L0 210L107 228Z" fill="#41494f" stroke="#41494f"></path><path d="M625 600L676 472L593 475Z" fill="#313d46" stroke="#313d46"></path><path d="M593 475L676 472L572 377Z" fill="#41494f" stroke="#41494f"></path><path d="M107 228L0 338L118 310Z" fill="#172c38" stroke="#172c38"></path><path d="M0 600L122 600L132 538Z" fill="#172c38" stroke="#172c38"></path><path d="M0 210L0 338L107 228Z" fill="#0d2634" stroke="#0d2634"></path><path d="M0 515L132 538L66 429Z" fill="#515558" stroke="#515558"></path><path d="M565 0L503 0L522 65Z" fill="#515558" stroke="#515558"></path><path d="M0 338L0 436L66 429Z" fill="#41494f" stroke="#41494f"></path><path d="M70 79L219 195L217 68Z" fill="#293741" stroke="#293741"></path><path d="M134 0L70 79L217 68Z" fill="#595b5d" stroke="#595b5d"></path><path d="M460 600L625 600L493 508Z" fill="#293741" stroke="#293741"></path><path d="M676 472L732 415L572 377Z" fill="#20313d" stroke="#20313d"></path><path d="M664 0L565 0L589 93Z" fill="#293741" stroke="#293741"></path><path d="M820 424L732 415L799 500Z" fill="#20313d" stroke="#20313d"></path><path d="M692 114L564 192L732 168Z" fill="#595b5d" stroke="#595b5d"></path><path d="M589 93L565 0L522 65Z" fill="#20313d" stroke="#20313d"></path><path d="M233 0L134 0L217 68Z" fill="#172c38" stroke="#172c38"></path><path d="M0 436L0 515L66 429Z" fill="#172c38" stroke="#172c38"></path><path d="M732 168L564 192L671 298Z" fill="#39434b" stroke="#39434b"></path><path d="M804 186L732 168L835 266Z" fill="#39434b" stroke="#39434b"></path><path d="M70 79L0 116L107 228Z" fill="#494f54" stroke="#494f54"></path><path d="M0 0L0 116L70 79Z" fill="#39434b" stroke="#39434b"></path><path d="M625 600L683 600L676 472Z" fill="#293741" stroke="#293741"></path><path d="M0 515L0 600L132 538Z" fill="#313d46" stroke="#313d46"></path><path d="M815 0L664 0L692 114Z" fill="#39434b" stroke="#39434b"></path><path d="M692 114L664 0L589 93Z" fill="#313d46" stroke="#313d46"></path><path d="M835 266L732 168L671 298Z" fill="#494f54" stroke="#494f54"></path><path d="M732 168L831 105L692 114Z" fill="#41494f" stroke="#41494f"></path><path d="M835 266L671 298L732 415Z" fill="#39434b" stroke="#39434b"></path><path d="M799 500L732 415L676 472Z" fill="#313d46" stroke="#313d46"></path><path d="M683 600L799 500L676 472Z" fill="#02212f" stroke="#02212f"></path><path d="M134 0L0 0L70 79Z" fill="#172c38" stroke="#172c38"></path><path d="M820 424L835 266L732 415Z" fill="#313d46" stroke="#313d46"></path><path d="M900 181L831 105L804 186Z" fill="#313d46" stroke="#313d46"></path><path d="M804 186L831 105L732 168Z" fill="#02212f" stroke="#02212f"></path><path d="M820 424L900 326L835 266Z" fill="#172c38" stroke="#172c38"></path><path d="M835 266L900 181L804 186Z" fill="#39434b" stroke="#39434b"></path><path d="M900 409L900 326L820 424Z" fill="#172c38" stroke="#172c38"></path><path d="M683 600L829 600L799 500Z" fill="#293741" stroke="#293741"></path><path d="M900 483L900 409L820 424Z" fill="#02212f" stroke="#02212f"></path><path d="M900 483L820 424L799 500Z" fill="#313d46" stroke="#313d46"></path><path d="M900 326L900 181L835 266Z" fill="#313d46" stroke="#313d46"></path><path d="M900 79L815 0L831 105Z" fill="#494f54" stroke="#494f54"></path><path d="M831 105L815 0L692 114Z" fill="#20313d" stroke="#20313d"></path><path d="M829 600L900 483L799 500Z" fill="#41494f" stroke="#41494f"></path><path d="M900 181L900 79L831 105Z" fill="#313d46" stroke="#313d46"></path><path d="M829 600L900 600L900 483Z" fill="#313d46" stroke="#313d46"></path><path d="M900 79L900 0L815 0Z" fill="#313d46" stroke="#313d46"></path></g></svg>