<svg id="visual" viewBox="0 0 900 600" width="900" height="600" xmlns="http://www.w3.org/2000/svg" xmlns:xlink="http://www.w3.org/1999/xlink" version="1.1"><rect width="900" height="600" fill="#37313c"></rect><g><g transform="translate(456 361)"><path d="M100.7 -35.6C113.2 5.8 94.2 54.6 61.2 76.8C28.2 99 -18.7 94.6 -52.9 70.4C-87.2 46.1 -108.8 1.8 -97.9 -37.4C-86.9 -76.6 -43.5 -110.8 0.3 -110.9C44.1 -111 88.2 -77 100.7 -35.6Z" stroke="#FDEEDC" fill="none" stroke-width="20"></path></g><g transform="translate(58 508)"><path d="M91 -29.7C103.5 8.8 89.1 55.9 58.2 77.8C27.2 99.8 -20.4 96.7 -52.7 73.1C-84.9 49.5 -102 5.4 -90.6 -31.6C-79.3 -68.5 -39.7 -98.4 -0.2 -98.4C39.3 -98.3 78.5 -68.3 91 -29.7Z" stroke="#FDEEDC" fill="none" stroke-width="20"></path></g><g transform="translate(145 38)"><path d="M58.4 -19.5C66.4 5.7 57.2 35.9 36.4 51.4C15.6 66.8 -16.9 67.4 -37.8 52.2C-58.7 37 -68.1 5.9 -59.8 -19.6C-51.6 -45.1 -25.8 -65 -0.3 -64.9C25.2 -64.8 50.3 -44.7 58.4 -19.5Z" stroke="#FDEEDC" fill="none" stroke-width="20"></path></g></g></svg>