<svg id="visual" viewBox="0 0 900 600" width="900" height="600" xmlns="http://www.w3.org/2000/svg" xmlns:xlink="http://www.w3.org/1999/xlink" version="1.1"><path d="M0 97L82 73L164 127L245 55L327 43L409 121L491 73L573 61L655 43L736 49L818 55L900 79L900 0L818 0L736 0L655 0L573 0L491 0L409 0L327 0L245 0L164 0L82 0L0 0Z" fill="#cc8d00"></path><path d="M0 295L82 259L164 301L245 241L327 133L409 247L491 217L573 295L655 235L736 223L818 133L900 253L900 77L818 53L736 47L655 41L573 59L491 71L409 119L327 41L245 53L164 125L82 71L0 95Z" fill="#959516"></path><path d="M0 445L82 451L164 433L245 445L327 397L409 403L491 415L573 427L655 415L736 373L818 367L900 457L900 251L818 131L736 221L655 233L573 293L491 215L409 245L327 131L245 239L164 299L82 257L0 293Z" fill="#62943c"></path><path d="M0 505L82 529L164 535L245 523L327 511L409 505L491 535L573 535L655 511L736 535L818 511L900 511L900 455L818 365L736 371L655 413L573 425L491 413L409 401L327 395L245 443L164 431L82 449L0 443Z" fill="#328d5c"></path><path d="M0 601L82 601L164 601L245 601L327 601L409 601L491 601L573 601L655 601L736 601L818 601L900 601L900 509L818 509L736 533L655 509L573 533L491 533L409 503L327 509L245 521L164 533L82 527L0 503Z" fill="#038373"></path></svg>