<svg id="visual" viewBox="0 0 900 600" width="900" height="600" xmlns="http://www.w3.org/2000/svg" xmlns:xlink="http://www.w3.org/1999/xlink" version="1.1"><rect x="0" y="0" width="900" height="600" fill="#4c0909"></rect><path d="M0 396L129 350L257 429L386 407L514 422L643 371L771 351L900 359L900 601L771 601L643 601L514 601L386 601L257 601L129 601L0 601Z" fill="#090000"></path><path d="M0 417L129 441L257 478L386 402L514 458L643 443L771 393L900 415L900 601L771 601L643 601L514 601L386 601L257 601L129 601L0 601Z" fill="#2c0d0a"></path><path d="M0 506L129 478L257 442L386 467L514 480L643 452L771 465L900 483L900 601L771 601L643 601L514 601L386 601L257 601L129 601L0 601Z" fill="#4a0f0e"></path><path d="M0 496L129 526L257 488L386 509L514 531L643 529L771 503L900 512L900 601L771 601L643 601L514 601L386 601L257 601L129 601L0 601Z" fill="#69100b"></path><path d="M0 527L129 557L257 562L386 534L514 535L643 573L771 536L900 525L900 601L771 601L643 601L514 601L386 601L257 601L129 601L0 601Z" fill="#871400"></path></svg>