<svg id="visual" viewBox="0 0 900 600" width="900" height="600" xmlns="http://www.w3.org/2000/svg" xmlns:xlink="http://www.w3.org/1999/xlink" version="1.1"><rect x="0" y="0" width="900" height="600" fill="#979797"></rect><path d="M0 350L129 411L257 396L386 377L514 394L643 440L771 420L900 359L900 601L771 601L643 601L514 601L386 601L257 601L129 601L0 601Z" fill="#111111"></path><path d="M0 420L129 417L257 433L386 469L514 413L643 475L771 477L900 401L900 601L771 601L643 601L514 601L386 601L257 601L129 601L0 601Z" fill="#30170f"></path><path d="M0 486L129 506L257 492L386 491L514 443L643 492L771 499L900 464L900 601L771 601L643 601L514 601L386 601L257 601L129 601L0 601Z" fill="#4c190b"></path><path d="M0 519L129 489L257 542L386 535L514 525L643 500L771 518L900 540L900 601L771 601L643 601L514 601L386 601L257 601L129 601L0 601Z" fill="#691906"></path><path d="M0 532L129 531L257 541L386 541L514 565L643 554L771 532L900 548L900 601L771 601L643 601L514 601L386 601L257 601L129 601L0 601Z" fill="#871400"></path></svg>