<svg id="visual" viewBox="0 0 900 600" width="900" height="600" xmlns="http://www.w3.org/2000/svg" xmlns:xlink="http://www.w3.org/1999/xlink" version="1.1"><g stroke-width="1" stroke-linejoin="bevel"><path d="M517 336L615 410L567 275Z" fill="#7d2d6f" stroke="#7d2d6f"></path><path d="M615 410L670 295L567 275Z" fill="#8e2e6d" stroke="#8e2e6d"></path><path d="M517 336L534 426L615 410Z" fill="#852d6e" stroke="#852d6e"></path><path d="M670 295L569 239L567 275Z" fill="#7d2d6f" stroke="#7d2d6f"></path><path d="M567 275L471 184L517 336Z" fill="#b23861" stroke="#b23861"></path><path d="M586 502L680 433L615 410Z" fill="#6a2c70" stroke="#6a2c70"></path><path d="M615 410L680 433L670 295Z" fill="#8e2e6d" stroke="#8e2e6d"></path><path d="M432 382L509 463L534 426Z" fill="#962f6b" stroke="#962f6b"></path><path d="M534 426L586 502L615 410Z" fill="#a53267" stroke="#a53267"></path><path d="M509 463L586 502L534 426Z" fill="#8e2e6d" stroke="#8e2e6d"></path><path d="M370 305L432 382L517 336Z" fill="#732c70" stroke="#732c70"></path><path d="M517 336L432 382L534 426Z" fill="#7d2d6f" stroke="#7d2d6f"></path><path d="M792 185L664 162L670 295Z" fill="#ac3564" stroke="#ac3564"></path><path d="M670 295L664 162L569 239Z" fill="#732c70" stroke="#732c70"></path><path d="M602 136L471 184L569 239Z" fill="#962f6b" stroke="#962f6b"></path><path d="M569 239L471 184L567 275Z" fill="#732c70" stroke="#732c70"></path><path d="M664 162L602 136L569 239Z" fill="#a53267" stroke="#a53267"></path><path d="M586 502L695 523L680 433Z" fill="#b83b5e" stroke="#b83b5e"></path><path d="M680 433L805 303L670 295Z" fill="#9e3069" stroke="#9e3069"></path><path d="M815 435L805 303L680 433Z" fill="#a53267" stroke="#a53267"></path><path d="M397 205L370 305L517 336Z" fill="#ac3564" stroke="#ac3564"></path><path d="M792 185L665 133L664 162Z" fill="#b23861" stroke="#b23861"></path><path d="M664 162L665 133L602 136Z" fill="#b83b5e" stroke="#b83b5e"></path><path d="M471 184L397 205L517 336Z" fill="#7d2d6f" stroke="#7d2d6f"></path><path d="M437 115L397 205L471 184Z" fill="#b83b5e" stroke="#b83b5e"></path><path d="M695 523L783 487L680 433Z" fill="#962f6b" stroke="#962f6b"></path><path d="M783 487L815 435L680 433Z" fill="#7d2d6f" stroke="#7d2d6f"></path><path d="M526 600L572 600L586 502Z" fill="#a53267" stroke="#a53267"></path><path d="M586 502L680 600L695 523Z" fill="#852d6e" stroke="#852d6e"></path><path d="M695 523L839 600L783 487Z" fill="#9e3069" stroke="#9e3069"></path><path d="M526 600L586 502L509 463Z" fill="#b83b5e" stroke="#b83b5e"></path><path d="M399 526L509 463L432 382Z" fill="#732c70" stroke="#732c70"></path><path d="M805 303L792 185L670 295Z" fill="#b23861" stroke="#b23861"></path><path d="M313 482L399 526L432 382Z" fill="#a53267" stroke="#a53267"></path><path d="M399 526L526 600L509 463Z" fill="#7d2d6f" stroke="#7d2d6f"></path><path d="M633 0L535 79L602 136Z" fill="#852d6e" stroke="#852d6e"></path><path d="M602 136L535 79L471 184Z" fill="#732c70" stroke="#732c70"></path><path d="M633 0L602 136L665 133Z" fill="#7d2d6f" stroke="#7d2d6f"></path><path d="M572 600L680 600L586 502Z" fill="#a53267" stroke="#a53267"></path><path d="M535 79L437 115L471 184Z" fill="#962f6b" stroke="#962f6b"></path><path d="M301 211L315 307L370 305Z" fill="#ac3564" stroke="#ac3564"></path><path d="M370 305L262 388L432 382Z" fill="#7d2d6f" stroke="#7d2d6f"></path><path d="M301 211L370 305L397 205Z" fill="#b83b5e" stroke="#b83b5e"></path><path d="M262 388L313 482L432 382Z" fill="#8e2e6d" stroke="#8e2e6d"></path><path d="M399 526L415 600L526 600Z" fill="#a53267" stroke="#a53267"></path><path d="M275 600L415 600L399 526Z" fill="#a53267" stroke="#a53267"></path><path d="M815 435L900 295L805 303Z" fill="#732c70" stroke="#732c70"></path><path d="M805 303L900 220L792 185Z" fill="#962f6b" stroke="#962f6b"></path><path d="M302 104L301 211L397 205Z" fill="#a53267" stroke="#a53267"></path><path d="M315 307L262 388L370 305Z" fill="#7d2d6f" stroke="#7d2d6f"></path><path d="M900 123L804 102L792 185Z" fill="#9e3069" stroke="#9e3069"></path><path d="M792 185L804 102L665 133Z" fill="#6a2c70" stroke="#6a2c70"></path><path d="M900 467L900 438L815 435Z" fill="#6a2c70" stroke="#6a2c70"></path><path d="M815 435L900 438L900 295Z" fill="#962f6b" stroke="#962f6b"></path><path d="M900 467L815 435L783 487Z" fill="#8e2e6d" stroke="#8e2e6d"></path><path d="M185 360L262 388L183 313Z" fill="#9e3069" stroke="#9e3069"></path><path d="M900 295L900 220L805 303Z" fill="#b83b5e" stroke="#b83b5e"></path><path d="M839 600L900 467L783 487Z" fill="#a53267" stroke="#a53267"></path><path d="M662 0L633 0L665 133Z" fill="#852d6e" stroke="#852d6e"></path><path d="M535 79L495 0L437 115Z" fill="#8e2e6d" stroke="#8e2e6d"></path><path d="M804 102L662 0L665 133Z" fill="#b23861" stroke="#b23861"></path><path d="M633 0L495 0L535 79Z" fill="#852d6e" stroke="#852d6e"></path><path d="M437 115L302 104L397 205Z" fill="#7d2d6f" stroke="#7d2d6f"></path><path d="M680 600L839 600L695 523Z" fill="#8e2e6d" stroke="#8e2e6d"></path><path d="M402 0L302 104L437 115Z" fill="#ac3564" stroke="#ac3564"></path><path d="M301 211L226 204L315 307Z" fill="#b23861" stroke="#b23861"></path><path d="M900 220L900 123L792 185Z" fill="#732c70" stroke="#732c70"></path><path d="M804 102L800 0L662 0Z" fill="#7d2d6f" stroke="#7d2d6f"></path><path d="M302 104L226 204L301 211Z" fill="#b23861" stroke="#b23861"></path><path d="M495 0L402 0L437 115Z" fill="#7d2d6f" stroke="#7d2d6f"></path><path d="M900 0L800 0L804 102Z" fill="#ac3564" stroke="#ac3564"></path><path d="M183 313L262 388L315 307Z" fill="#6a2c70" stroke="#6a2c70"></path><path d="M262 388L211 517L313 482Z" fill="#6a2c70" stroke="#6a2c70"></path><path d="M313 482L275 600L399 526Z" fill="#ac3564" stroke="#ac3564"></path><path d="M839 600L900 600L900 467Z" fill="#962f6b" stroke="#962f6b"></path><path d="M211 517L275 600L313 482Z" fill="#6a2c70" stroke="#6a2c70"></path><path d="M226 204L183 313L315 307Z" fill="#962f6b" stroke="#962f6b"></path><path d="M185 360L211 517L262 388Z" fill="#852d6e" stroke="#852d6e"></path><path d="M402 0L332 0L302 104Z" fill="#a53267" stroke="#a53267"></path><path d="M302 104L180 100L226 204Z" fill="#732c70" stroke="#732c70"></path><path d="M900 123L900 0L804 102Z" fill="#ac3564" stroke="#ac3564"></path><path d="M183 313L116 371L185 360Z" fill="#852d6e" stroke="#852d6e"></path><path d="M185 360L116 371L211 517Z" fill="#852d6e" stroke="#852d6e"></path><path d="M65 275L116 371L183 313Z" fill="#b23861" stroke="#b23861"></path><path d="M104 198L183 313L226 204Z" fill="#6a2c70" stroke="#6a2c70"></path><path d="M216 0L180 100L302 104Z" fill="#b83b5e" stroke="#b83b5e"></path><path d="M72 492L169 600L211 517Z" fill="#8e2e6d" stroke="#8e2e6d"></path><path d="M211 517L169 600L275 600Z" fill="#8e2e6d" stroke="#8e2e6d"></path><path d="M180 100L104 198L226 204Z" fill="#b83b5e" stroke="#b83b5e"></path><path d="M332 0L216 0L302 104Z" fill="#852d6e" stroke="#852d6e"></path><path d="M180 100L104 61L104 198Z" fill="#a53267" stroke="#a53267"></path><path d="M104 198L65 275L183 313Z" fill="#6a2c70" stroke="#6a2c70"></path><path d="M116 371L72 492L211 517Z" fill="#852d6e" stroke="#852d6e"></path><path d="M0 417L72 492L116 371Z" fill="#a53267" stroke="#a53267"></path><path d="M72 492L100 600L169 600Z" fill="#962f6b" stroke="#962f6b"></path><path d="M0 189L0 297L65 275Z" fill="#7d2d6f" stroke="#7d2d6f"></path><path d="M139 0L104 61L180 100Z" fill="#ac3564" stroke="#ac3564"></path><path d="M216 0L139 0L180 100Z" fill="#a53267" stroke="#a53267"></path><path d="M0 189L65 275L104 198Z" fill="#b23861" stroke="#b23861"></path><path d="M65 275L0 297L116 371Z" fill="#962f6b" stroke="#962f6b"></path><path d="M72 492L0 600L100 600Z" fill="#a53267" stroke="#a53267"></path><path d="M0 297L0 417L116 371Z" fill="#b83b5e" stroke="#b83b5e"></path><path d="M0 134L0 189L104 198Z" fill="#732c70" stroke="#732c70"></path><path d="M0 134L104 198L104 61Z" fill="#852d6e" stroke="#852d6e"></path><path d="M0 417L0 510L72 492Z" fill="#732c70" stroke="#732c70"></path><path d="M0 0L0 134L104 61Z" fill="#852d6e" stroke="#852d6e"></path><path d="M0 510L0 600L72 492Z" fill="#852d6e" stroke="#852d6e"></path><path d="M139 0L0 0L104 61Z" fill="#ac3564" stroke="#ac3564"></path></g></svg>