<svg id="visual" viewBox="0 0 900 600" width="900" height="600" xmlns="http://www.w3.org/2000/svg" xmlns:xlink="http://www.w3.org/1999/xlink" version="1.1"><path d="M0 133L13.7 136C27.3 139 54.7 145 82 158C109.3 171 136.7 191 163.8 187C191 183 218 155 245.2 144C272.3 133 299.7 139 327 147C354.3 155 381.7 165 409 173C436.3 181 463.7 187 491 198C518.3 209 545.7 225 573 211C600.3 197 627.7 153 654.8 156C682 159 709 209 736.2 223C763.3 237 790.7 215 818 196C845.3 177 872.7 161 886.3 153L900 145L900 0L886.3 0C872.7 0 845.3 0 818 0C790.7 0 763.3 0 736.2 0C709 0 682 0 654.8 0C627.7 0 600.3 0 573 0C545.7 0 518.3 0 491 0C463.7 0 436.3 0 409 0C381.7 0 354.3 0 327 0C299.7 0 272.3 0 245.2 0C218 0 191 0 163.8 0C136.7 0 109.3 0 82 0C54.7 0 27.3 0 13.7 0L0 0Z" fill="#8b1542"></path><path d="M0 253L13.7 244C27.3 235 54.7 217 82 226C109.3 235 136.7 271 163.8 278C191 285 218 263 245.2 254C272.3 245 299.7 249 327 252C354.3 255 381.7 257 409 254C436.3 251 463.7 243 491 253C518.3 263 545.7 291 573 288C600.3 285 627.7 251 654.8 252C682 253 709 289 736.2 304C763.3 319 790.7 313 818 291C845.3 269 872.7 231 886.3 212L900 193L900 143L886.3 151C872.7 159 845.3 175 818 194C790.7 213 763.3 235 736.2 221C709 207 682 157 654.8 154C627.7 151 600.3 195 573 209C545.7 223 518.3 207 491 196C463.7 185 436.3 179 409 171C381.7 163 354.3 153 327 145C299.7 137 272.3 131 245.2 142C218 153 191 181 163.8 185C136.7 189 109.3 169 82 156C54.7 143 27.3 137 13.7 134L0 131Z" fill="#700a32"></path><path d="M0 337L13.7 330C27.3 323 54.7 309 82 319C109.3 329 136.7 363 163.8 363C191 363 218 329 245.2 322C272.3 315 299.7 335 327 336C354.3 337 381.7 319 409 316C436.3 313 463.7 325 491 339C518.3 353 545.7 369 573 357C600.3 345 627.7 305 654.8 312C682 319 709 373 736.2 391C763.3 409 790.7 391 818 367C845.3 343 872.7 313 886.3 298L900 283L900 191L886.3 210C872.7 229 845.3 267 818 289C790.7 311 763.3 317 736.2 302C709 287 682 251 654.8 250C627.7 249 600.3 283 573 286C545.7 289 518.3 261 491 251C463.7 241 436.3 249 409 252C381.7 255 354.3 253 327 250C299.7 247 272.3 243 245.2 252C218 261 191 283 163.8 276C136.7 269 109.3 233 82 224C54.7 215 27.3 233 13.7 242L0 251Z" fill="#570123"></path><path d="M0 445L13.7 447C27.3 449 54.7 453 82 457C109.3 461 136.7 465 163.8 450C191 435 218 401 245.2 391C272.3 381 299.7 395 327 394C354.3 393 381.7 377 409 387C436.3 397 463.7 433 491 446C518.3 459 545.7 449 573 438C600.3 427 627.7 415 654.8 422C682 429 709 455 736.2 474C763.3 493 790.7 505 818 489C845.3 473 872.7 429 886.3 407L900 385L900 281L886.3 296C872.7 311 845.3 341 818 365C790.7 389 763.3 407 736.2 389C709 371 682 317 654.8 310C627.7 303 600.3 343 573 355C545.7 367 518.3 351 491 337C463.7 323 436.3 311 409 314C381.7 317 354.3 335 327 334C299.7 333 272.3 313 245.2 320C218 327 191 361 163.8 361C136.7 361 109.3 327 82 317C54.7 307 27.3 321 13.7 328L0 335Z" fill="#4b0521"></path><path d="M0 601L13.7 601C27.3 601 54.7 601 82 601C109.3 601 136.7 601 163.8 601C191 601 218 601 245.2 601C272.3 601 299.7 601 327 601C354.3 601 381.7 601 409 601C436.3 601 463.7 601 491 601C518.3 601 545.7 601 573 601C600.3 601 627.7 601 654.8 601C682 601 709 601 736.2 601C763.3 601 790.7 601 818 601C845.3 601 872.7 601 886.3 601L900 601L900 383L886.3 405C872.7 427 845.3 471 818 487C790.7 503 763.3 491 736.2 472C709 453 682 427 654.8 420C627.7 413 600.3 425 573 436C545.7 447 518.3 457 491 444C463.7 431 436.3 395 409 385C381.7 375 354.3 391 327 392C299.7 393 272.3 379 245.2 389C218 399 191 433 163.8 448C136.7 463 109.3 459 82 455C54.7 451 27.3 447 13.7 445L0 443Z" fill="#40071e"></path></svg>