<svg id="visual" viewBox="0 0 900 600" width="900" height="600" xmlns="http://www.w3.org/2000/svg" xmlns:xlink="http://www.w3.org/1999/xlink" version="1.1"><rect x="0" y="0" width="900" height="600" fill="#001220"></rect><defs><linearGradient id="grad1_0" x1="33.3%" y1="0%" x2="100%" y2="100%"><stop offset="20%" stop-color="#001220" stop-opacity="1"></stop><stop offset="80%" stop-color="#001220" stop-opacity="1"></stop></linearGradient></defs><defs><linearGradient id="grad2_0" x1="0%" y1="0%" x2="66.7%" y2="100%"><stop offset="20%" stop-color="#001220" stop-opacity="1"></stop><stop offset="80%" stop-color="#001220" stop-opacity="1"></stop></linearGradient></defs><g transform="translate(900, 0)"><path d="M0 405.6C-41.2 373 -82.4 340.4 -135.1 326.1C-187.7 311.9 -251.8 316 -286.8 286.8C-321.8 257.7 -327.8 195.3 -342.8 142C-357.7 88.6 -381.7 44.3 -405.6 0L0 0Z" fill="#FBAE3C"></path></g><g transform="translate(0, 600)"><path d="M0 -405.6C55.5 -403.4 111 -401.1 155.2 -374.7C199.4 -348.4 232.4 -297.8 252.4 -252.4C272.5 -207 279.6 -166.7 303 -125.5C326.4 -84.3 366 -42.1 405.6 0L0 0Z" fill="#FBAE3C"></path></g></svg>