<svg id="visual" viewBox="0 0 900 600" width="900" height="600" xmlns="http://www.w3.org/2000/svg" xmlns:xlink="http://www.w3.org/1999/xlink" version="1.1"><path d="M0 73L13.7 87C27.3 101 54.7 129 82 137C109.3 145 136.7 133 163.8 129C191 125 218 129 245.2 145C272.3 161 299.7 189 327 184C354.3 179 381.7 141 409 130C436.3 119 463.7 135 491 137C518.3 139 545.7 127 573 139C600.3 151 627.7 187 654.8 199C682 211 709 199 736.2 177C763.3 155 790.7 123 818 121C845.3 119 872.7 147 886.3 161L900 175L900 0L886.3 0C872.7 0 845.3 0 818 0C790.7 0 763.3 0 736.2 0C709 0 682 0 654.8 0C627.7 0 600.3 0 573 0C545.7 0 518.3 0 491 0C463.7 0 436.3 0 409 0C381.7 0 354.3 0 327 0C299.7 0 272.3 0 245.2 0C218 0 191 0 163.8 0C136.7 0 109.3 0 82 0C54.7 0 27.3 0 13.7 0L0 0Z" fill="#ffeefa"></path><path d="M0 121L13.7 144C27.3 167 54.7 213 82 219C109.3 225 136.7 191 163.8 187C191 183 218 209 245.2 230C272.3 251 299.7 267 327 252C354.3 237 381.7 191 409 178C436.3 165 463.7 185 491 192C518.3 199 545.7 193 573 206C600.3 219 627.7 251 654.8 266C682 281 709 279 736.2 255C763.3 231 790.7 185 818 180C845.3 175 872.7 211 886.3 229L900 247L900 173L886.3 159C872.7 145 845.3 117 818 119C790.7 121 763.3 153 736.2 175C709 197 682 209 654.8 197C627.7 185 600.3 149 573 137C545.7 125 518.3 137 491 135C463.7 133 436.3 117 409 128C381.7 139 354.3 177 327 182C299.7 187 272.3 159 245.2 143C218 127 191 123 163.8 127C136.7 131 109.3 143 82 135C54.7 127 27.3 99 13.7 85L0 71Z" fill="#ffdef5"></path><path d="M0 253L13.7 272C27.3 291 54.7 329 82 329C109.3 329 136.7 291 163.8 290C191 289 218 325 245.2 340C272.3 355 299.7 349 327 331C354.3 313 381.7 283 409 286C436.3 289 463.7 325 491 324C518.3 323 545.7 285 573 287C600.3 289 627.7 331 654.8 349C682 367 709 361 736.2 340C763.3 319 790.7 283 818 283C845.3 283 872.7 319 886.3 337L900 355L900 245L886.3 227C872.7 209 845.3 173 818 178C790.7 183 763.3 229 736.2 253C709 277 682 279 654.8 264C627.7 249 600.3 217 573 204C545.7 191 518.3 197 491 190C463.7 183 436.3 163 409 176C381.7 189 354.3 235 327 250C299.7 265 272.3 249 245.2 228C218 207 191 181 163.8 185C136.7 189 109.3 223 82 217C54.7 211 27.3 165 13.7 142L0 119Z" fill="#ffc7ee"></path><path d="M0 373L13.7 390C27.3 407 54.7 441 82 435C109.3 429 136.7 383 163.8 371C191 359 218 381 245.2 402C272.3 423 299.7 443 327 427C354.3 411 381.7 359 409 358C436.3 357 463.7 407 491 406C518.3 405 545.7 353 573 348C600.3 343 627.7 385 654.8 410C682 435 709 443 736.2 430C763.3 417 790.7 383 818 387C845.3 391 872.7 433 886.3 454L900 475L900 353L886.3 335C872.7 317 845.3 281 818 281C790.7 281 763.3 317 736.2 338C709 359 682 365 654.8 347C627.7 329 600.3 287 573 285C545.7 283 518.3 321 491 322C463.7 323 436.3 287 409 284C381.7 281 354.3 311 327 329C299.7 347 272.3 353 245.2 338C218 323 191 287 163.8 288C136.7 289 109.3 327 82 327C54.7 327 27.3 289 13.7 270L0 251Z" fill="#ffdef5"></path><path d="M0 601L13.7 601C27.3 601 54.7 601 82 601C109.3 601 136.7 601 163.8 601C191 601 218 601 245.2 601C272.3 601 299.7 601 327 601C354.3 601 381.7 601 409 601C436.3 601 463.7 601 491 601C518.3 601 545.7 601 573 601C600.3 601 627.7 601 654.8 601C682 601 709 601 736.2 601C763.3 601 790.7 601 818 601C845.3 601 872.7 601 886.3 601L900 601L900 473L886.3 452C872.7 431 845.3 389 818 385C790.7 381 763.3 415 736.2 428C709 441 682 433 654.8 408C627.7 383 600.3 341 573 346C545.7 351 518.3 403 491 404C463.7 405 436.3 355 409 356C381.7 357 354.3 409 327 425C299.7 441 272.3 421 245.2 400C218 379 191 357 163.8 369C136.7 381 109.3 427 82 433C54.7 439 27.3 405 13.7 388L0 371Z" fill="#ffeefa"></path></svg>