<svg id="visual" viewBox="0 0 900 600" width="900" height="600" xmlns="http://www.w3.org/2000/svg" xmlns:xlink="http://www.w3.org/1999/xlink" version="1.1"><rect x="0" y="0" width="900" height="600" fill="#001220"></rect><path d="M0 407L21.5 410.3C43 413.7 86 420.3 128.8 423.8C171.7 427.3 214.3 427.7 257.2 415.5C300 403.3 343 378.7 385.8 376.3C428.7 374 471.3 394 514.2 404C557 414 600 414 642.8 417.5C685.7 421 728.3 428 771.2 430.8C814 433.7 857 432.3 878.5 431.7L900 431L900 601L878.5 601C857 601 814 601 771.2 601C728.3 601 685.7 601 642.8 601C600 601 557 601 514.2 601C471.3 601 428.7 601 385.8 601C343 601 300 601 257.2 601C214.3 601 171.7 601 128.8 601C86 601 43 601 21.5 601L0 601Z" fill="#fa7268"></path><path d="M0 426L21.5 428.3C43 430.7 86 435.3 128.8 443.3C171.7 451.3 214.3 462.7 257.2 462.3C300 462 343 450 385.8 441.2C428.7 432.3 471.3 426.7 514.2 428.8C557 431 600 441 642.8 446.8C685.7 452.7 728.3 454.3 771.2 447.5C814 440.7 857 425.3 878.5 417.7L900 410L900 601L878.5 601C857 601 814 601 771.2 601C728.3 601 685.7 601 642.8 601C600 601 557 601 514.2 601C471.3 601 428.7 601 385.8 601C343 601 300 601 257.2 601C214.3 601 171.7 601 128.8 601C86 601 43 601 21.5 601L0 601Z" fill="#ef5f67"></path><path d="M0 495L21.5 491C43 487 86 479 128.8 481.7C171.7 484.3 214.3 497.7 257.2 504.3C300 511 343 511 385.8 503.8C428.7 496.7 471.3 482.3 514.2 477.7C557 473 600 478 642.8 484.8C685.7 491.7 728.3 500.3 771.2 496.2C814 492 857 475 878.5 466.5L900 458L900 601L878.5 601C857 601 814 601 771.2 601C728.3 601 685.7 601 642.8 601C600 601 557 601 514.2 601C471.3 601 428.7 601 385.8 601C343 601 300 601 257.2 601C214.3 601 171.7 601 128.8 601C86 601 43 601 21.5 601L0 601Z" fill="#e34c67"></path><path d="M0 518L21.5 518.5C43 519 86 520 128.8 518.2C171.7 516.3 214.3 511.7 257.2 511.3C300 511 343 515 385.8 519.2C428.7 523.3 471.3 527.7 514.2 523.3C557 519 600 506 642.8 507.3C685.7 508.7 728.3 524.3 771.2 527.7C814 531 857 522 878.5 517.5L900 513L900 601L878.5 601C857 601 814 601 771.2 601C728.3 601 685.7 601 642.8 601C600 601 557 601 514.2 601C471.3 601 428.7 601 385.8 601C343 601 300 601 257.2 601C214.3 601 171.7 601 128.8 601C86 601 43 601 21.5 601L0 601Z" fill="#d53867"></path><path d="M0 574L21.5 566C43 558 86 542 128.8 536.3C171.7 530.7 214.3 535.3 257.2 538.8C300 542.3 343 544.7 385.8 546.5C428.7 548.3 471.3 549.7 514.2 548.5C557 547.3 600 543.7 642.8 547.5C685.7 551.3 728.3 562.7 771.2 560.3C814 558 857 542 878.5 534L900 526L900 601L878.5 601C857 601 814 601 771.2 601C728.3 601 685.7 601 642.8 601C600 601 557 601 514.2 601C471.3 601 428.7 601 385.8 601C343 601 300 601 257.2 601C214.3 601 171.7 601 128.8 601C86 601 43 601 21.5 601L0 601Z" fill="#c62368"></path></svg>