<svg id="visual" viewBox="0 0 900 600" width="900" height="600" xmlns="http://www.w3.org/2000/svg" xmlns:xlink="http://www.w3.org/1999/xlink" version="1.1"><path d="M0 151L82 151L82 127L164 127L164 79L245 79L245 73L327 73L327 67L409 67L409 103L491 103L491 181L573 181L573 145L655 145L655 73L736 73L736 145L818 145L818 67L900 67L900 139L900 0L900 0L818 0L818 0L736 0L736 0L655 0L655 0L573 0L573 0L491 0L491 0L409 0L409 0L327 0L327 0L245 0L245 0L164 0L164 0L82 0L82 0L0 0Z" fill="#fa7268"></path><path d="M0 283L82 283L82 295L164 295L164 205L245 205L245 223L327 223L327 283L409 283L409 289L491 289L491 409L573 409L573 295L655 295L655 301L736 301L736 283L818 283L818 283L900 283L900 283L900 137L900 65L818 65L818 143L736 143L736 71L655 71L655 143L573 143L573 179L491 179L491 101L409 101L409 65L327 65L327 71L245 71L245 77L164 77L164 125L82 125L82 149L0 149Z" fill="#ea5e66"></path><path d="M0 325L82 325L82 331L164 331L164 301L245 301L245 289L327 289L327 379L409 379L409 349L491 349L491 451L573 451L573 349L655 349L655 385L736 385L736 337L818 337L818 325L900 325L900 367L900 281L900 281L818 281L818 281L736 281L736 299L655 299L655 293L573 293L573 407L491 407L491 287L409 287L409 281L327 281L327 221L245 221L245 203L164 203L164 293L82 293L82 281L0 281Z" fill="#d84a64"></path><path d="M0 499L82 499L82 511L164 511L164 499L245 499L245 529L327 529L327 499L409 499L409 529L491 529L491 541L573 541L573 481L655 481L655 481L736 481L736 475L818 475L818 559L900 559L900 493L900 365L900 323L818 323L818 335L736 335L736 383L655 383L655 347L573 347L573 449L491 449L491 347L409 347L409 377L327 377L327 287L245 287L245 299L164 299L164 329L82 329L82 323L0 323Z" fill="#c53762"></path><path d="M0 601L82 601L82 601L164 601L164 601L245 601L245 601L327 601L327 601L409 601L409 601L491 601L491 601L573 601L573 601L655 601L655 601L736 601L736 601L818 601L818 601L900 601L900 601L900 491L900 557L818 557L818 473L736 473L736 479L655 479L655 479L573 479L573 539L491 539L491 527L409 527L409 497L327 497L327 527L245 527L245 497L164 497L164 509L82 509L82 497L0 497Z" fill="#b0235f"></path></svg>