<svg id="visual" viewBox="0 0 900 600" width="900" height="600" xmlns="http://www.w3.org/2000/svg" xmlns:xlink="http://www.w3.org/1999/xlink" version="1.1"><rect x="0" y="0" width="900" height="600" fill="#001220"></rect><path d="M0 467L16.7 469.5C33.3 472 66.7 477 100 481.5C133.3 486 166.7 490 200 492.2C233.3 494.3 266.7 494.7 300 493.3C333.3 492 366.7 489 400 472.2C433.3 455.3 466.7 424.7 500 421.8C533.3 419 566.7 444 600 447.2C633.3 450.3 666.7 431.7 700 430.2C733.3 428.7 766.7 444.3 800 459.7C833.3 475 866.7 490 883.3 497.5L900 505L900 601L883.3 601C866.7 601 833.3 601 800 601C766.7 601 733.3 601 700 601C666.7 601 633.3 601 600 601C566.7 601 533.3 601 500 601C466.7 601 433.3 601 400 601C366.7 601 333.3 601 300 601C266.7 601 233.3 601 200 601C166.7 601 133.3 601 100 601C66.7 601 33.3 601 16.7 601L0 601Z" fill="#301974"></path><path d="M0 414L16.7 423.2C33.3 432.3 66.7 450.7 100 452C133.3 453.3 166.7 437.7 200 439.2C233.3 440.7 266.7 459.3 300 464.2C333.3 469 366.7 460 400 462.2C433.3 464.3 466.7 477.7 500 483.2C533.3 488.7 566.7 486.3 600 477.2C633.3 468 666.7 452 700 452.8C733.3 453.7 766.7 471.3 800 467.7C833.3 464 866.7 439 883.3 426.5L900 414L900 601L883.3 601C866.7 601 833.3 601 800 601C766.7 601 733.3 601 700 601C666.7 601 633.3 601 600 601C566.7 601 533.3 601 500 601C466.7 601 433.3 601 400 601C366.7 601 333.3 601 300 601C266.7 601 233.3 601 200 601C166.7 601 133.3 601 100 601C66.7 601 33.3 601 16.7 601L0 601Z" fill="#2b196b"></path><path d="M0 439L16.7 441C33.3 443 66.7 447 100 449.7C133.3 452.3 166.7 453.7 200 456.5C233.3 459.3 266.7 463.7 300 469.5C333.3 475.3 366.7 482.7 400 485.7C433.3 488.7 466.7 487.3 500 491.7C533.3 496 566.7 506 600 502.7C633.3 499.3 666.7 482.7 700 481.3C733.3 480 766.7 494 800 495C833.3 496 866.7 484 883.3 478L900 472L900 601L883.3 601C866.7 601 833.3 601 800 601C766.7 601 733.3 601 700 601C666.7 601 633.3 601 600 601C566.7 601 533.3 601 500 601C466.7 601 433.3 601 400 601C366.7 601 333.3 601 300 601C266.7 601 233.3 601 200 601C166.7 601 133.3 601 100 601C66.7 601 33.3 601 16.7 601L0 601Z" fill="#271862"></path><path d="M0 514L16.7 512.7C33.3 511.3 66.7 508.7 100 508.8C133.3 509 166.7 512 200 512.2C233.3 512.3 266.7 509.7 300 502.2C333.3 494.7 366.7 482.3 400 478.3C433.3 474.3 466.7 478.7 500 474.8C533.3 471 566.7 459 600 458.7C633.3 458.3 666.7 469.7 700 478C733.3 486.3 766.7 491.7 800 498.2C833.3 504.7 866.7 512.3 883.3 516.2L900 520L900 601L883.3 601C866.7 601 833.3 601 800 601C766.7 601 733.3 601 700 601C666.7 601 633.3 601 600 601C566.7 601 533.3 601 500 601C466.7 601 433.3 601 400 601C366.7 601 333.3 601 300 601C266.7 601 233.3 601 200 601C166.7 601 133.3 601 100 601C66.7 601 33.3 601 16.7 601L0 601Z" fill="#231759"></path><path d="M0 464L16.7 467.2C33.3 470.3 66.7 476.7 100 487C133.3 497.3 166.7 511.7 200 513.2C233.3 514.7 266.7 503.3 300 492.8C333.3 482.3 366.7 472.7 400 473.5C433.3 474.3 466.7 485.7 500 495.2C533.3 504.7 566.7 512.3 600 517.8C633.3 523.3 666.7 526.7 700 523.8C733.3 521 766.7 512 800 499.3C833.3 486.7 866.7 470.3 883.3 462.2L900 454L900 601L883.3 601C866.7 601 833.3 601 800 601C766.7 601 733.3 601 700 601C666.7 601 633.3 601 600 601C566.7 601 533.3 601 500 601C466.7 601 433.3 601 400 601C366.7 601 333.3 601 300 601C266.7 601 233.3 601 200 601C166.7 601 133.3 601 100 601C66.7 601 33.3 601 16.7 601L0 601Z" fill="#1f164f"></path><path d="M0 512L16.7 514.2C33.3 516.3 66.7 520.7 100 523.7C133.3 526.7 166.7 528.3 200 529.7C233.3 531 266.7 532 300 531.7C333.3 531.3 366.7 529.7 400 530.8C433.3 532 466.7 536 500 533.3C533.3 530.7 566.7 521.3 600 520.2C633.3 519 666.7 526 700 524.5C733.3 523 766.7 513 800 506C833.3 499 866.7 495 883.3 493L900 491L900 601L883.3 601C866.7 601 833.3 601 800 601C766.7 601 733.3 601 700 601C666.7 601 633.3 601 600 601C566.7 601 533.3 601 500 601C466.7 601 433.3 601 400 601C366.7 601 333.3 601 300 601C266.7 601 233.3 601 200 601C166.7 601 133.3 601 100 601C66.7 601 33.3 601 16.7 601L0 601Z" fill="#1c1546"></path><path d="M0 508L16.7 508.8C33.3 509.7 66.7 511.3 100 515.7C133.3 520 166.7 527 200 529.5C233.3 532 266.7 530 300 532C333.3 534 366.7 540 400 542.7C433.3 545.3 466.7 544.7 500 540.2C533.3 535.7 566.7 527.3 600 518.3C633.3 509.3 666.7 499.7 700 502.5C733.3 505.3 766.7 520.7 800 525.7C833.3 530.7 866.7 525.3 883.3 522.7L900 520L900 601L883.3 601C866.7 601 833.3 601 800 601C766.7 601 733.3 601 700 601C666.7 601 633.3 601 600 601C566.7 601 533.3 601 500 601C466.7 601 433.3 601 400 601C366.7 601 333.3 601 300 601C266.7 601 233.3 601 200 601C166.7 601 133.3 601 100 601C66.7 601 33.3 601 16.7 601L0 601Z" fill="#19133e"></path><path d="M0 529L16.7 525.2C33.3 521.3 66.7 513.7 100 516.2C133.3 518.7 166.7 531.3 200 536C233.3 540.7 266.7 537.3 300 537C333.3 536.7 366.7 539.3 400 534.7C433.3 530 466.7 518 500 514.2C533.3 510.3 566.7 514.7 600 521.7C633.3 528.7 666.7 538.3 700 537.5C733.3 536.7 766.7 525.3 800 518.5C833.3 511.7 866.7 509.3 883.3 508.2L900 507L900 601L883.3 601C866.7 601 833.3 601 800 601C766.7 601 733.3 601 700 601C666.7 601 633.3 601 600 601C566.7 601 533.3 601 500 601C466.7 601 433.3 601 400 601C366.7 601 333.3 601 300 601C266.7 601 233.3 601 200 601C166.7 601 133.3 601 100 601C66.7 601 33.3 601 16.7 601L0 601Z" fill="#161235"></path><path d="M0 533L16.7 535.8C33.3 538.7 66.7 544.3 100 543.8C133.3 543.3 166.7 536.7 200 533.8C233.3 531 266.7 532 300 535.3C333.3 538.7 366.7 544.3 400 543.2C433.3 542 466.7 534 500 536.2C533.3 538.3 566.7 550.7 600 551C633.3 551.3 666.7 539.7 700 535.8C733.3 532 766.7 536 800 538.7C833.3 541.3 866.7 542.7 883.3 543.3L900 544L900 601L883.3 601C866.7 601 833.3 601 800 601C766.7 601 733.3 601 700 601C666.7 601 633.3 601 600 601C566.7 601 533.3 601 500 601C466.7 601 433.3 601 400 601C366.7 601 333.3 601 300 601C266.7 601 233.3 601 200 601C166.7 601 133.3 601 100 601C66.7 601 33.3 601 16.7 601L0 601Z" fill="#140f2c"></path><path d="M0 536L16.7 537.5C33.3 539 66.7 542 100 546.8C133.3 551.7 166.7 558.3 200 559.2C233.3 560 266.7 555 300 551.8C333.3 548.7 366.7 547.3 400 549.3C433.3 551.3 466.7 556.7 500 560.5C533.3 564.3 566.7 566.7 600 566.2C633.3 565.7 666.7 562.3 700 556.7C733.3 551 766.7 543 800 541.5C833.3 540 866.7 545 883.3 547.5L900 550L900 601L883.3 601C866.7 601 833.3 601 800 601C766.7 601 733.3 601 700 601C666.7 601 633.3 601 600 601C566.7 601 533.3 601 500 601C466.7 601 433.3 601 400 601C366.7 601 333.3 601 300 601C266.7 601 233.3 601 200 601C166.7 601 133.3 601 100 601C66.7 601 33.3 601 16.7 601L0 601Z" fill="#120b24"></path><path d="M0 575L16.7 573.3C33.3 571.7 66.7 568.3 100 565C133.3 561.7 166.7 558.3 200 558.5C233.3 558.7 266.7 562.3 300 564.2C333.3 566 366.7 566 400 563.8C433.3 561.7 466.7 557.3 500 559.2C533.3 561 566.7 569 600 568.8C633.3 568.7 666.7 560.3 700 559.5C733.3 558.7 766.7 565.3 800 568.2C833.3 571 866.7 570 883.3 569.5L900 569L900 601L883.3 601C866.7 601 833.3 601 800 601C766.7 601 733.3 601 700 601C666.7 601 633.3 601 600 601C566.7 601 533.3 601 500 601C466.7 601 433.3 601 400 601C366.7 601 333.3 601 300 601C266.7 601 233.3 601 200 601C166.7 601 133.3 601 100 601C66.7 601 33.3 601 16.7 601L0 601Z" fill="#0e071c"></path><path d="M0 576L16.7 575.7C33.3 575.3 66.7 574.7 100 573.8C133.3 573 166.7 572 200 570.8C233.3 569.7 266.7 568.3 300 570C333.3 571.7 366.7 576.3 400 577.7C433.3 579 466.7 577 500 574.7C533.3 572.3 566.7 569.7 600 570.3C633.3 571 666.7 575 700 576C733.3 577 766.7 575 800 575.5C833.3 576 866.7 579 883.3 580.5L900 582L900 601L883.3 601C866.7 601 833.3 601 800 601C766.7 601 733.3 601 700 601C666.7 601 633.3 601 600 601C566.7 601 533.3 601 500 601C466.7 601 433.3 601 400 601C366.7 601 333.3 601 300 601C266.7 601 233.3 601 200 601C166.7 601 133.3 601 100 601C66.7 601 33.3 601 16.7 601L0 601Z" fill="#070313"></path></svg>