<svg id="visual" viewBox="0 0 900 600" width="900" height="600" xmlns="http://www.w3.org/2000/svg" xmlns:xlink="http://www.w3.org/1999/xlink" version="1.1"><g stroke-width="1" stroke-linejoin="bevel"><path d="M501 326L576 309L494 184Z" fill="#000000" stroke="#000000"></path><path d="M576 309L597 169L494 184Z" fill="#031c26" stroke="#031c26"></path><path d="M494 184L398 261L501 326Z" fill="#051f29" stroke="#051f29"></path><path d="M597 169L493 106L494 184Z" fill="#00131d" stroke="#00131d"></path><path d="M494 184L393 172L398 261Z" fill="#031c26" stroke="#031c26"></path><path d="M493 106L393 172L494 184Z" fill="#000000" stroke="#000000"></path><path d="M694 214L620 127L597 169Z" fill="#08222d" stroke="#08222d"></path><path d="M597 169L620 127L493 106Z" fill="#00131d" stroke="#00131d"></path><path d="M576 309L684 284L597 169Z" fill="#000a17" stroke="#000a17"></path><path d="M427 422L479 418L501 326Z" fill="#001620" stroke="#001620"></path><path d="M501 326L479 418L576 309Z" fill="#000a17" stroke="#000a17"></path><path d="M576 309L636 424L684 284Z" fill="#000f1a" stroke="#000f1a"></path><path d="M684 284L694 214L597 169Z" fill="#000000" stroke="#000000"></path><path d="M398 261L427 422L501 326Z" fill="#00131d" stroke="#00131d"></path><path d="M489 471L636 424L479 418Z" fill="#001923" stroke="#001923"></path><path d="M479 418L636 424L576 309Z" fill="#0e2833" stroke="#0e2833"></path><path d="M288 174L319 312L398 261Z" fill="#08222d" stroke="#08222d"></path><path d="M398 261L319 312L427 422Z" fill="#0b2530" stroke="#0b2530"></path><path d="M427 422L489 471L479 418Z" fill="#0e2833" stroke="#0e2833"></path><path d="M668 520L691 423L636 424Z" fill="#001620" stroke="#001620"></path><path d="M636 424L691 423L684 284Z" fill="#000a17" stroke="#000a17"></path><path d="M684 284L774 308L694 214Z" fill="#051f29" stroke="#051f29"></path><path d="M410 0L361 76L493 106Z" fill="#0b2530" stroke="#0b2530"></path><path d="M493 106L361 76L393 172Z" fill="#000000" stroke="#000000"></path><path d="M393 172L288 174L398 261Z" fill="#031c26" stroke="#031c26"></path><path d="M427 422L400 465L489 471Z" fill="#000f1a" stroke="#000f1a"></path><path d="M337 419L400 465L427 422Z" fill="#08222d" stroke="#08222d"></path><path d="M361 76L288 174L393 172Z" fill="#000a17" stroke="#000a17"></path><path d="M319 312L337 419L427 422Z" fill="#001620" stroke="#001620"></path><path d="M338 477L337 419L192 471Z" fill="#0e2833" stroke="#0e2833"></path><path d="M694 214L703 75L620 127Z" fill="#051f29" stroke="#051f29"></path><path d="M583 0L518 0L493 106Z" fill="#00131d" stroke="#00131d"></path><path d="M783 111L703 75L694 214Z" fill="#001620" stroke="#001620"></path><path d="M583 0L493 106L620 127Z" fill="#08222d" stroke="#08222d"></path><path d="M780 367L774 308L684 284Z" fill="#00131d" stroke="#00131d"></path><path d="M703 75L583 0L620 127Z" fill="#051f29" stroke="#051f29"></path><path d="M497 600L582 515L489 471Z" fill="#08222d" stroke="#08222d"></path><path d="M489 471L582 515L636 424Z" fill="#001620" stroke="#001620"></path><path d="M774 308L791 182L694 214Z" fill="#0e2833" stroke="#0e2833"></path><path d="M518 0L410 0L493 106Z" fill="#000f1a" stroke="#000f1a"></path><path d="M361 76L303 82L288 174Z" fill="#00131d" stroke="#00131d"></path><path d="M322 0L303 82L361 76Z" fill="#000a17" stroke="#000a17"></path><path d="M830 482L780 367L691 423Z" fill="#001923" stroke="#001923"></path><path d="M691 423L780 367L684 284Z" fill="#001620" stroke="#001620"></path><path d="M774 308L900 223L791 182Z" fill="#0e2833" stroke="#0e2833"></path><path d="M337 419L338 477L400 465Z" fill="#08222d" stroke="#08222d"></path><path d="M436 600L497 600L489 471Z" fill="#0b2530" stroke="#0b2530"></path><path d="M190 380L337 419L319 312Z" fill="#001620" stroke="#001620"></path><path d="M791 182L783 111L694 214Z" fill="#08222d" stroke="#08222d"></path><path d="M703 75L705 0L583 0Z" fill="#031c26" stroke="#031c26"></path><path d="M582 515L668 520L636 424Z" fill="#000f1a" stroke="#000f1a"></path><path d="M229 92L221 214L288 174Z" fill="#000f1a" stroke="#000f1a"></path><path d="M288 174L221 214L319 312Z" fill="#001923" stroke="#001923"></path><path d="M799 0L705 0L703 75Z" fill="#051f29" stroke="#051f29"></path><path d="M410 0L322 0L361 76Z" fill="#001620" stroke="#001620"></path><path d="M303 82L229 92L288 174Z" fill="#0e2833" stroke="#0e2833"></path><path d="M322 0L229 92L303 82Z" fill="#08222d" stroke="#08222d"></path><path d="M436 600L489 471L400 465Z" fill="#000a17" stroke="#000a17"></path><path d="M582 515L616 600L668 520Z" fill="#051f29" stroke="#051f29"></path><path d="M86 218L170 291L221 214Z" fill="#0b2530" stroke="#0b2530"></path><path d="M221 214L170 291L319 312Z" fill="#051f29" stroke="#051f29"></path><path d="M170 291L190 380L319 312Z" fill="#00131d" stroke="#00131d"></path><path d="M338 477L436 600L400 465Z" fill="#051f29" stroke="#051f29"></path><path d="M290 600L436 600L338 477Z" fill="#001620" stroke="#001620"></path><path d="M497 600L616 600L582 515Z" fill="#08222d" stroke="#08222d"></path><path d="M668 520L830 482L691 423Z" fill="#000000" stroke="#000000"></path><path d="M900 95L799 0L783 111Z" fill="#00131d" stroke="#00131d"></path><path d="M783 111L799 0L703 75Z" fill="#00131d" stroke="#00131d"></path><path d="M900 327L900 223L774 308Z" fill="#000f1a" stroke="#000f1a"></path><path d="M791 182L900 95L783 111Z" fill="#000000" stroke="#000000"></path><path d="M900 327L774 308L780 367Z" fill="#0b2530" stroke="#0b2530"></path><path d="M776 600L830 482L668 520Z" fill="#031c26" stroke="#031c26"></path><path d="M900 372L900 327L780 367Z" fill="#000f1a" stroke="#000f1a"></path><path d="M616 600L690 600L668 520Z" fill="#001923" stroke="#001923"></path><path d="M830 482L900 372L780 367Z" fill="#08222d" stroke="#08222d"></path><path d="M100 373L192 471L190 380Z" fill="#08222d" stroke="#08222d"></path><path d="M190 380L192 471L337 419Z" fill="#001923" stroke="#001923"></path><path d="M900 223L900 95L791 182Z" fill="#0b2530" stroke="#0b2530"></path><path d="M239 600L290 600L338 477Z" fill="#001620" stroke="#001620"></path><path d="M690 600L776 600L668 520Z" fill="#0b2530" stroke="#0b2530"></path><path d="M830 482L900 515L900 372Z" fill="#0e2833" stroke="#0e2833"></path><path d="M322 0L177 0L229 92Z" fill="#000f1a" stroke="#000f1a"></path><path d="M98 102L86 218L221 214Z" fill="#031c26" stroke="#031c26"></path><path d="M98 102L221 214L229 92Z" fill="#051f29" stroke="#051f29"></path><path d="M170 291L100 373L190 380Z" fill="#001620" stroke="#001620"></path><path d="M62 265L100 373L170 291Z" fill="#000a17" stroke="#000a17"></path><path d="M192 471L239 600L338 477Z" fill="#001923" stroke="#001923"></path><path d="M100 520L239 600L192 471Z" fill="#000000" stroke="#000000"></path><path d="M177 0L98 102L229 92Z" fill="#000a17" stroke="#000a17"></path><path d="M900 95L900 0L799 0Z" fill="#00131d" stroke="#00131d"></path><path d="M776 600L900 515L830 482Z" fill="#0b2530" stroke="#0b2530"></path><path d="M86 218L62 265L170 291Z" fill="#000f1a" stroke="#000f1a"></path><path d="M0 282L62 265L0 209Z" fill="#08222d" stroke="#08222d"></path><path d="M177 0L102 0L98 102Z" fill="#000f1a" stroke="#000f1a"></path><path d="M0 209L62 265L86 218Z" fill="#0e2833" stroke="#0e2833"></path><path d="M0 418L100 520L100 373Z" fill="#0b2530" stroke="#0b2530"></path><path d="M100 373L100 520L192 471Z" fill="#000a17" stroke="#000a17"></path><path d="M776 600L900 600L900 515Z" fill="#000f1a" stroke="#000f1a"></path><path d="M0 209L86 218L98 102Z" fill="#031c26" stroke="#031c26"></path><path d="M62 265L0 282L100 373Z" fill="#08222d" stroke="#08222d"></path><path d="M0 82L0 209L98 102Z" fill="#000a17" stroke="#000a17"></path><path d="M100 520L108 600L239 600Z" fill="#08222d" stroke="#08222d"></path><path d="M0 600L108 600L100 520Z" fill="#00131d" stroke="#00131d"></path><path d="M0 282L0 418L100 373Z" fill="#001923" stroke="#001923"></path><path d="M102 0L0 82L98 102Z" fill="#000000" stroke="#000000"></path><path d="M0 418L0 488L100 520Z" fill="#08222d" stroke="#08222d"></path><path d="M102 0L0 0L0 82Z" fill="#051f29" stroke="#051f29"></path><path d="M0 488L0 600L100 520Z" fill="#001923" stroke="#001923"></path></g></svg>