<svg id="visual" viewBox="0 0 900 600" width="900" height="600" xmlns="http://www.w3.org/2000/svg" xmlns:xlink="http://www.w3.org/1999/xlink" version="1.1"><g stroke-width="1" stroke-linejoin="bevel"><path d="M443.7 316.9L499.7 332.2L476.3 313.2Z" fill="#262e25" stroke="#262e25"></path><path d="M499.7 332.2L509.1 319.2L476.3 313.2Z" fill="#142214" stroke="#142214"></path><path d="M443.7 316.9L516.7 376.1L499.7 332.2Z" fill="#373a37" stroke="#373a37"></path><path d="M499.7 332.2L533.4 357.2L509.1 319.2Z" fill="#212b20" stroke="#212b20"></path><path d="M443.7 316.9L400.9 352.1L516.7 376.1Z" fill="#262e25" stroke="#262e25"></path><path d="M516.7 376.1L533.4 357.2L499.7 332.2Z" fill="#182518" stroke="#182518"></path><path d="M526.7 459.5L543.1 392.4L516.7 376.1Z" fill="#3c3d3b" stroke="#3c3d3b"></path><path d="M516.7 376.1L543.1 392.4L533.4 357.2Z" fill="#262e25" stroke="#262e25"></path><path d="M400.9 352.1L388.6 399.2L516.7 376.1Z" fill="#404040" stroke="#404040"></path><path d="M443.7 316.9L376.3 328.1L400.9 352.1Z" fill="#212b20" stroke="#212b20"></path><path d="M400.9 352.1L364.9 408.2L388.6 399.2Z" fill="#212b20" stroke="#212b20"></path><path d="M557.8 323.1L509.1 319.2L533.4 357.2Z" fill="#1d281c" stroke="#1d281c"></path><path d="M557.8 323.1L540.1 294.1L509.1 319.2Z" fill="#373a37" stroke="#373a37"></path><path d="M509.1 319.2L502.7 239.8L476.3 313.2Z" fill="#404040" stroke="#404040"></path><path d="M360.6 267.9L364.6 306.1L443.7 316.9Z" fill="#1d281c" stroke="#1d281c"></path><path d="M443.7 316.9L364.6 306.1L376.3 328.1Z" fill="#2a3129" stroke="#2a3129"></path><path d="M543.1 392.4L554.4 385.4L533.4 357.2Z" fill="#2e342d" stroke="#2e342d"></path><path d="M554.4 385.4L557.8 323.1L533.4 357.2Z" fill="#333732" stroke="#333732"></path><path d="M620.4 312.1L560.1 317.9L557.8 323.1Z" fill="#262e25" stroke="#262e25"></path><path d="M557.8 323.1L560.1 317.9L540.1 294.1Z" fill="#333732" stroke="#333732"></path><path d="M457.3 236.9L443.7 316.9L476.3 313.2Z" fill="#404040" stroke="#404040"></path><path d="M376.3 328.1L364.9 408.2L400.9 352.1Z" fill="#2e342d" stroke="#2e342d"></path><path d="M388.6 399.2L448.3 461.4L516.7 376.1Z" fill="#142214" stroke="#142214"></path><path d="M543.1 392.4L575.4 424.5L554.4 385.4Z" fill="#182518" stroke="#182518"></path><path d="M264.2 381.1L364.9 408.2L376.3 328.1Z" fill="#2a3129" stroke="#2a3129"></path><path d="M388.6 399.2L436.9 473.4L448.3 461.4Z" fill="#3c3d3b" stroke="#3c3d3b"></path><path d="M502.7 239.8L469.1 237.8L476.3 313.2Z" fill="#3c3d3b" stroke="#3c3d3b"></path><path d="M469.1 237.8L457.3 236.9L476.3 313.2Z" fill="#142214" stroke="#142214"></path><path d="M520.4 236.6L502.7 239.8L540.1 294.1Z" fill="#333732" stroke="#333732"></path><path d="M540.1 294.1L502.7 239.8L509.1 319.2Z" fill="#182518" stroke="#182518"></path><path d="M469.1 237.8L474.1 205.6L457.3 236.9Z" fill="#3c3d3b" stroke="#3c3d3b"></path><path d="M448.3 461.4L501.7 467.4L516.7 376.1Z" fill="#373a37" stroke="#373a37"></path><path d="M501.7 467.4L526.7 459.5L516.7 376.1Z" fill="#142214" stroke="#142214"></path><path d="M358.6 433.4L436.9 473.4L388.6 399.2Z" fill="#333732" stroke="#333732"></path><path d="M448.3 461.4L463.1 497.7L501.7 467.4Z" fill="#1d281c" stroke="#1d281c"></path><path d="M584.4 267.8L520.4 236.6L540.1 294.1Z" fill="#212b20" stroke="#212b20"></path><path d="M502.7 239.8L474.1 205.6L469.1 237.8Z" fill="#2e342d" stroke="#2e342d"></path><path d="M526.7 459.5L575.4 424.5L543.1 392.4Z" fill="#373a37" stroke="#373a37"></path><path d="M626.2 369.2L620.4 312.1L557.8 323.1Z" fill="#1d281c" stroke="#1d281c"></path><path d="M319.2 452.4L358.6 433.4L364.9 408.2Z" fill="#2a3129" stroke="#2a3129"></path><path d="M364.9 408.2L358.6 433.4L388.6 399.2Z" fill="#404040" stroke="#404040"></path><path d="M457.3 236.9L360.6 267.9L443.7 316.9Z" fill="#212b20" stroke="#212b20"></path><path d="M364.6 306.1L266.8 316.1L376.3 328.1Z" fill="#2e342d" stroke="#2e342d"></path><path d="M337.9 229.8L348.9 270.9L360.6 267.9Z" fill="#2e342d" stroke="#2e342d"></path><path d="M360.6 267.9L348.9 270.9L364.6 306.1Z" fill="#2e342d" stroke="#2e342d"></path><path d="M428.3 554.7L463.1 497.7L436.9 473.4Z" fill="#142214" stroke="#142214"></path><path d="M436.9 473.4L463.1 497.7L448.3 461.4Z" fill="#2a3129" stroke="#2a3129"></path><path d="M501.7 467.4L517.4 487.7L526.7 459.5Z" fill="#182518" stroke="#182518"></path><path d="M463.1 497.7L517.4 487.7L501.7 467.4Z" fill="#3c3d3b" stroke="#3c3d3b"></path><path d="M595.8 489.5L626.8 436.4L575.4 424.5Z" fill="#2a3129" stroke="#2a3129"></path><path d="M520.4 236.6L474.1 205.6L502.7 239.8Z" fill="#2a3129" stroke="#2a3129"></path><path d="M377.3 192.5L337.9 229.8L360.6 267.9Z" fill="#373a37" stroke="#373a37"></path><path d="M620.4 312.1L584.4 267.8L560.1 317.9Z" fill="#2e342d" stroke="#2e342d"></path><path d="M560.1 317.9L584.4 267.8L540.1 294.1Z" fill="#2e342d" stroke="#2e342d"></path><path d="M520.4 236.6L476.3 193.8L474.1 205.6Z" fill="#1d281c" stroke="#1d281c"></path><path d="M337.9 229.8L326.2 277.8L348.9 270.9Z" fill="#404040" stroke="#404040"></path><path d="M348.9 270.9L326.2 277.8L364.6 306.1Z" fill="#212b20" stroke="#212b20"></path><path d="M523.4 148.3L476.3 193.8L520.4 236.6Z" fill="#373a37" stroke="#373a37"></path><path d="M377.3 192.5L360.6 267.9L457.3 236.9Z" fill="#333732" stroke="#333732"></path><path d="M626.2 369.2L557.8 323.1L554.4 385.4Z" fill="#182518" stroke="#182518"></path><path d="M575.4 424.5L626.2 369.2L554.4 385.4Z" fill="#2a3129" stroke="#2a3129"></path><path d="M466.7 540.7L484.1 519.5L463.1 497.7Z" fill="#212b20" stroke="#212b20"></path><path d="M463.1 497.7L484.1 519.5L517.4 487.7Z" fill="#182518" stroke="#182518"></path><path d="M632.2 253.8L586.8 230.8L584.4 267.8Z" fill="#262e25" stroke="#262e25"></path><path d="M584.4 267.8L586.8 230.8L520.4 236.6Z" fill="#182518" stroke="#182518"></path><path d="M452.3 172.6L457.3 236.9L474.1 205.6Z" fill="#373a37" stroke="#373a37"></path><path d="M264.2 381.1L319.2 452.4L364.9 408.2Z" fill="#142214" stroke="#142214"></path><path d="M358.6 433.4L379.9 508.5L436.9 473.4Z" fill="#3c3d3b" stroke="#3c3d3b"></path><path d="M340.2 484.5L379.9 508.5L358.6 433.4Z" fill="#262e25" stroke="#262e25"></path><path d="M523.4 148.3L452.3 172.6L476.3 193.8Z" fill="#373a37" stroke="#373a37"></path><path d="M476.3 193.8L452.3 172.6L474.1 205.6Z" fill="#2a3129" stroke="#2a3129"></path><path d="M632.2 253.8L587.4 219.9L586.8 230.8Z" fill="#142214" stroke="#142214"></path><path d="M586.8 230.8L587.4 219.9L520.4 236.6Z" fill="#2e342d" stroke="#2e342d"></path><path d="M654.5 313.2L632.8 285.9L620.4 312.1Z" fill="#333732" stroke="#333732"></path><path d="M620.4 312.1L632.8 285.9L584.4 267.8Z" fill="#1d281c" stroke="#1d281c"></path><path d="M319.2 452.4L340.2 484.5L358.6 433.4Z" fill="#182518" stroke="#182518"></path><path d="M452.3 172.6L377.3 192.5L457.3 236.9Z" fill="#212b20" stroke="#212b20"></path><path d="M595.8 489.5L575.4 424.5L526.7 459.5Z" fill="#2a3129" stroke="#2a3129"></path><path d="M575.4 424.5L626.8 436.4L626.2 369.2Z" fill="#182518" stroke="#182518"></path><path d="M626.2 369.2L654.8 325.2L620.4 312.1Z" fill="#212b20" stroke="#212b20"></path><path d="M595.8 489.5L526.7 459.5L517.4 487.7Z" fill="#333732" stroke="#333732"></path><path d="M373.9 520.7L378.3 514.5L344.6 514.5Z" fill="#262e25" stroke="#262e25"></path><path d="M428.3 554.7L466.7 540.7L463.1 497.7Z" fill="#3c3d3b" stroke="#3c3d3b"></path><path d="M392.9 160.6L356.6 197.8L377.3 192.5Z" fill="#262e25" stroke="#262e25"></path><path d="M377.3 192.5L356.6 197.8L337.9 229.8Z" fill="#2a3129" stroke="#2a3129"></path><path d="M428.3 554.7L436.9 473.4L379.9 508.5Z" fill="#1d281c" stroke="#1d281c"></path><path d="M517.4 562.8L595.8 489.5L517.4 487.7Z" fill="#333732" stroke="#333732"></path><path d="M517.4 562.8L517.4 487.7L484.1 519.5Z" fill="#2a3129" stroke="#2a3129"></path><path d="M344.6 514.5L378.3 514.5L379.9 508.5Z" fill="#262e25" stroke="#262e25"></path><path d="M378.3 514.5L428.3 554.7L379.9 508.5Z" fill="#2e342d" stroke="#2e342d"></path><path d="M677.2 365.1L654.8 325.2L626.2 369.2Z" fill="#2e342d" stroke="#2e342d"></path><path d="M654.8 325.2L654.5 313.2L620.4 312.1Z" fill="#373a37" stroke="#373a37"></path><path d="M632.8 285.9L632.2 253.8L584.4 267.8Z" fill="#404040" stroke="#404040"></path><path d="M654.2 257.9L632.2 253.8L632.8 285.9Z" fill="#142214" stroke="#142214"></path><path d="M258.2 314.2L266.8 316.1L278.2 237.9Z" fill="#3c3d3b" stroke="#3c3d3b"></path><path d="M326.2 277.8L266.8 316.1L364.6 306.1Z" fill="#333732" stroke="#333732"></path><path d="M266.8 316.1L326.2 277.8L278.2 237.9Z" fill="#3c3d3b" stroke="#3c3d3b"></path><path d="M239.5 499.5L344.6 514.5L340.2 484.5Z" fill="#1d281c" stroke="#1d281c"></path><path d="M340.2 484.5L344.6 514.5L379.9 508.5Z" fill="#3c3d3b" stroke="#3c3d3b"></path><path d="M373.9 520.7L428.3 554.7L378.3 514.5Z" fill="#142214" stroke="#142214"></path><path d="M266.8 316.1L264.2 381.1L376.3 328.1Z" fill="#2e342d" stroke="#2e342d"></path><path d="M239.5 499.5L334.2 550.7L344.6 514.5Z" fill="#182518" stroke="#182518"></path><path d="M452.3 172.6L392.9 160.6L377.3 192.5Z" fill="#3c3d3b" stroke="#3c3d3b"></path><path d="M368.6 543.7L428.3 554.7L373.9 520.7Z" fill="#373a37" stroke="#373a37"></path><path d="M278.2 237.9L326.2 277.8L337.9 229.8Z" fill="#404040" stroke="#404040"></path><path d="M266.8 316.1L258.2 314.2L264.2 381.1Z" fill="#262e25" stroke="#262e25"></path><path d="M727.9 289.9L654.2 257.9L654.5 313.2Z" fill="#142214" stroke="#142214"></path><path d="M654.5 313.2L654.2 257.9L632.8 285.9Z" fill="#142214" stroke="#142214"></path><path d="M632.2 253.8L655.2 221.6L587.4 219.9Z" fill="#2e342d" stroke="#2e342d"></path><path d="M530.7 145.3L523.4 148.3L587.4 219.9Z" fill="#182518" stroke="#182518"></path><path d="M587.4 219.9L523.4 148.3L520.4 236.6Z" fill="#2e342d" stroke="#2e342d"></path><path d="M452.3 172.6L424.7 136.5L392.9 160.6Z" fill="#3c3d3b" stroke="#3c3d3b"></path><path d="M668.2 432.5L626.2 369.2L626.8 436.4Z" fill="#3c3d3b" stroke="#3c3d3b"></path><path d="M668.2 432.5L677.2 365.1L626.2 369.2Z" fill="#404040" stroke="#404040"></path><path d="M654.8 325.2L727.9 289.9L654.5 313.2Z" fill="#262e25" stroke="#262e25"></path><path d="M344.6 514.5L368.6 543.7L373.9 520.7Z" fill="#212b20" stroke="#212b20"></path><path d="M526.7 130.6L530.7 145.3L552.1 115.5Z" fill="#142214" stroke="#142214"></path><path d="M445.3 132.3L424.7 136.5L452.3 172.6Z" fill="#2e342d" stroke="#2e342d"></path><path d="M490.1 594.8L517.4 562.8L466.7 540.7Z" fill="#182518" stroke="#182518"></path><path d="M466.7 540.7L517.4 562.8L484.1 519.5Z" fill="#333732" stroke="#333732"></path><path d="M282.6 226.6L337.9 229.8L356.6 197.8Z" fill="#1d281c" stroke="#1d281c"></path><path d="M282.6 226.6L278.2 237.9L337.9 229.8Z" fill="#373a37" stroke="#373a37"></path><path d="M445.3 132.3L452.3 172.6L523.4 148.3Z" fill="#2a3129" stroke="#2a3129"></path><path d="M320.9 147.5L282.6 226.6L356.6 197.8Z" fill="#373a37" stroke="#373a37"></path><path d="M666.2 439.4L626.8 436.4L626.8 526.7Z" fill="#2e342d" stroke="#2e342d"></path><path d="M666.2 439.4L668.2 432.5L626.8 436.4Z" fill="#1d281c" stroke="#1d281c"></path><path d="M626.8 526.7L626.8 436.4L595.8 489.5Z" fill="#2a3129" stroke="#2a3129"></path><path d="M477.7 94.2L445.3 132.3L523.4 148.3Z" fill="#142214" stroke="#142214"></path><path d="M320.9 147.5L356.6 197.8L392.9 160.6Z" fill="#142214" stroke="#142214"></path><path d="M552.1 115.5L530.7 145.3L613.8 147.5Z" fill="#373a37" stroke="#373a37"></path><path d="M530.7 145.3L526.7 130.6L523.4 148.3Z" fill="#3c3d3b" stroke="#3c3d3b"></path><path d="M658.8 216.6L655.2 221.6L713.5 225.8Z" fill="#212b20" stroke="#212b20"></path><path d="M654.2 257.9L655.2 221.6L632.2 253.8Z" fill="#142214" stroke="#142214"></path><path d="M713.5 225.8L655.2 221.6L654.2 257.9Z" fill="#262e25" stroke="#262e25"></path><path d="M655.2 221.6L658.8 216.6L587.4 219.9Z" fill="#2e342d" stroke="#2e342d"></path><path d="M239.5 499.5L340.2 484.5L319.2 452.4Z" fill="#182518" stroke="#182518"></path><path d="M344.6 514.5L334.2 550.7L368.6 543.7Z" fill="#142214" stroke="#142214"></path><path d="M368.6 543.7L370.6 570.8L428.3 554.7Z" fill="#3c3d3b" stroke="#3c3d3b"></path><path d="M453.3 599.8L490.1 594.8L466.7 540.7Z" fill="#1d281c" stroke="#1d281c"></path><path d="M334.2 550.7L370.6 570.8L368.6 543.7Z" fill="#333732" stroke="#333732"></path><path d="M589.8 593.8L626.8 526.7L595.8 489.5Z" fill="#3c3d3b" stroke="#3c3d3b"></path><path d="M223.8 425.4L244.5 449.4L264.2 381.1Z" fill="#2e342d" stroke="#2e342d"></path><path d="M264.2 381.1L244.5 449.4L319.2 452.4Z" fill="#212b20" stroke="#212b20"></path><path d="M453.3 599.8L466.7 540.7L428.3 554.7Z" fill="#182518" stroke="#182518"></path><path d="M517.4 562.8L589.8 593.8L595.8 489.5Z" fill="#373a37" stroke="#373a37"></path><path d="M440.3 600L453.3 599.8L428.3 554.7Z" fill="#2e342d" stroke="#2e342d"></path><path d="M385.9 600L440.3 600L428.3 554.7Z" fill="#404040" stroke="#404040"></path><path d="M358.6 120.5L392.9 160.6L424.7 136.5Z" fill="#333732" stroke="#333732"></path><path d="M358.6 120.5L320.9 147.5L392.9 160.6Z" fill="#2a3129" stroke="#2a3129"></path><path d="M194.1 346.1L264.2 381.1L258.2 314.2Z" fill="#373a37" stroke="#373a37"></path><path d="M194.1 346.1L223.8 425.4L264.2 381.1Z" fill="#182518" stroke="#182518"></path><path d="M613.8 147.5L530.7 145.3L587.4 219.9Z" fill="#142214" stroke="#142214"></path><path d="M526.7 130.6L477.7 94.2L523.4 148.3Z" fill="#373a37" stroke="#373a37"></path><path d="M388.9 40.2L358.6 120.5L424.7 136.5Z" fill="#1d281c" stroke="#1d281c"></path><path d="M658.8 216.6L613.8 147.5L587.4 219.9Z" fill="#3c3d3b" stroke="#3c3d3b"></path><path d="M482.7 611.8L490.1 594.8L453.3 599.8Z" fill="#142214" stroke="#142214"></path><path d="M482.7 611.8L520.7 600L490.1 594.8Z" fill="#1d281c" stroke="#1d281c"></path><path d="M490.1 594.8L520.7 600L517.4 562.8Z" fill="#404040" stroke="#404040"></path><path d="M451.3 61.2L424.7 136.5L445.3 132.3Z" fill="#182518" stroke="#182518"></path><path d="M510.4 94.5L477.7 94.2L526.7 130.6Z" fill="#262e25" stroke="#262e25"></path><path d="M223.8 425.4L223.8 449.5L244.5 449.4Z" fill="#2a3129" stroke="#2a3129"></path><path d="M244.5 449.4L239.5 499.5L319.2 452.4Z" fill="#404040" stroke="#404040"></path><path d="M370.6 570.8L385.9 600L428.3 554.7Z" fill="#212b20" stroke="#212b20"></path><path d="M319.2 601.8L385.9 600L370.6 570.8Z" fill="#2a3129" stroke="#2a3129"></path><path d="M391.9 607.8L385.9 600L319.2 601.8Z" fill="#333732" stroke="#333732"></path><path d="M282.6 226.6L236.2 226.6L278.2 237.9Z" fill="#373a37" stroke="#373a37"></path><path d="M278.2 237.9L236.2 226.6L258.2 314.2Z" fill="#1d281c" stroke="#1d281c"></path><path d="M220.8 207.6L236.2 226.6L221.5 194.8Z" fill="#2e342d" stroke="#2e342d"></path><path d="M391.9 607.8L482.7 611.8L440.3 600Z" fill="#1d281c" stroke="#1d281c"></path><path d="M440.3 600L482.7 611.8L453.3 599.8Z" fill="#2a3129" stroke="#2a3129"></path><path d="M589.8 593.8L641.2 543.8L626.8 526.7Z" fill="#2a3129" stroke="#2a3129"></path><path d="M626.8 526.7L699.5 466.4L666.2 439.4Z" fill="#262e25" stroke="#262e25"></path><path d="M666.2 439.4L699.5 466.4L668.2 432.5Z" fill="#1d281c" stroke="#1d281c"></path><path d="M641.2 543.8L699.5 466.4L626.8 526.7Z" fill="#212b20" stroke="#212b20"></path><path d="M668.2 432.5L777.9 375.4L677.2 365.1Z" fill="#2a3129" stroke="#2a3129"></path><path d="M677.2 365.1L727.9 289.9L654.8 325.2Z" fill="#142214" stroke="#142214"></path><path d="M552.1 115.5L510.4 94.5L526.7 130.6Z" fill="#2a3129" stroke="#2a3129"></path><path d="M319.2 601.8L370.6 570.8L334.2 550.7Z" fill="#2e342d" stroke="#2e342d"></path><path d="M385.9 600L391.9 607.8L440.3 600Z" fill="#262e25" stroke="#262e25"></path><path d="M223.8 449.5L239.5 499.5L244.5 449.4Z" fill="#182518" stroke="#182518"></path><path d="M482.7 611.8L569.8 600L520.7 600Z" fill="#373a37" stroke="#373a37"></path><path d="M520.7 600L569.8 600L517.4 562.8Z" fill="#142214" stroke="#142214"></path><path d="M182.8 319.2L194.1 346.1L258.2 314.2Z" fill="#333732" stroke="#333732"></path><path d="M156.1 474.5L186.5 495.8L223.8 449.5Z" fill="#333732" stroke="#333732"></path><path d="M745.9 310.1L727.9 289.9L677.2 365.1Z" fill="#142214" stroke="#142214"></path><path d="M719.5 175.5L641.2 111.5L613.8 147.5Z" fill="#2a3129" stroke="#2a3129"></path><path d="M482.7 611.8L577.1 600L569.8 600Z" fill="#212b20" stroke="#212b20"></path><path d="M569.8 600L589.8 593.8L517.4 562.8Z" fill="#2e342d" stroke="#2e342d"></path><path d="M577.1 600L589.8 593.8L569.8 600Z" fill="#142214" stroke="#142214"></path><path d="M510.4 80.2L477.1 79.3L477.7 94.2Z" fill="#333732" stroke="#333732"></path><path d="M477.7 94.2L451.3 61.2L445.3 132.3Z" fill="#3c3d3b" stroke="#3c3d3b"></path><path d="M552.1 115.5L510.4 80.2L510.4 94.5Z" fill="#333732" stroke="#333732"></path><path d="M510.4 94.5L510.4 80.2L477.7 94.2Z" fill="#1d281c" stroke="#1d281c"></path><path d="M551.1 14.2L510.4 80.2L552.1 115.5Z" fill="#333732" stroke="#333732"></path><path d="M322.6 98.3L292.8 135.5L320.9 147.5Z" fill="#262e25" stroke="#262e25"></path><path d="M320.9 147.5L292.8 135.5L282.6 226.6Z" fill="#404040" stroke="#404040"></path><path d="M322.6 98.3L320.9 147.5L358.6 120.5Z" fill="#262e25" stroke="#262e25"></path><path d="M727.9 289.9L713.5 225.8L654.2 257.9Z" fill="#142214" stroke="#142214"></path><path d="M201.8 227.8L202.8 251.9L236.2 226.6Z" fill="#182518" stroke="#182518"></path><path d="M236.2 226.6L202.8 251.9L258.2 314.2Z" fill="#3c3d3b" stroke="#3c3d3b"></path><path d="M221.5 194.8L236.2 226.6L282.6 226.6Z" fill="#2e342d" stroke="#2e342d"></path><path d="M202.8 251.9L182.8 319.2L258.2 314.2Z" fill="#142214" stroke="#142214"></path><path d="M194.1 346.1L147.1 375.4L223.8 425.4Z" fill="#373a37" stroke="#373a37"></path><path d="M186.5 495.8L226.8 542.7L239.5 499.5Z" fill="#142214" stroke="#142214"></path><path d="M760.5 320.1L745.9 310.1L677.2 365.1Z" fill="#333732" stroke="#333732"></path><path d="M727.9 289.9L763.5 244.9L713.5 225.8Z" fill="#142214" stroke="#142214"></path><path d="M482.7 611.8L607.4 600L577.1 600Z" fill="#1d281c" stroke="#1d281c"></path><path d="M577.1 600L607.4 600L589.8 593.8Z" fill="#373a37" stroke="#373a37"></path><path d="M589.8 593.8L607.4 600L641.2 543.8Z" fill="#404040" stroke="#404040"></path><path d="M717.2 548.7L726.5 479.5L699.5 466.4Z" fill="#333732" stroke="#333732"></path><path d="M286.6 600L319.2 601.8L334.2 550.7Z" fill="#262e25" stroke="#262e25"></path><path d="M220.8 207.6L201.8 227.8L236.2 226.6Z" fill="#2a3129" stroke="#2a3129"></path><path d="M292.8 135.5L221.5 194.8L282.6 226.6Z" fill="#262e25" stroke="#262e25"></path><path d="M221.5 194.8L201.8 227.8L220.8 207.6Z" fill="#262e25" stroke="#262e25"></path><path d="M202.8 251.9L174.1 228.6L182.8 319.2Z" fill="#1d281c" stroke="#1d281c"></path><path d="M343.9 44.3L322.6 98.3L358.6 120.5Z" fill="#333732" stroke="#333732"></path><path d="M292.8 135.5L225.5 144.3L221.5 194.8Z" fill="#333732" stroke="#333732"></path><path d="M488.1 0L451.3 61.2L477.1 79.3Z" fill="#2e342d" stroke="#2e342d"></path><path d="M477.1 79.3L451.3 61.2L477.7 94.2Z" fill="#333732" stroke="#333732"></path><path d="M717.2 548.7L699.5 466.4L641.2 543.8Z" fill="#373a37" stroke="#373a37"></path><path d="M777.9 375.4L760.5 320.1L677.2 365.1Z" fill="#2e342d" stroke="#2e342d"></path><path d="M772.3 330.1L760.5 320.1L777.9 375.4Z" fill="#404040" stroke="#404040"></path><path d="M745.9 310.1L763.5 244.9L727.9 289.9Z" fill="#142214" stroke="#142214"></path><path d="M719.5 175.5L613.8 147.5L658.8 216.6Z" fill="#3c3d3b" stroke="#3c3d3b"></path><path d="M613.8 147.5L641.2 111.5L552.1 115.5Z" fill="#212b20" stroke="#212b20"></path><path d="M489.7 0L488.1 0L477.1 79.3Z" fill="#2a3129" stroke="#2a3129"></path><path d="M142.5 323.9L165.5 344.2L182.8 319.2Z" fill="#404040" stroke="#404040"></path><path d="M182.8 319.2L165.5 344.2L194.1 346.1Z" fill="#373a37" stroke="#373a37"></path><path d="M482.7 611.8L639.2 600L607.4 600Z" fill="#2a3129" stroke="#2a3129"></path><path d="M607.4 600L639.2 600L641.2 543.8Z" fill="#373a37" stroke="#373a37"></path><path d="M186.5 495.8L239.5 499.5L223.8 449.5Z" fill="#3c3d3b" stroke="#3c3d3b"></path><path d="M239.5 499.5L248.8 572.8L334.2 550.7Z" fill="#2e342d" stroke="#2e342d"></path><path d="M248.8 572.8L286.6 600L334.2 550.7Z" fill="#182518" stroke="#182518"></path><path d="M319.2 601.8L258.2 600L391.9 607.8Z" fill="#3c3d3b" stroke="#3c3d3b"></path><path d="M226.8 542.7L248.8 572.8L239.5 499.5Z" fill="#1d281c" stroke="#1d281c"></path><path d="M777.9 375.4L668.2 432.5L699.5 466.4Z" fill="#182518" stroke="#182518"></path><path d="M744.9 175.8L719.5 175.5L713.5 225.8Z" fill="#2a3129" stroke="#2a3129"></path><path d="M713.5 225.8L719.5 175.5L658.8 216.6Z" fill="#1d281c" stroke="#1d281c"></path><path d="M763.5 244.9L745.9 310.1L760.5 320.1Z" fill="#3c3d3b" stroke="#3c3d3b"></path><path d="M248.8 572.8L275.8 600L286.6 600Z" fill="#333732" stroke="#333732"></path><path d="M286.6 600L275.8 600L319.2 601.8Z" fill="#333732" stroke="#333732"></path><path d="M156.1 474.5L223.8 449.5L136.7 436.5Z" fill="#212b20" stroke="#212b20"></path><path d="M230.5 600L258.2 600L248.8 572.8Z" fill="#3c3d3b" stroke="#3c3d3b"></path><path d="M779.9 443.5L777.9 375.4L699.5 466.4Z" fill="#182518" stroke="#182518"></path><path d="M221.5 194.8L174.1 228.6L201.8 227.8Z" fill="#182518" stroke="#182518"></path><path d="M201.8 227.8L174.1 228.6L202.8 251.9Z" fill="#262e25" stroke="#262e25"></path><path d="M144.1 120.3L174.1 228.6L221.5 194.8Z" fill="#2e342d" stroke="#2e342d"></path><path d="M242.8 81.3L242.5 126.5L292.8 135.5Z" fill="#262e25" stroke="#262e25"></path><path d="M242.5 126.5L225.5 144.3L292.8 135.5Z" fill="#2e342d" stroke="#2e342d"></path><path d="M767.5 237.6L763.5 244.9L802.6 249.8Z" fill="#142214" stroke="#142214"></path><path d="M802.6 249.8L763.5 244.9L760.5 320.1Z" fill="#142214" stroke="#142214"></path><path d="M142.5 378.1L147.1 375.4L119.1 330.2Z" fill="#262e25" stroke="#262e25"></path><path d="M165.5 344.2L147.1 375.4L194.1 346.1Z" fill="#2a3129" stroke="#2a3129"></path><path d="M639.2 600L695.5 570.8L641.2 543.8Z" fill="#262e25" stroke="#262e25"></path><path d="M726.5 479.5L779.9 443.5L699.5 466.4Z" fill="#1d281c" stroke="#1d281c"></path><path d="M717.2 548.7L747.5 498.7L726.5 479.5Z" fill="#373a37" stroke="#373a37"></path><path d="M695.5 570.8L717.2 548.7L641.2 543.8Z" fill="#3c3d3b" stroke="#3c3d3b"></path><path d="M411.9 0L388.9 40.2L451.3 61.2Z" fill="#333732" stroke="#333732"></path><path d="M451.3 61.2L388.9 40.2L424.7 136.5Z" fill="#333732" stroke="#333732"></path><path d="M250.2 70.3L242.8 81.3L292.8 135.5Z" fill="#404040" stroke="#404040"></path><path d="M207.5 127.6L227.2 134.5L242.5 126.5Z" fill="#2e342d" stroke="#2e342d"></path><path d="M242.5 126.5L227.2 134.5L225.5 144.3Z" fill="#2a3129" stroke="#2a3129"></path><path d="M225.5 144.3L207.5 127.6L221.5 194.8Z" fill="#2e342d" stroke="#2e342d"></path><path d="M200.1 555.7L248.8 572.8L226.8 542.7Z" fill="#3c3d3b" stroke="#3c3d3b"></path><path d="M248.8 572.8L258.2 600L275.8 600Z" fill="#182518" stroke="#182518"></path><path d="M275.8 600L258.2 600L319.2 601.8Z" fill="#373a37" stroke="#373a37"></path><path d="M142.5 323.9L147.1 375.4L165.5 344.2Z" fill="#3c3d3b" stroke="#3c3d3b"></path><path d="M147.1 375.4L136.7 436.5L223.8 425.4Z" fill="#142214" stroke="#142214"></path><path d="M174.1 228.6L142.5 323.9L182.8 319.2Z" fill="#212b20" stroke="#212b20"></path><path d="M802.6 249.8L760.5 320.1L829.6 298.1Z" fill="#212b20" stroke="#212b20"></path><path d="M763.5 244.9L767.5 237.6L713.5 225.8Z" fill="#2e342d" stroke="#2e342d"></path><path d="M781.3 454.4L779.9 443.5L726.5 479.5Z" fill="#182518" stroke="#182518"></path><path d="M388.9 40.2L343.9 44.3L358.6 120.5Z" fill="#212b20" stroke="#212b20"></path><path d="M657.8 67.3L641.2 68.3L641.2 111.5Z" fill="#373a37" stroke="#373a37"></path><path d="M767.5 237.6L744.9 175.8L713.5 225.8Z" fill="#182518" stroke="#182518"></path><path d="M136.7 436.5L223.8 449.5L223.8 425.4Z" fill="#3c3d3b" stroke="#3c3d3b"></path><path d="M186.5 495.8L200.1 555.7L226.8 542.7Z" fill="#2a3129" stroke="#2a3129"></path><path d="M813.3 450.5L781.3 454.4L817.3 463.7Z" fill="#373a37" stroke="#373a37"></path><path d="M747.5 498.7L781.3 454.4L726.5 479.5Z" fill="#142214" stroke="#142214"></path><path d="M804.9 413.2L802.3 348.2L777.9 375.4Z" fill="#262e25" stroke="#262e25"></path><path d="M139.5 504.7L200.1 555.7L186.5 495.8Z" fill="#404040" stroke="#404040"></path><path d="M657.8 67.3L641.2 111.5L694.2 84.2Z" fill="#142214" stroke="#142214"></path><path d="M641.2 111.5L641.2 68.3L552.1 115.5Z" fill="#404040" stroke="#404040"></path><path d="M795.6 425.2L777.9 375.4L779.9 443.5Z" fill="#262e25" stroke="#262e25"></path><path d="M777.9 375.4L802.3 348.2L772.3 330.1Z" fill="#142214" stroke="#142214"></path><path d="M75.7 468.4L136.7 436.5L55.7 450.7Z" fill="#3c3d3b" stroke="#3c3d3b"></path><path d="M142.5 378.1L136.7 436.5L147.1 375.4Z" fill="#373a37" stroke="#373a37"></path><path d="M813.3 450.5L795.6 425.2L779.9 443.5Z" fill="#182518" stroke="#182518"></path><path d="M200.1 555.7L230.5 600L248.8 572.8Z" fill="#262e25" stroke="#262e25"></path><path d="M258.2 600L230.5 600L391.9 607.8Z" fill="#2a3129" stroke="#2a3129"></path><path d="M227.2 134.5L207.5 127.6L225.5 144.3Z" fill="#1d281c" stroke="#1d281c"></path><path d="M104.1 312.9L119.7 324.2L142.5 323.9Z" fill="#3c3d3b" stroke="#3c3d3b"></path><path d="M242.8 81.3L207.5 127.6L242.5 126.5Z" fill="#182518" stroke="#182518"></path><path d="M694.2 84.2L641.2 111.5L719.5 175.5Z" fill="#404040" stroke="#404040"></path><path d="M641.2 68.3L551.1 14.2L552.1 115.5Z" fill="#404040" stroke="#404040"></path><path d="M104.1 312.9L142.5 323.9L98.4 249.8Z" fill="#3c3d3b" stroke="#3c3d3b"></path><path d="M142.5 323.9L119.1 330.2L147.1 375.4Z" fill="#2e342d" stroke="#2e342d"></path><path d="M119.7 324.2L119.1 330.2L142.5 323.9Z" fill="#373a37" stroke="#373a37"></path><path d="M813.3 450.5L804.9 413.2L795.6 425.2Z" fill="#1d281c" stroke="#1d281c"></path><path d="M795.6 425.2L804.9 413.2L777.9 375.4Z" fill="#2a3129" stroke="#2a3129"></path><path d="M620.4 0L551.1 14.2L641.2 68.3Z" fill="#333732" stroke="#333732"></path><path d="M374.6 0L326.2 31.2L343.9 44.3Z" fill="#2e342d" stroke="#2e342d"></path><path d="M374.6 0L343.9 44.3L388.9 40.2Z" fill="#1d281c" stroke="#1d281c"></path><path d="M343.9 44.3L326.2 31.2L322.6 98.3Z" fill="#373a37" stroke="#373a37"></path><path d="M250.2 70.3L292.8 135.5L322.6 98.3Z" fill="#2a3129" stroke="#2a3129"></path><path d="M488.1 0L440.3 0L451.3 61.2Z" fill="#2e342d" stroke="#2e342d"></path><path d="M489.7 0L477.1 79.3L510.4 80.2Z" fill="#2e342d" stroke="#2e342d"></path><path d="M551.1 14.2L489.7 0L510.4 80.2Z" fill="#333732" stroke="#333732"></path><path d="M732.5 79.3L694.2 84.2L719.5 175.5Z" fill="#333732" stroke="#333732"></path><path d="M639.8 0L620.4 0L641.2 68.3Z" fill="#2e342d" stroke="#2e342d"></path><path d="M829.6 298.1L760.5 320.1L772.3 330.1Z" fill="#333732" stroke="#333732"></path><path d="M788.3 186.5L773.9 163.6L744.9 175.8Z" fill="#182518" stroke="#182518"></path><path d="M744.9 175.8L732.5 79.3L719.5 175.5Z" fill="#142214" stroke="#142214"></path><path d="M829.6 298.1L772.3 330.1L802.3 348.2Z" fill="#2a3129" stroke="#2a3129"></path><path d="M326.2 31.2L250.2 70.3L322.6 98.3Z" fill="#2a3129" stroke="#2a3129"></path><path d="M152.7 93.3L144.1 120.3L207.5 127.6Z" fill="#333732" stroke="#333732"></path><path d="M440.3 0L411.9 0L451.3 61.2Z" fill="#182518" stroke="#182518"></path><path d="M156.1 474.5L139.5 504.7L186.5 495.8Z" fill="#333732" stroke="#333732"></path><path d="M200.1 555.7L184.1 600L230.5 600Z" fill="#262e25" stroke="#262e25"></path><path d="M75.7 468.4L139.5 504.7L156.1 474.5Z" fill="#333732" stroke="#333732"></path><path d="M127.1 531.8L139.5 504.7L75.7 468.4Z" fill="#333732" stroke="#333732"></path><path d="M119.7 324.2L104.1 312.9L119.1 330.2Z" fill="#2e342d" stroke="#2e342d"></path><path d="M55.7 450.7L136.7 436.5L142.5 378.1Z" fill="#212b20" stroke="#212b20"></path><path d="M98.4 249.8L142.5 323.9L174.1 228.6Z" fill="#373a37" stroke="#373a37"></path><path d="M788.3 186.5L744.9 175.8L767.5 237.6Z" fill="#262e25" stroke="#262e25"></path><path d="M781.3 454.4L813.3 450.5L779.9 443.5Z" fill="#373a37" stroke="#373a37"></path><path d="M849.6 300.9L829.6 298.1L862.3 310.9Z" fill="#2e342d" stroke="#2e342d"></path><path d="M806.9 480.7L781.3 454.4L747.5 498.7Z" fill="#373a37" stroke="#373a37"></path><path d="M807.6 524.8L747.5 498.7L717.2 548.7Z" fill="#2e342d" stroke="#2e342d"></path><path d="M411.9 0L374.6 0L388.9 40.2Z" fill="#2a3129" stroke="#2a3129"></path><path d="M326.2 31.2L242.5 41.2L250.2 70.3Z" fill="#142214" stroke="#142214"></path><path d="M802.6 249.8L788.3 186.5L767.5 237.6Z" fill="#212b20" stroke="#212b20"></path><path d="M639.2 600L735.9 595.8L695.5 570.8Z" fill="#142214" stroke="#142214"></path><path d="M695.5 570.8L735.9 595.8L717.2 548.7Z" fill="#142214" stroke="#142214"></path><path d="M749.9 600L735.9 595.8L639.2 600Z" fill="#373a37" stroke="#373a37"></path><path d="M807.6 524.8L806.9 480.7L747.5 498.7Z" fill="#1d281c" stroke="#1d281c"></path><path d="M829.6 298.1L802.3 348.2L862.3 310.9Z" fill="#2e342d" stroke="#2e342d"></path><path d="M802.6 249.8L821.3 242.8L788.3 186.5Z" fill="#2e342d" stroke="#2e342d"></path><path d="M806.9 480.7L817.3 463.7L781.3 454.4Z" fill="#373a37" stroke="#373a37"></path><path d="M862.6 369.4L802.3 348.2L804.9 413.2Z" fill="#333732" stroke="#333732"></path><path d="M440.3 0L380.6 -8.8L411.9 0Z" fill="#142214" stroke="#142214"></path><path d="M411.9 0L380.6 -8.8L374.6 0Z" fill="#182518" stroke="#182518"></path><path d="M374.6 0L244.8 0L326.2 31.2Z" fill="#3c3d3b" stroke="#3c3d3b"></path><path d="M488.1 0L380.6 -8.8L440.3 0Z" fill="#142214" stroke="#142214"></path><path d="M489.7 0L380.6 -8.8L488.1 0Z" fill="#2e342d" stroke="#2e342d"></path><path d="M829.6 298.1L821.3 242.8L802.6 249.8Z" fill="#182518" stroke="#182518"></path><path d="M127.1 531.8L184.1 600L200.1 555.7Z" fill="#373a37" stroke="#373a37"></path><path d="M230.5 600L184.1 600L391.9 607.8Z" fill="#3c3d3b" stroke="#3c3d3b"></path><path d="M391.9 607.8L-3.6 600L482.7 611.8Z" fill="#333732" stroke="#333732"></path><path d="M787.3 601.8L749.9 600L639.2 600Z" fill="#3c3d3b" stroke="#3c3d3b"></path><path d="M735.9 595.8L749.9 600L717.2 548.7Z" fill="#212b20" stroke="#212b20"></path><path d="M806.9 480.7L836.6 524.7L817.3 463.7Z" fill="#404040" stroke="#404040"></path><path d="M103.1 208.8L98.4 249.8L174.1 228.6Z" fill="#182518" stroke="#182518"></path><path d="M103.1 208.8L174.1 228.6L144.1 120.3Z" fill="#2e342d" stroke="#2e342d"></path><path d="M244.8 0L242.5 41.2L326.2 31.2Z" fill="#142214" stroke="#142214"></path><path d="M250.2 70.3L242.5 41.2L242.8 81.3Z" fill="#2e342d" stroke="#2e342d"></path><path d="M75.7 468.4L156.1 474.5L136.7 436.5Z" fill="#2a3129" stroke="#2a3129"></path><path d="M139.5 504.7L127.1 531.8L200.1 555.7Z" fill="#3c3d3b" stroke="#3c3d3b"></path><path d="M805.9 127.5L732.5 79.3L773.9 163.6Z" fill="#333732" stroke="#333732"></path><path d="M773.9 163.6L732.5 79.3L744.9 175.8Z" fill="#212b20" stroke="#212b20"></path><path d="M676.2 0L639.8 0L657.8 67.3Z" fill="#373a37" stroke="#373a37"></path><path d="M802.3 165.6L773.9 163.6L788.3 186.5Z" fill="#2e342d" stroke="#2e342d"></path><path d="M765.5 600L807.6 524.8L717.2 548.7Z" fill="#333732" stroke="#333732"></path><path d="M639.8 0L641.2 68.3L657.8 67.3Z" fill="#333732" stroke="#333732"></path><path d="M551.1 14.2L618.8 -7.8L489.7 0Z" fill="#3c3d3b" stroke="#3c3d3b"></path><path d="M489.7 0L618.8 -7.8L380.6 -8.8Z" fill="#404040" stroke="#404040"></path><path d="M821.3 242.8L802.3 165.6L788.3 186.5Z" fill="#3c3d3b" stroke="#3c3d3b"></path><path d="M144.1 120.3L221.5 194.8L207.5 127.6Z" fill="#404040" stroke="#404040"></path><path d="M804.9 413.2L813.3 450.5L886.6 410.5Z" fill="#373a37" stroke="#373a37"></path><path d="M862.6 369.4L804.9 413.2L886.6 410.5Z" fill="#333732" stroke="#333732"></path><path d="M829.6 298.1L849.6 300.9L821.3 242.8Z" fill="#404040" stroke="#404040"></path><path d="M870.6 166.5L805.9 127.5L802.3 165.6Z" fill="#333732" stroke="#333732"></path><path d="M787.3 601.8L765.5 600L749.9 600Z" fill="#182518" stroke="#182518"></path><path d="M749.9 600L765.5 600L717.2 548.7Z" fill="#212b20" stroke="#212b20"></path><path d="M639.8 0L618.8 -7.8L620.4 0Z" fill="#2a3129" stroke="#2a3129"></path><path d="M620.4 0L618.8 -7.8L551.1 14.2Z" fill="#212b20" stroke="#212b20"></path><path d="M676.2 0L657.8 67.3L722.5 27.2Z" fill="#404040" stroke="#404040"></path><path d="M152.7 93.3L207.5 127.6L242.8 81.3Z" fill="#333732" stroke="#333732"></path><path d="M886.6 410.5L813.3 450.5L817.3 463.7Z" fill="#142214" stroke="#142214"></path><path d="M862.6 369.4L862.3 310.9L802.3 348.2Z" fill="#142214" stroke="#142214"></path><path d="M849.6 300.9L900 270.1L821.3 242.8Z" fill="#2a3129" stroke="#2a3129"></path><path d="M149.1 51.2L152.7 93.3L242.8 81.3Z" fill="#262e25" stroke="#262e25"></path><path d="M144.1 120.3L91.4 179.6L103.1 208.8Z" fill="#2e342d" stroke="#2e342d"></path><path d="M142.5 378.1L119.1 330.2L8.4 379.1Z" fill="#333732" stroke="#333732"></path><path d="M55.7 450.7L142.5 378.1L8.4 379.1Z" fill="#373a37" stroke="#373a37"></path><path d="M482.7 611.8L787.3 601.8L639.2 600Z" fill="#142214" stroke="#142214"></path><path d="M765.5 600L792.3 600L807.6 524.8Z" fill="#404040" stroke="#404040"></path><path d="M807.6 524.8L836.6 524.7L806.9 480.7Z" fill="#212b20" stroke="#212b20"></path><path d="M802.3 165.6L805.9 127.5L773.9 163.6Z" fill="#373a37" stroke="#373a37"></path><path d="M722.5 27.2L657.8 67.3L694.2 84.2Z" fill="#373a37" stroke="#373a37"></path><path d="M870.6 166.5L802.3 165.6L821.3 242.8Z" fill="#333732" stroke="#333732"></path><path d="M792.3 600L836.6 524.7L807.6 524.8Z" fill="#262e25" stroke="#262e25"></path><path d="M96.7 127.6L91.4 179.6L144.1 120.3Z" fill="#212b20" stroke="#212b20"></path><path d="M39.7 260.9L47.7 281.1L98.4 249.8Z" fill="#333732" stroke="#333732"></path><path d="M8.4 379.1L119.1 330.2L104.1 312.9Z" fill="#142214" stroke="#142214"></path><path d="M722.5 27.2L694.2 84.2L732.5 79.3Z" fill="#404040" stroke="#404040"></path><path d="M639.8 0L676.2 0L618.8 -7.8Z" fill="#2a3129" stroke="#2a3129"></path><path d="M787.3 601.8L792.3 600L765.5 600Z" fill="#2e342d" stroke="#2e342d"></path><path d="M380.6 -8.8L244.8 0L374.6 0Z" fill="#212b20" stroke="#212b20"></path><path d="M242.5 41.2L149.1 51.2L242.8 81.3Z" fill="#212b20" stroke="#212b20"></path><path d="M764.9 55.3L722.5 27.2L732.5 79.3Z" fill="#142214" stroke="#142214"></path><path d="M805.9 127.5L772.9 69.2L732.5 79.3Z" fill="#262e25" stroke="#262e25"></path><path d="M47.7 281.1L104.1 312.9L98.4 249.8Z" fill="#182518" stroke="#182518"></path><path d="M75.7 468.4L40.4 511.8L127.1 531.8Z" fill="#2e342d" stroke="#2e342d"></path><path d="M127.1 531.8L70.7 600L184.1 600Z" fill="#142214" stroke="#142214"></path><path d="M183.8 -4.8L234.5 0L244.8 0Z" fill="#2e342d" stroke="#2e342d"></path><path d="M244.8 0L234.5 0L242.5 41.2Z" fill="#262e25" stroke="#262e25"></path><path d="M39.7 260.9L98.4 249.8L35.7 251.8Z" fill="#262e25" stroke="#262e25"></path><path d="M772.9 69.2L764.9 55.3L732.5 79.3Z" fill="#373a37" stroke="#373a37"></path><path d="M183.8 -4.8L225.2 0L234.5 0Z" fill="#373a37" stroke="#373a37"></path><path d="M234.5 0L225.2 0L242.5 41.2Z" fill="#3c3d3b" stroke="#3c3d3b"></path><path d="M152.7 93.3L107.7 118.5L144.1 120.3Z" fill="#404040" stroke="#404040"></path><path d="M35.7 251.8L98.4 249.8L103.1 208.8Z" fill="#182518" stroke="#182518"></path><path d="M91.4 108.3L107.7 118.5L152.7 93.3Z" fill="#3c3d3b" stroke="#3c3d3b"></path><path d="M900 490.5L886.6 410.5L817.3 463.7Z" fill="#212b20" stroke="#212b20"></path><path d="M862.6 369.4L900 350.2L862.3 310.9Z" fill="#1d281c" stroke="#1d281c"></path><path d="M92.1 125.5L96.7 127.6L107.7 118.5Z" fill="#182518" stroke="#182518"></path><path d="M107.7 118.5L96.7 127.6L144.1 120.3Z" fill="#262e25" stroke="#262e25"></path><path d="M35.7 251.8L103.1 208.8L91.4 179.6Z" fill="#262e25" stroke="#262e25"></path><path d="M1.4 329.2L8.4 379.1L104.1 312.9Z" fill="#333732" stroke="#333732"></path><path d="M777.9 0L719.5 0L722.5 27.2Z" fill="#3c3d3b" stroke="#3c3d3b"></path><path d="M722.5 27.2L719.5 0L676.2 0Z" fill="#333732" stroke="#333732"></path><path d="M676.2 0L719.5 0L618.8 -7.8Z" fill="#212b20" stroke="#212b20"></path><path d="M91.4 108.3L92.1 125.5L107.7 118.5Z" fill="#373a37" stroke="#373a37"></path><path d="M96.7 127.6L92.1 125.5L91.4 179.6Z" fill="#182518" stroke="#182518"></path><path d="M183.8 -4.8L149.1 51.2L242.5 41.2Z" fill="#262e25" stroke="#262e25"></path><path d="M900 377.4L900 350.2L862.6 369.4Z" fill="#262e25" stroke="#262e25"></path><path d="M862.3 310.9L900 295.9L849.6 300.9Z" fill="#262e25" stroke="#262e25"></path><path d="M886.6 410.5L900 377.4L862.6 369.4Z" fill="#3c3d3b" stroke="#3c3d3b"></path><path d="M900 350.2L900 295.9L862.3 310.9Z" fill="#3c3d3b" stroke="#3c3d3b"></path><path d="M0 231.9L35.7 251.8L0 182.5Z" fill="#333732" stroke="#333732"></path><path d="M1.4 329.2L104.1 312.9L47.7 281.1Z" fill="#262e25" stroke="#262e25"></path><path d="M900 295.9L900 270.1L849.6 300.9Z" fill="#1d281c" stroke="#1d281c"></path><path d="M805.9 127.5L806.3 33.3L772.9 69.2Z" fill="#142214" stroke="#142214"></path><path d="M772.9 69.2L806.3 33.3L764.9 55.3Z" fill="#404040" stroke="#404040"></path><path d="M149.1 51.2L91.4 108.3L152.7 93.3Z" fill="#2e342d" stroke="#2e342d"></path><path d="M0 147.3L0 176.8L91.4 179.6Z" fill="#2e342d" stroke="#2e342d"></path><path d="M900 228.8L870.6 166.5L821.3 242.8Z" fill="#1d281c" stroke="#1d281c"></path><path d="M764.9 55.3L777.9 0L722.5 27.2Z" fill="#142214" stroke="#142214"></path><path d="M900 270.1L900 228.8L821.3 242.8Z" fill="#373a37" stroke="#373a37"></path><path d="M0 467.7L40.4 511.8L55.7 450.7Z" fill="#262e25" stroke="#262e25"></path><path d="M55.7 450.7L40.4 511.8L75.7 468.4Z" fill="#3c3d3b" stroke="#3c3d3b"></path><path d="M225.2 0L183.8 -4.8L242.5 41.2Z" fill="#2a3129" stroke="#2a3129"></path><path d="M72.7 40.2L72.4 97.5L91.4 108.3Z" fill="#2a3129" stroke="#2a3129"></path><path d="M380.6 -8.8L183.8 -4.8L244.8 0Z" fill="#3c3d3b" stroke="#3c3d3b"></path><path d="M40.4 511.8L64.7 570.8L127.1 531.8Z" fill="#2e342d" stroke="#2e342d"></path><path d="M1.4 329.2L47.7 281.1L0 312.1Z" fill="#3c3d3b" stroke="#3c3d3b"></path><path d="M836.6 524.7L900 490.5L817.3 463.7Z" fill="#333732" stroke="#333732"></path><path d="M886.6 410.5L900 490.5L900 377.4Z" fill="#182518" stroke="#182518"></path><path d="M900 509.7L900 490.5L836.6 524.7Z" fill="#373a37" stroke="#373a37"></path><path d="M900 295.9L908.6 233.6L900 270.1Z" fill="#142214" stroke="#142214"></path><path d="M900 270.1L908.6 233.6L900 228.8Z" fill="#333732" stroke="#333732"></path><path d="M900 228.8L900 168.6L870.6 166.5Z" fill="#333732" stroke="#333732"></path><path d="M900 350.2L908.6 233.6L900 295.9Z" fill="#1d281c" stroke="#1d281c"></path><path d="M900 377.4L908.6 233.6L900 350.2Z" fill="#3c3d3b" stroke="#3c3d3b"></path><path d="M900 490.5L908.6 233.6L900 377.4Z" fill="#373a37" stroke="#373a37"></path><path d="M4.4 414.4L6.4 421.5L55.7 450.7Z" fill="#3c3d3b" stroke="#3c3d3b"></path><path d="M47.7 281.1L39.7 260.9L-1.6 276.9Z" fill="#3c3d3b" stroke="#3c3d3b"></path><path d="M0 312.1L47.7 281.1L-1.6 276.9Z" fill="#404040" stroke="#404040"></path><path d="M8.4 379.1L4.4 414.4L55.7 450.7Z" fill="#182518" stroke="#182518"></path><path d="M900 581.8L900 509.7L836.6 524.7Z" fill="#2a3129" stroke="#2a3129"></path><path d="M900 490.5L900 509.7L908.6 233.6Z" fill="#2a3129" stroke="#2a3129"></path><path d="M0 410.5L4.4 414.4L8.4 379.1Z" fill="#1d281c" stroke="#1d281c"></path><path d="M1.4 329.2L0 361.4L8.4 379.1Z" fill="#2a3129" stroke="#2a3129"></path><path d="M0 361.4L0 364.2L8.4 379.1Z" fill="#182518" stroke="#182518"></path><path d="M0 577.8L64.7 570.8L40.4 511.8Z" fill="#262e25" stroke="#262e25"></path><path d="M0 600L70.7 600L64.7 570.8Z" fill="#1d281c" stroke="#1d281c"></path><path d="M64.7 570.8L70.7 600L127.1 531.8Z" fill="#182518" stroke="#182518"></path><path d="M184.1 600L70.7 600L391.9 607.8Z" fill="#142214" stroke="#142214"></path><path d="M-1.6 276.9L39.7 260.9L35.7 251.8Z" fill="#404040" stroke="#404040"></path><path d="M1.4 329.2L0 312.1L0 361.4Z" fill="#3c3d3b" stroke="#3c3d3b"></path><path d="M45.4 98.2L72.4 97.5L72.7 40.2Z" fill="#2e342d" stroke="#2e342d"></path><path d="M91.4 108.3L72.4 97.5L92.1 125.5Z" fill="#1d281c" stroke="#1d281c"></path><path d="M871.6 97.3L805.9 127.5L870.6 166.5Z" fill="#1d281c" stroke="#1d281c"></path><path d="M871.6 97.3L806.3 33.3L805.9 127.5Z" fill="#182518" stroke="#182518"></path><path d="M4.4 414.4L0 410.5L6.4 421.5Z" fill="#2e342d" stroke="#2e342d"></path><path d="M6.4 421.5L-1.6 449.7L55.7 450.7Z" fill="#373a37" stroke="#373a37"></path><path d="M0 364.2L0 410.5L8.4 379.1Z" fill="#2a3129" stroke="#2a3129"></path><path d="M806.3 33.3L777.9 0L764.9 55.3Z" fill="#333732" stroke="#333732"></path><path d="M719.5 0L777.9 0L618.8 -7.8Z" fill="#142214" stroke="#142214"></path><path d="M0 231.9L-1.6 276.9L35.7 251.8Z" fill="#182518" stroke="#182518"></path><path d="M0 312.1L-1.6 276.9L0 361.4Z" fill="#1d281c" stroke="#1d281c"></path><path d="M0 361.4L-1.6 276.9L0 364.2Z" fill="#182518" stroke="#182518"></path><path d="M0 364.2L-1.6 449.7L0 410.5Z" fill="#333732" stroke="#333732"></path><path d="M908.6 233.6L900 168.6L900 228.8Z" fill="#212b20" stroke="#212b20"></path><path d="M-1.6 276.9L-1.6 449.7L0 364.2Z" fill="#373a37" stroke="#373a37"></path><path d="M0 410.5L-1.6 449.7L6.4 421.5Z" fill="#182518" stroke="#182518"></path><path d="M-1.6 449.7L0 467.7L55.7 450.7Z" fill="#333732" stroke="#333732"></path><path d="M0 182.5L35.7 251.8L91.4 179.6Z" fill="#404040" stroke="#404040"></path><path d="M900 146.3L871.6 97.3L870.6 166.5Z" fill="#182518" stroke="#182518"></path><path d="M806.3 33.3L808.6 0L777.9 0Z" fill="#212b20" stroke="#212b20"></path><path d="M908.6 233.6L900 146.3L900 168.6Z" fill="#333732" stroke="#333732"></path><path d="M900 168.6L900 146.3L870.6 166.5Z" fill="#2a3129" stroke="#2a3129"></path><path d="M72.7 40.2L91.4 108.3L149.1 51.2Z" fill="#212b20" stroke="#212b20"></path><path d="M72.4 97.5L45.4 98.2L92.1 125.5Z" fill="#2a3129" stroke="#2a3129"></path><path d="M183.8 -4.8L120.1 0L149.1 51.2Z" fill="#333732" stroke="#333732"></path><path d="M817.3 0L808.6 0L806.3 33.3Z" fill="#2e342d" stroke="#2e342d"></path><path d="M777.9 0L808.6 0L618.8 -7.8Z" fill="#2a3129" stroke="#2a3129"></path><path d="M895.6 600L900 581.8L836.6 524.7Z" fill="#1d281c" stroke="#1d281c"></path><path d="M900 509.7L900 581.8L908.6 233.6Z" fill="#3c3d3b" stroke="#3c3d3b"></path><path d="M895.6 600L836.6 524.7L792.3 600Z" fill="#404040" stroke="#404040"></path><path d="M0 176.8L0 182.5L91.4 179.6Z" fill="#182518" stroke="#182518"></path><path d="M0 231.9L0 182.5L-1.6 276.9Z" fill="#262e25" stroke="#262e25"></path><path d="M0 147.3L91.4 179.6L92.1 125.5Z" fill="#182518" stroke="#182518"></path><path d="M0 182.5L0 176.8L-1.6 276.9Z" fill="#142214" stroke="#142214"></path><path d="M900 600L895.6 600L787.3 601.8Z" fill="#333732" stroke="#333732"></path><path d="M787.3 601.8L895.6 600L792.3 600Z" fill="#212b20" stroke="#212b20"></path><path d="M852.3 32.2L806.3 33.3L871.6 97.3Z" fill="#212b20" stroke="#212b20"></path><path d="M852.3 32.2L817.3 0L806.3 33.3Z" fill="#2e342d" stroke="#2e342d"></path><path d="M808.6 0L817.3 0L618.8 -7.8Z" fill="#2e342d" stroke="#2e342d"></path><path d="M183.8 -4.8L110.7 0L120.1 0Z" fill="#212b20" stroke="#212b20"></path><path d="M120.1 0L110.7 0L149.1 51.2Z" fill="#212b20" stroke="#212b20"></path><path d="M110.7 0L72.7 40.2L149.1 51.2Z" fill="#404040" stroke="#404040"></path><path d="M45.4 98.2L0 147.3L92.1 125.5Z" fill="#404040" stroke="#404040"></path><path d="M482.7 611.8L900 600L787.3 601.8Z" fill="#333732" stroke="#333732"></path><path d="M895.6 600L900 600L900 581.8Z" fill="#2e342d" stroke="#2e342d"></path><path d="M900 581.8L900 600L908.6 233.6Z" fill="#212b20" stroke="#212b20"></path><path d="M884.6 56.2L852.3 32.2L871.6 97.3Z" fill="#2a3129" stroke="#2a3129"></path><path d="M0 138.6L0 147.3L45.4 98.2Z" fill="#182518" stroke="#182518"></path><path d="M0 176.8L0 147.3L-1.6 276.9Z" fill="#262e25" stroke="#262e25"></path><path d="M0 9.2L0 138.6L45.4 98.2Z" fill="#2e342d" stroke="#2e342d"></path><path d="M0 147.3L0 138.6L-1.6 276.9Z" fill="#333732" stroke="#333732"></path><path d="M900 146.3L900 82.5L871.6 97.3Z" fill="#2e342d" stroke="#2e342d"></path><path d="M908.6 233.6L900 82.5L900 146.3Z" fill="#3c3d3b" stroke="#3c3d3b"></path><path d="M900 82.5L884.6 56.2L871.6 97.3Z" fill="#142214" stroke="#142214"></path><path d="M852.3 32.2L900 0L817.3 0Z" fill="#333732" stroke="#333732"></path><path d="M0 467.7L0 577.8L40.4 511.8Z" fill="#1d281c" stroke="#1d281c"></path><path d="M-3.6 600L0 577.8L0 467.7Z" fill="#2a3129" stroke="#2a3129"></path><path d="M-3.6 600L0 600L0 577.8Z" fill="#2e342d" stroke="#2e342d"></path><path d="M0 577.8L0 600L64.7 570.8Z" fill="#404040" stroke="#404040"></path><path d="M70.7 600L0 600L391.9 607.8Z" fill="#373a37" stroke="#373a37"></path><path d="M183.8 -4.8L71.4 0L110.7 0Z" fill="#2a3129" stroke="#2a3129"></path><path d="M110.7 0L71.4 0L72.7 40.2Z" fill="#1d281c" stroke="#1d281c"></path><path d="M72.7 40.2L0 9.2L45.4 98.2Z" fill="#1d281c" stroke="#1d281c"></path><path d="M-1.6 449.7L-3.6 600L0 467.7Z" fill="#1d281c" stroke="#1d281c"></path><path d="M0 600L-3.6 600L391.9 607.8Z" fill="#1d281c" stroke="#1d281c"></path><path d="M-1.6 276.9L-3.6 600L-1.6 449.7Z" fill="#2a3129" stroke="#2a3129"></path><path d="M908.6 233.6L900 31.2L900 82.5Z" fill="#373a37" stroke="#373a37"></path><path d="M900 82.5L900 31.2L884.6 56.2Z" fill="#404040" stroke="#404040"></path><path d="M884.6 56.2L900 31.2L852.3 32.2Z" fill="#182518" stroke="#182518"></path><path d="M908.6 233.6L900 0L900 31.2Z" fill="#142214" stroke="#142214"></path><path d="M900 31.2L900 0L852.3 32.2Z" fill="#404040" stroke="#404040"></path><path d="M817.3 0L900 0L618.8 -7.8Z" fill="#333732" stroke="#333732"></path><path d="M71.4 0L0 9.2L72.7 40.2Z" fill="#142214" stroke="#142214"></path><path d="M0 138.6L0 9.2L-1.6 276.9Z" fill="#373a37" stroke="#373a37"></path><path d="M-1.6 276.9L0 0L-3.6 600Z" fill="#373a37" stroke="#373a37"></path><path d="M71.4 0L0 0L0 9.2Z" fill="#373a37" stroke="#373a37"></path><path d="M0 9.2L0 0L-1.6 276.9Z" fill="#333732" stroke="#333732"></path><path d="M183.8 -4.8L0 0L71.4 0Z" fill="#404040" stroke="#404040"></path></g></svg>